<svg width="16" height="16" viewBox="0 0 16 16" xmlns="http://www.w3.org/2000/svg">
<path d="M14.7475 7.9975C14.7475 8.4075 14.4075 8.7475 13.9975 8.7475H3.8075L7.5275 12.4675C7.8175 12.7575 7.8175 13.2375 7.5275 13.5275C7.3775 13.6775 7.1875 13.7475 6.9975 13.7475C6.8075 13.7475 6.6175 13.6775 6.4675 13.5275L1.4675 8.5275C1.1775 8.2375 1.1775 7.7575 1.4675 7.4675L6.4675 2.4675C6.7575 2.1775 7.2375 2.1775 7.5275 2.4675C7.8175 2.7575 7.8175 3.2375 7.5275 3.5275L3.8075 7.2475H13.9975C14.4075 7.2475 14.7475 7.5875 14.7475 7.9975Z" />
</svg>
