<svg width="24" height="24" viewBox="0 0 24 24" xmlns="http://www.w3.org/2000/svg">
<path d="M19.19 4.25H17.12C16.72 4.25 16.35 4.03 16.17 3.67C15.73 2.8 14.86 2.25 13.88 2.25H10.12C9.14 2.25 8.27 2.79 7.83 3.67C7.65 4.03 7.29 4.25 6.88 4.25H4.81C3.4 4.25 2.25 5.4 2.25 6.81V18.19C2.25 19.6 3.4 20.75 4.81 20.75H19.19C20.6 20.75 21.75 19.6 21.75 18.19V6.81C21.75 5.4 20.6 4.25 19.19 4.25ZM20.25 18.19C20.25 18.77 19.78 19.25 19.19 19.25H4.81C4.23 19.25 3.75 18.78 3.75 18.19V6.81C3.75 6.23 4.22 5.75 4.81 5.75H6.88C7.86 5.75 8.73 5.21 9.17 4.33C9.35 3.97 9.71 3.75 10.12 3.75H13.88C14.28 3.75 14.65 3.97 14.83 4.33C15.27 5.2 16.14 5.75 17.12 5.75H19.19C19.77 5.75 20.25 6.22 20.25 6.81V18.19ZM12 6.25C8.83 6.25 6.25 8.83 6.25 12C6.25 15.17 8.83 17.75 12 17.75C15.17 17.75 17.75 15.17 17.75 12C17.75 8.83 15.17 6.25 12 6.25ZM12 16.25C9.66 16.25 7.75 14.34 7.75 12C7.75 9.66 9.66 7.75 12 7.75C14.34 7.75 16.25 9.66 16.25 12C16.25 14.34 14.34 16.25 12 16.25ZM14.75 12C14.75 13.52 13.52 14.75 12 14.75C11.59 14.75 11.25 14.41 11.25 14C11.25 13.59 11.59 13.25 12 13.25C12.69 13.25 13.25 12.69 13.25 12C13.25 11.59 13.59 11.25 14 11.25C14.41 11.25 14.75 11.59 14.75 12Z" />
</svg>
