<svg width="32" height="32" viewBox="0 0 32 32" xmlns="http://www.w3.org/2000/svg">
<path d="M25 7.25H22.19C21.73 7.25 21.31 7 21.09 6.59L20.89 6.22C20.23 5.01 18.97 4.25 17.59 4.25H14.41C13.03 4.25 11.77 5 11.11 6.22L10.91 6.6C10.69 7 10.27 7.26 9.81 7.26H7C4.93 7.26 3.25 8.94 3.25 11.01V24.01C3.25 26.08 4.93 27.76 7 27.76H25C27.07 27.76 28.75 26.08 28.75 24.01V11C28.75 8.93 27.07 7.25 25 7.25ZM27.25 24C27.25 25.24 26.24 26.25 25 26.25H7C5.76 26.25 4.75 25.24 4.75 24V11C4.75 9.76 5.76 8.75 7 8.75H9.81C10.82 8.75 11.75 8.2 12.23 7.31L12.43 6.94C12.82 6.21 13.58 5.76 14.41 5.76H17.59C18.42 5.76 19.18 6.21 19.57 6.94L19.77 7.31C20.25 8.2 21.18 8.76 22.19 8.76H25C26.24 8.76 27.25 9.77 27.25 11.01V24.01V24ZM16 10.25C12.28 10.25 9.25 13.28 9.25 17C9.25 20.72 12.28 23.75 16 23.75C19.72 23.75 22.75 20.72 22.75 17C22.75 13.28 19.72 10.25 16 10.25ZM16 22.25C13.11 22.25 10.75 19.89 10.75 17C10.75 14.11 13.11 11.75 16 11.75C18.89 11.75 21.25 14.11 21.25 17C21.25 19.89 18.89 22.25 16 22.25ZM19.75 17C19.75 19.07 18.07 20.75 16 20.75C15.59 20.75 15.25 20.41 15.25 20C15.25 19.59 15.59 19.25 16 19.25C17.24 19.25 18.25 18.24 18.25 17C18.25 16.59 18.59 16.25 19 16.25C19.41 16.25 19.75 16.59 19.75 17Z" />
</svg>
