<svg width="24" height="24" viewBox="0 0 24 24" xmlns="http://www.w3.org/2000/svg">
<path d="M12.8099 11.75L15.2799 9.28C15.5699 8.99 15.5699 8.51 15.2799 8.22C14.9899 7.93 14.5099 7.93 14.2199 8.22L11.7499 10.69L9.27994 8.22C8.98994 7.93 8.50994 7.93 8.21994 8.22C7.92994 8.51 7.92994 8.99 8.21994 9.28L10.6899 11.75L8.21994 14.22C7.92994 14.51 7.92994 14.99 8.21994 15.28C8.36994 15.43 8.55994 15.5 8.74994 15.5C8.93994 15.5 9.12994 15.43 9.27994 15.28L11.7499 12.81L14.2199 15.28C14.3699 15.43 14.5599 15.5 14.7499 15.5C14.9399 15.5 15.1299 15.43 15.2799 15.28C15.5699 14.99 15.5699 14.51 15.2799 14.22L12.8099 11.75Z" />
</svg>
