<svg width="24" height="24" viewBox="0 0 24 24" xmlns="http://www.w3.org/2000/svg">
<path d="M20.12 10.9325C20.64 10.4125 20.93 9.7225 20.93 8.9925C20.93 8.2625 20.64 7.5725 20.12 7.0525L16.95 3.8825C15.88 2.8125 14.13 2.8125 13.06 3.8825L3.88 13.0525C3.36 13.5725 3.07 14.2625 3.07 14.9925C3.07 15.7225 3.36 16.4125 3.88 16.9325L5.64 18.6925C6.57 19.6225 7.78 20.0825 9 20.0825C10.22 20.0825 11.43 19.6225 12.36 18.6925L20.12 10.9325ZM14.12 4.9325C14.36 4.6925 14.67 4.5625 15 4.5625C15.33 4.5625 15.65 4.6925 15.88 4.9325L19.05 8.1025C19.54 8.5925 19.54 9.3825 19.05 9.8725L12.99 15.9325L8.05 10.9925L14.12 4.9325ZM6.7 17.6325L4.94 15.8725C4.45 15.3825 4.45 14.5925 4.94 14.1025L7 12.0425L11.94 16.9825L11.3 17.6225C10.07 18.8525 7.93 18.8525 6.7 17.6225V17.6325ZM22.75 20.9925C22.75 21.4025 22.41 21.7425 22 21.7425H14C13.59 21.7425 13.25 21.4025 13.25 20.9925C13.25 20.5825 13.59 20.2425 14 20.2425H22C22.41 20.2425 22.75 20.5825 22.75 20.9925ZM4.75 20.9925C4.75 21.4025 4.41 21.7425 4 21.7425H2C1.59 21.7425 1.25 21.4025 1.25 20.9925C1.25 20.5825 1.59 20.2425 2 20.2425H4C4.41 20.2425 4.75 20.5825 4.75 20.9925Z" />
</svg>
