<svg width="16" height="16" viewBox="0 0 16 16" xmlns="http://www.w3.org/2000/svg">
<path d="M12.35 11.65C12.55 11.85 12.55 12.16 12.35 12.36C12.25 12.46 12.12 12.51 12 12.51C11.88 12.51 11.74 12.46 11.65 12.36L8 8.71L4.35 12.36C4.25 12.46 4.12 12.51 4 12.51C3.88 12.51 3.74 12.46 3.65 12.36C3.45 12.16 3.45 11.85 3.65 11.65L7.3 8L3.65 4.35C3.45 4.16 3.45 3.84 3.65 3.65C3.85 3.46 4.16 3.45 4.35 3.65L8 7.3L11.65 3.65C11.85 3.45 12.16 3.45 12.36 3.65C12.56 3.85 12.56 4.16 12.36 4.36L8.71 8.01L12.36 11.66L12.35 11.65Z" />
</svg>
