<svg width="16" height="16" viewBox="0 0 16 16" xmlns="http://www.w3.org/2000/svg">
<path d="M13.5275 12.4675C13.8175 12.7575 13.8175 13.2375 13.5275 13.5275C13.3775 13.6775 13.1875 13.7475 12.9975 13.7475C12.8075 13.7475 12.6175 13.6775 12.4675 13.5275L7.9975 9.0575L3.5275 13.5275C3.3775 13.6775 3.1875 13.7475 2.9975 13.7475C2.8075 13.7475 2.6175 13.6775 2.4675 13.5275C2.1775 13.2375 2.1775 12.7575 2.4675 12.4675L6.9375 7.9975L2.4675 3.5275C2.1775 3.2375 2.1775 2.7575 2.4675 2.4675C2.7575 2.1775 3.2375 2.1775 3.5275 2.4675L7.9975 6.9375L12.4675 2.4675C12.7575 2.1775 13.2375 2.1775 13.5275 2.4675C13.8175 2.7575 13.8175 3.2375 13.5275 3.5275L9.0575 7.9975L13.5275 12.4675Z" />
</svg>
