<svg width="24" height="24" viewBox="0 0 24 24" xmlns="http://www.w3.org/2000/svg">
<path d="M19.5275 18.4675C19.8175 18.7575 19.8175 19.2375 19.5275 19.5275C19.3775 19.6775 19.1875 19.7475 18.9975 19.7475C18.8075 19.7475 18.6175 19.6775 18.4675 19.5275L11.9975 13.0575L5.5275 19.5275C5.3775 19.6775 5.1875 19.7475 4.9975 19.7475C4.8075 19.7475 4.6175 19.6775 4.4675 19.5275C4.1775 19.2375 4.1775 18.7575 4.4675 18.4675L10.9375 11.9975L4.4675 5.5275C4.1775 5.2375 4.1775 4.7575 4.4675 4.4675C4.7575 4.1775 5.2375 4.1775 5.5275 4.4675L11.9975 10.9375L18.4675 4.4675C18.7575 4.1775 19.2375 4.1775 19.5275 4.4675C19.8175 4.7575 19.8175 5.2375 19.5275 5.5275L13.0575 11.9975L19.5275 18.4675Z" />
</svg>
