<svg xmlns="http://www.w3.org/2000/svg" width="16" height="16" viewBox="0 0 16 16">
  <path d="M13 3.25H10.75V3C10.75 2.04 9.96 1.25 9 1.25H7C6.04 1.25 5.25 2.04 5.25 3V3.25H3C2.59 3.25 2.25 3.59 2.25 4C2.25 4.41 2.59 4.75 3 4.75H3.25V13C3.25 13.96 4.04 14.75 5 14.75H11C11.96 14.75 12.75 13.96 12.75 13V4.75H13C13.41 4.75 13.75 4.41 13.75 4C13.75 3.59 13.41 3.25 13 3.25ZM6.75 3C6.75 2.86 6.86 2.75 7 2.75H9C9.14 2.75 9.25 2.86 9.25 3V3.25H6.75V3ZM11.25 13C11.25 13.14 11.14 13.25 11 13.25H5C4.86 13.25 4.75 13.14 4.75 13V4.75H11.25V13ZM9.25 6.25C9.66 6.25 10 6.59 10 7V11C10 11.41 9.66 11.75 9.25 11.75C8.84 11.75 8.5 11.41 8.5 11V7C8.5 6.59 8.84 6.25 9.25 6.25ZM7.5 7V11C7.5 11.41 7.16 11.75 6.75 11.75C6.34 11.75 6 11.41 6 11V7C6 6.59 6.34 6.25 6.75 6.25C7.16 6.25 7.5 6.59 7.5 7Z"/>
</svg>
