<svg width="24" height="24" viewBox="0 0 24 24" xmlns="http://www.w3.org/2000/svg">
<path d="M12.75 9V17C12.75 17.41 12.41 17.75 12 17.75C11.59 17.75 11.25 17.41 11.25 17V9C11.25 8.59 11.59 8.25 12 8.25C12.41 8.25 12.75 8.59 12.75 9ZM14.25 9V17C14.25 17.41 14.59 17.75 15 17.75C15.41 17.75 15.75 17.41 15.75 17V9C15.75 8.59 15.41 8.25 15 8.25C14.59 8.25 14.25 8.59 14.25 9ZM9 8.25C8.59 8.25 8.25 8.59 8.25 9V17C8.25 17.41 8.59 17.75 9 17.75C9.41 17.75 9.75 17.41 9.75 17V9C9.75 8.59 9.41 8.25 9 8.25ZM20.75 6C20.75 6.41 20.41 6.75 20 6.75H18.75V18C18.75 19.52 17.52 20.75 16 20.75H8C6.48 20.75 5.25 19.52 5.25 18V6.75H4C3.59 6.75 3.25 6.41 3.25 6C3.25 5.59 3.59 5.25 4 5.25H8.25V4C8.25 3.04 9.04 2.25 10 2.25H14C14.96 2.25 15.75 3.04 15.75 4V5.25H20C20.41 5.25 20.75 5.59 20.75 6ZM9.75 5.25H14.25V4C14.25 3.86 14.14 3.75 14 3.75H10C9.86 3.75 9.75 3.86 9.75 4V5.25ZM17.25 6.75H6.75V18C6.75 18.69 7.31 19.25 8 19.25H16C16.69 19.25 17.25 18.69 17.25 18V6.75Z" />
</svg>
