<svg width="24" height="24" viewBox="0 0 24 24" xmlns="http://www.w3.org/2000/svg">
<path d="M14.5 8.75C15.19 8.75 15.75 8.19 15.75 7.5C15.75 6.81 15.19 6.25 14.5 6.25C13.81 6.25 13.25 6.81 13.25 7.5C13.25 8.19 13.81 8.75 14.5 8.75ZM14.5 7.25C14.64 7.25 14.75 7.36 14.75 7.5C14.75 7.78 14.25 7.78 14.25 7.5C14.25 7.36 14.36 7.25 14.5 7.25ZM9.5 6.25C8.81 6.25 8.25 6.81 8.25 7.5C8.25 8.19 8.81 8.75 9.5 8.75C10.19 8.75 10.75 8.19 10.75 7.5C10.75 6.81 10.19 6.25 9.5 6.25ZM9.25 7.5C9.25 7.36 9.36 7.25 9.5 7.25C9.64 7.25 9.75 7.36 9.75 7.5C9.75 7.78 9.25 7.78 9.25 7.5ZM14.5 11.25C13.81 11.25 13.25 11.81 13.25 12.5C13.25 13.19 13.81 13.75 14.5 13.75C15.19 13.75 15.75 13.19 15.75 12.5C15.75 11.81 15.19 11.25 14.5 11.25ZM14.25 12.5C14.25 12.36 14.36 12.25 14.5 12.25C14.64 12.25 14.75 12.36 14.75 12.5C14.75 12.78 14.25 12.78 14.25 12.5ZM9.5 11.25C8.81 11.25 8.25 11.81 8.25 12.5C8.25 13.19 8.81 13.75 9.5 13.75C10.19 13.75 10.75 13.19 10.75 12.5C10.75 11.81 10.19 11.25 9.5 11.25ZM9.25 12.5C9.25 12.36 9.36 12.25 9.5 12.25C9.64 12.25 9.75 12.36 9.75 12.5C9.75 12.78 9.25 12.78 9.25 12.5ZM14.5 16.25C13.81 16.25 13.25 16.81 13.25 17.5C13.25 18.19 13.81 18.75 14.5 18.75C15.19 18.75 15.75 18.19 15.75 17.5C15.75 16.81 15.19 16.25 14.5 16.25ZM14.25 17.5C14.25 17.36 14.36 17.25 14.5 17.25C14.64 17.25 14.75 17.36 14.75 17.5C14.75 17.78 14.25 17.78 14.25 17.5ZM9.5 16.25C8.81 16.25 8.25 16.81 8.25 17.5C8.25 18.19 8.81 18.75 9.5 18.75C10.19 18.75 10.75 18.19 10.75 17.5C10.75 16.81 10.19 16.25 9.5 16.25ZM9.25 17.5C9.25 17.36 9.36 17.25 9.5 17.25C9.64 17.25 9.75 17.36 9.75 17.5C9.75 17.78 9.25 17.78 9.25 17.5Z" />
</svg>
