<svg width="24" height="16" viewBox="0 0 24 16" xmlns="http://www.w3.org/2000/svg">
<path d="M17.5 9.25C16.81 9.25 16.25 9.81 16.25 10.5C16.25 11.19 16.81 11.75 17.5 11.75C18.19 11.75 18.75 11.19 18.75 10.5C18.75 9.81 18.19 9.25 17.5 9.25ZM17.25 10.5C17.25 10.36 17.36 10.25 17.5 10.25C17.64 10.25 17.75 10.36 17.75 10.5C17.75 10.78 17.25 10.78 17.25 10.5ZM17.5 6.75C18.19 6.75 18.75 6.19 18.75 5.5C18.75 4.81 18.19 4.25 17.5 4.25C16.81 4.25 16.25 4.81 16.25 5.5C16.25 6.19 16.81 6.75 17.5 6.75ZM17.5 5.25C17.64 5.25 17.75 5.36 17.75 5.5C17.75 5.78 17.25 5.78 17.25 5.5C17.25 5.36 17.36 5.25 17.5 5.25ZM12.5 9.25C11.81 9.25 11.25 9.81 11.25 10.5C11.25 11.19 11.81 11.75 12.5 11.75C13.19 11.75 13.75 11.19 13.75 10.5C13.75 9.81 13.19 9.25 12.5 9.25ZM12.25 10.5C12.25 10.36 12.36 10.25 12.5 10.25C12.64 10.25 12.75 10.36 12.75 10.5C12.75 10.78 12.25 10.78 12.25 10.5ZM12.5 4.25C11.81 4.25 11.25 4.81 11.25 5.5C11.25 6.19 11.81 6.75 12.5 6.75C13.19 6.75 13.75 6.19 13.75 5.5C13.75 4.81 13.19 4.25 12.5 4.25ZM12.25 5.5C12.25 5.36 12.36 5.25 12.5 5.25C12.64 5.25 12.75 5.36 12.75 5.5C12.75 5.78 12.25 5.78 12.25 5.5ZM7.5 9.25C6.81 9.25 6.25 9.81 6.25 10.5C6.25 11.19 6.81 11.75 7.5 11.75C8.19 11.75 8.75 11.19 8.75 10.5C8.75 9.81 8.19 9.25 7.5 9.25ZM7.25 10.5C7.25 10.36 7.36 10.25 7.5 10.25C7.64 10.25 7.75 10.36 7.75 10.5C7.75 10.78 7.25 10.78 7.25 10.5ZM7.5 4.25C6.81 4.25 6.25 4.81 6.25 5.5C6.25 6.19 6.81 6.75 7.5 6.75C8.19 6.75 8.75 6.19 8.75 5.5C8.75 4.81 8.19 4.25 7.5 4.25ZM7.25 5.5C7.25 5.36 7.36 5.25 7.5 5.25C7.64 5.25 7.75 5.36 7.75 5.5C7.75 5.78 7.25 5.78 7.25 5.5Z" />
</svg>
