<svg xmlns="http://www.w3.org/2000/svg" width="16" height="16" viewBox="0 0 16 16">
  <path d="M13.1209 3.05249L12.9509 2.88249C11.8809 1.81249 10.1309 1.81249 9.06089 2.88249L3.47089 8.46249C3.37089 8.56249 3.31089 8.68249 3.27089 8.81249L2.27089 12.8125C2.21089 13.0625 2.28089 13.3425 2.47089 13.5225C2.61089 13.6625 2.80089 13.7425 3.00089 13.7425C3.06089 13.7425 3.12089 13.7425 3.18089 13.7225L7.18089 12.7225C7.31089 12.6925 7.43089 12.6225 7.53089 12.5225L13.1209 6.93249C14.1909 5.86249 14.1909 4.11249 13.1209 3.04249V3.05249ZM6.62089 11.3125L4.04089 11.9625L4.69089 9.38249L8.01089 6.06249L9.95089 8.00249L6.63089 11.3225L6.62089 11.3125ZM12.0609 5.87249L11.0009 6.93249L9.06089 4.99249L10.1209 3.93249C10.6109 3.44249 11.4009 3.44249 11.8909 3.93249L12.0609 4.10249C12.5509 4.59249 12.5509 5.38249 12.0609 5.87249Z"/>
</svg>
