<svg width="24" height="24" viewBox="0 0 24 24" xmlns="http://www.w3.org/2000/svg">
<path d="M14.53 17.4775C14.82 17.7675 14.82 18.2475 14.53 18.5375L11.53 21.5375C11.38 21.6875 11.19 21.7575 11 21.7575C10.81 21.7575 10.62 21.6875 10.47 21.5375C10.18 21.2475 10.18 20.7675 10.47 20.4775L12.2 18.7475C12.13 18.7475 12.07 18.7475 12 18.7475C6.62 18.7475 2.25 15.7475 2.25 12.0575C2.25 10.2975 3.22 8.6375 4.99 7.3875C5.33 7.1475 5.8 7.2275 6.03 7.5675C6.27 7.9075 6.19 8.3775 5.85 8.6075C4.49 9.5675 3.74 10.7875 3.74 12.0575C3.74 14.9175 7.44 17.2475 11.99 17.2475C12.05 17.2475 12.11 17.2475 12.17 17.2475L10.46 15.5375C10.17 15.2475 10.17 14.7675 10.46 14.4775C10.75 14.1875 11.23 14.1875 11.52 14.4775L14.52 17.4775H14.53ZM12 5.2575C11.93 5.2575 11.87 5.2575 11.8 5.2575L13.53 3.5275C13.82 3.2375 13.82 2.7575 13.53 2.4675C13.24 2.1775 12.76 2.1775 12.47 2.4675L9.47 5.4675C9.18 5.7575 9.18 6.2375 9.47 6.5275L12.47 9.5275C12.62 9.6775 12.81 9.7475 13 9.7475C13.19 9.7475 13.38 9.6775 13.53 9.5275C13.82 9.2375 13.82 8.7575 13.53 8.4675L11.82 6.7575C11.88 6.7575 11.94 6.7575 12 6.7575C16.55 6.7575 20.25 9.0875 20.25 11.9475C20.25 13.2075 19.5 14.4375 18.14 15.3975C17.8 15.6375 17.72 16.1075 17.96 16.4475C18.11 16.6575 18.34 16.7675 18.57 16.7675C18.72 16.7675 18.87 16.7275 19 16.6275C20.77 15.3775 21.75 13.7175 21.75 11.9575C21.75 8.2675 17.38 5.2675 12 5.2675V5.2575Z" />
</svg>
