<svg width="24" height="24" viewBox="0 0 24 24" xmlns="http://www.w3.org/2000/svg">
<path d="M21.72 9.24C21.45 8.92 21.12 8.67 20.75 8.5V8C20.75 6.48 19.52 5.25 18 5.25H10.65C10.32 4.1 9.26 3.25 8 3.25H6C4.48 3.25 3.25 4.48 3.25 6V18C3.25 19.52 4.48 20.75 6 20.75H18.33C19.66 20.75 20.8 19.8 21.04 18.49L22.31 11.49C22.46 10.69 22.24 9.86 21.72 9.24ZM4.75 18V6C4.75 5.31 5.31 4.75 6 4.75H8C8.69 4.75 9.25 5.31 9.25 6C9.25 6.41 9.59 6.75 10 6.75H18C18.69 6.75 19.25 7.31 19.25 8V8.25H9.27C7.94 8.25 6.8 9.2 6.56 10.51L5.29 17.51C5.19 18.07 5.27 18.64 5.51 19.15C5.06 18.96 4.75 18.52 4.75 18ZM20.83 11.22L19.56 18.22C19.45 18.81 18.94 19.25 18.33 19.25H8C7.63 19.25 7.28 19.09 7.04 18.8C6.8 18.51 6.7 18.14 6.77 17.78L8.04 10.78C8.15 10.19 8.66 9.75 9.27 9.75H19.6C19.97 9.75 20.32 9.91 20.56 10.2C20.8 10.49 20.9 10.86 20.83 11.22Z" />
</svg>
