<svg width="48" height="48" viewBox="0 0 48 48" xmlns="http://www.w3.org/2000/svg">
<path d="M33 10.25H15C12.38 10.25 10.25 12.38 10.25 15V33C10.25 35.62 12.38 37.75 15 37.75H33C35.62 37.75 37.75 35.62 37.75 33V15C37.75 12.38 35.62 10.25 33 10.25ZM36.25 33C36.25 34.79 34.79 36.25 33 36.25H15C13.21 36.25 11.75 34.79 11.75 33V15C11.75 13.21 13.21 11.75 15 11.75H33C34.79 11.75 36.25 13.21 36.25 15V33ZM30.5 14.25C28.71 14.25 27.25 15.71 27.25 17.5C27.25 19.29 28.71 20.75 30.5 20.75C32.29 20.75 33.75 19.29 33.75 17.5C33.75 15.71 32.29 14.25 30.5 14.25ZM30.5 19.25C29.54 19.25 28.75 18.46 28.75 17.5C28.75 16.54 29.54 15.75 30.5 15.75C31.46 15.75 32.25 16.54 32.25 17.5C32.25 18.46 31.46 19.25 30.5 19.25ZM29.26 26.28C28.94 25.92 28.49 25.71 28.01 25.7C27.54 25.68 27.07 25.87 26.73 26.2L24.95 27.94L22.28 25.23C21.94 24.89 21.5 24.71 21 24.71C20.52 24.71 20.06 24.93 19.74 25.28L14.74 30.78C14.25 31.3 14.12 32.06 14.41 32.72C14.69 33.36 15.28 33.75 15.95 33.75H32.07C32.74 33.75 33.33 33.35 33.61 32.72C33.89 32.06 33.77 31.31 33.29 30.79L29.27 26.29L29.26 26.28ZM32.22 32.12C32.18 32.2 32.13 32.25 32.06 32.25H15.94C15.87 32.25 15.81 32.21 15.78 32.12C15.77 32.09 15.71 31.93 15.83 31.8L20.84 26.29C20.9 26.22 20.99 26.21 21.02 26.21C21.06 26.21 21.14 26.22 21.2 26.29L24.4 29.54C24.69 29.83 25.16 29.84 25.46 29.54L27.77 27.27C27.83 27.21 27.9 27.2 27.94 27.2C28.01 27.2 28.06 27.21 28.13 27.28L32.16 31.79C32.16 31.79 32.16 31.79 32.17 31.8C32.29 31.93 32.23 32.09 32.22 32.12Z" />
</svg>
