<svg width="16" height="16" viewBox="0 0 16 16" xmlns="http://www.w3.org/2000/svg">
<path d="M13.75 3V7C13.75 7.41 13.41 7.75 13 7.75C12.59 7.75 12.25 7.41 12.25 7V4.81L9.53 7.53C9.38 7.68 9.19 7.75 9 7.75C8.81 7.75 8.62 7.68 8.47 7.53C8.18 7.24 8.18 6.76 8.47 6.47L11.19 3.75H9C8.59 3.75 8.25 3.41 8.25 3C8.25 2.59 8.59 2.25 9 2.25H13C13.1 2.25 13.19 2.27 13.29 2.31C13.47 2.39 13.62 2.53 13.7 2.72C13.74 2.81 13.76 2.91 13.76 3.01L13.75 3ZM7.53 8.47C7.24 8.18 6.76 8.18 6.47 8.47L3.75 11.19V9C3.75 8.59 3.41 8.25 3 8.25C2.59 8.25 2.25 8.59 2.25 9V13C2.25 13.1 2.27 13.19 2.31 13.29C2.39 13.47 2.53 13.62 2.72 13.7C2.81 13.74 2.91 13.76 3.01 13.76H7.01C7.42 13.76 7.76 13.42 7.76 13.01C7.76 12.6 7.42 12.26 7.01 12.26H4.82L7.54 9.54C7.83 9.25 7.83 8.77 7.54 8.48L7.53 8.47Z" />
</svg>
