<svg width="24" height="24" viewBox="0 0 24 24" xmlns="http://www.w3.org/2000/svg">
<path d="M12 10.25C11.04 10.25 10.25 11.04 10.25 12C10.25 12.96 11.04 13.75 12 13.75C12.96 13.75 13.75 12.96 13.75 12C13.75 11.04 12.96 10.25 12 10.25ZM11.75 12C11.75 11.86 11.86 11.75 12 11.75C12.14 11.75 12.25 11.86 12.25 12C12.25 12.28 11.75 12.28 11.75 12ZM19 10.25C18.04 10.25 17.25 11.04 17.25 12C17.25 12.96 18.04 13.75 19 13.75C19.96 13.75 20.75 12.96 20.75 12C20.75 11.04 19.96 10.25 19 10.25ZM18.75 12C18.75 11.86 18.86 11.75 19 11.75C19.14 11.75 19.25 11.86 19.25 12C19.25 12.28 18.75 12.28 18.75 12ZM5 10.25C4.04 10.25 3.25 11.04 3.25 12C3.25 12.96 4.04 13.75 5 13.75C5.96 13.75 6.75 12.96 6.75 12C6.75 11.04 5.96 10.25 5 10.25ZM4.75 12C4.75 11.86 4.86 11.75 5 11.75C5.14 11.75 5.25 11.86 5.25 12C5.25 12.28 4.75 12.28 4.75 12Z" />
</svg>
