<svg width="24" height="24" viewBox="0 0 24 24" xmlns="http://www.w3.org/2000/svg">
<path d="M3.25 7C3.25 6.59 3.59 6.25 4 6.25H15C15.41 6.25 15.75 6.59 15.75 7C15.75 7.41 15.41 7.75 15 7.75H4C3.59 7.75 3.25 7.41 3.25 7ZM20 11.25H4C3.59 11.25 3.25 11.59 3.25 12C3.25 12.41 3.59 12.75 4 12.75H20C20.41 12.75 20.75 12.41 20.75 12C20.75 11.59 20.41 11.25 20 11.25ZM9 16.25H4C3.59 16.25 3.25 16.59 3.25 17C3.25 17.41 3.59 17.75 4 17.75H9C9.41 17.75 9.75 17.41 9.75 17C9.75 16.59 9.41 16.25 9 16.25Z" />
</svg>
