<svg width="48" height="48" viewBox="0 0 48 48" xmlns="http://www.w3.org/2000/svg">
<path d="M30.4975 14.2475C28.7075 14.2475 27.2475 15.7075 27.2475 17.4975C27.2475 19.2875 28.7075 20.7475 30.4975 20.7475C32.2875 20.7475 33.7475 19.2875 33.7475 17.4975C33.7475 15.7075 32.2875 14.2475 30.4975 14.2475ZM30.4975 19.2475C29.5375 19.2475 28.7475 18.4575 28.7475 17.4975C28.7475 16.5375 29.5375 15.7475 30.4975 15.7475C31.4575 15.7475 32.2475 16.5375 32.2475 17.4975C32.2475 18.4575 31.4575 19.2475 30.4975 19.2475ZM13.5175 11.2175C13.4375 10.8075 13.7075 10.4175 14.1175 10.3375C14.4275 10.2775 14.7175 10.2475 14.9975 10.2475H32.9975C35.6175 10.2475 37.7475 12.3775 37.7475 14.9975V32.9975C37.7475 33.2775 37.7175 33.5675 37.6575 33.8775C37.5875 34.2375 37.2775 34.4875 36.9175 34.4875C36.8675 34.4875 36.8275 34.4875 36.7775 34.4775C36.3675 34.3975 36.1075 34.0075 36.1775 33.5975C36.2175 33.3775 36.2375 33.1775 36.2375 32.9975V14.9975C36.2375 13.2075 34.7775 11.7475 32.9875 11.7475H14.9975C14.8075 11.7475 14.6175 11.7675 14.3975 11.8075C13.9875 11.8875 13.5975 11.6175 13.5175 11.2075V11.2175ZM34.4775 36.7775C34.5575 37.1875 34.2875 37.5775 33.8775 37.6575C33.5675 37.7175 33.2775 37.7475 32.9975 37.7475H14.9975C12.3775 37.7475 10.2475 35.6175 10.2475 32.9975V14.9975C10.2475 14.7175 10.2775 14.4275 10.3375 14.1175C10.4175 13.7075 10.8075 13.4375 11.2175 13.5175C11.6275 13.5975 11.8875 13.9875 11.8175 14.3975C11.7775 14.6175 11.7575 14.8175 11.7575 14.9975V32.9975C11.7575 34.7875 13.2175 36.2475 15.0075 36.2475H33.0075C33.1975 36.2475 33.3875 36.2275 33.6075 36.1875C34.0075 36.1075 34.4075 36.3775 34.4875 36.7875L34.4775 36.7775ZM15.8275 31.7975C15.6975 31.9375 15.7575 32.0875 15.7775 32.1175C15.8175 32.1975 15.8675 32.2475 15.9375 32.2475H29.8175C30.2275 32.2475 30.5675 32.5875 30.5675 32.9975C30.5675 33.4075 30.2275 33.7475 29.8175 33.7475H15.9375C15.2675 33.7475 14.6775 33.3475 14.3975 32.7175C14.1075 32.0575 14.2375 31.2975 14.7275 30.7775L19.7275 25.2775C20.0475 24.9275 20.5075 24.7175 20.9875 24.7075C21.4875 24.7275 21.9375 24.8875 22.2675 25.2275L25.4675 28.4775C25.7575 28.7675 25.7575 29.2475 25.4675 29.5375C25.1675 29.8275 24.6975 29.8275 24.4075 29.5375L21.2075 26.2875C21.1475 26.2175 21.0675 26.1875 21.0275 26.2075C20.9875 26.2075 20.9075 26.2175 20.8475 26.2875L15.8375 31.7975H15.8275ZM38.5275 38.5275C38.3775 38.6775 38.1875 38.7475 37.9975 38.7475C37.8075 38.7475 37.6175 38.6775 37.4675 38.5275L9.4675 10.5275C9.1775 10.2375 9.1775 9.7575 9.4675 9.4675C9.7575 9.1775 10.2375 9.1775 10.5275 9.4675L38.5275 37.4675C38.8175 37.7575 38.8175 38.2375 38.5275 38.5275Z" />
</svg>
