<svg width="24" height="24" viewBox="0 0 24 24" xmlns="http://www.w3.org/2000/svg">
<path d="M12 19.3373L6.13001 22.4373C5.50001 22.7673 4.77001 22.2373 4.89001 21.5373L6.01001 14.9773L1.26001 10.3273C0.750007 9.83728 1.03001 8.96728 1.73001 8.86728L8.29001 7.90728L11.23 1.93728C11.54 1.29728 12.45 1.29728 12.77 1.93728L15.7 7.90728L22.26 8.86728C22.96 8.96728 23.24 9.83728 22.73 10.3273L17.98 14.9773L19.1 21.5373C19.22 22.2373 18.49 22.7773 17.86 22.4373L11.99 19.3373H12Z" fill="none" stroke-width="2"/>
<path d="M12 15.9472L8.58001 17.7572L9.23001 13.9272L6.45001 11.2072L10.29 10.6472L12 7.17725L13.71 10.6472L17.55 11.2072L14.77 13.9272L15.42 17.7572L12 15.9472Z"/>
</svg>
