<svg width="48" height="48" viewBox="0 0 48 48" xmlns="http://www.w3.org/2000/svg">
  <path d="M24 39.5057L11.7226 45.9839C10.4095 46.6739 8.87606 45.5622 9.12525 44.096L11.4734 30.373L1.54411 20.6556C0.480254 19.6207 1.06489 17.8095 2.53128 17.5986L16.2559 15.5957L22.3994 3.10891C23.0512 1.77685 24.9488 1.77685 25.6102 3.10891L31.7441 15.5957L45.4687 17.5986C46.9351 17.8095 47.5197 19.6207 46.4559 20.6556L36.5266 30.373L38.8748 44.096C39.1239 45.5622 37.5905 46.6835 36.2774 45.9839L24 39.5057Z" fill="none" stroke-width="2"/>
  <path d="M24.3981 33.1305L24 32.9206L23.6019 33.1305L15.8715 37.2059L17.3542 28.5663L17.43 28.1246L17.1095 27.8113L10.83 21.6746L19.4965 20.4049L19.9405 20.3399L20.1387 19.9373L24 12.0936L27.8613 19.9373L28.0595 20.3399L28.5035 20.4049L37.17 21.6746L30.8905 27.8113L30.57 28.1246L30.6458 28.5663L32.1285 37.2059L24.3981 33.1305Z" stroke-width="1.70746"/>
</svg>
