<svg width="24" height="24" viewBox="0 0 24 24" xmlns="http://www.w3.org/2000/svg">
<path d="M8.9444 10.75H15.0544C15.7144 10.75 16.3144 10.39 16.6144 9.80002C16.9144 9.22002 16.8644 8.52002 16.4844 7.98002L13.4244 3.71002C12.7644 2.79002 11.2344 2.79002 10.5744 3.71002L7.5244 7.99002C7.1444 8.53002 7.0944 9.22002 7.3944 9.81002C7.6944 10.4 8.2944 10.76 8.9544 10.76L8.9444 10.75ZM8.7444 8.86002L11.7944 4.58002C11.8644 4.49002 11.9544 4.48002 11.9944 4.48002C12.0344 4.48002 12.1344 4.49002 12.1944 4.58002L15.2544 8.86002C15.3344 8.97002 15.3044 9.07002 15.2744 9.12002C15.2444 9.17002 15.1844 9.26002 15.0544 9.26002H8.9444C8.8144 9.26002 8.7444 9.18002 8.7244 9.12002C8.7044 9.06002 8.6644 8.97002 8.7444 8.86002ZM15.0544 13.25H8.9444C8.2844 13.25 7.6844 13.61 7.3844 14.2C7.0844 14.78 7.1344 15.48 7.5144 16.02L10.5744 20.3C10.9044 20.76 11.4344 21.03 11.9944 21.03C12.5544 21.03 13.0944 20.76 13.4144 20.3L16.4744 16.02C16.8544 15.48 16.9044 14.79 16.6044 14.2C16.3044 13.61 15.7044 13.25 15.0444 13.25H15.0544ZM15.2644 15.15L12.2044 19.43C12.0744 19.61 11.9244 19.61 11.7944 19.43L8.7344 15.15C8.6544 15.04 8.6844 14.94 8.7144 14.89C8.7444 14.84 8.8044 14.75 8.9344 14.75H15.0444C15.1744 14.75 15.2444 14.83 15.2644 14.89C15.2844 14.95 15.3244 15.04 15.2444 15.15H15.2644Z" />
</svg>
