<svg width="16" height="16" viewBox="0 0 16 16" xmlns="http://www.w3.org/2000/svg">
<path d="M7.69 8.71C7.73 8.8 7.75 8.9 7.75 9V13C7.75 13.41 7.41 13.75 7 13.75C6.59 13.75 6.25 13.41 6.25 13V10.81L3.53 13.53C3.38 13.68 3.19 13.75 3 13.75C2.81 13.75 2.62 13.68 2.47 13.53C2.18 13.24 2.18 12.76 2.47 12.47L5.19 9.75H3C2.59 9.75 2.25 9.41 2.25 9C2.25 8.59 2.59 8.25 3 8.25H7C7.1 8.25 7.19 8.27 7.29 8.31C7.47 8.39 7.62 8.53 7.7 8.72L7.69 8.71ZM13 6.25H10.81L13.53 3.53C13.82 3.24 13.82 2.76 13.53 2.47C13.24 2.18 12.76 2.18 12.47 2.47L9.75 5.19V3C9.75 2.59 9.41 2.25 9 2.25C8.59 2.25 8.25 2.59 8.25 3V7C8.25 7.1 8.27 7.19 8.31 7.29C8.39 7.47 8.53 7.62 8.72 7.7C8.81 7.74 8.91 7.76 9.01 7.76H13.01C13.42 7.76 13.76 7.42 13.76 7.01C13.76 6.6 13.42 6.26 13.01 6.26L13 6.25Z" />
</svg>
