<svg width="24" height="24" viewBox="0 0 24 24" xmlns="http://www.w3.org/2000/svg">
<path d="M13.9975 2.25C9.7275 2.25 6.2475 5.73 6.2475 10C6.2475 11.87 6.9075 13.58 8.0175 14.92L2.4675 20.47C2.1775 20.76 2.1775 21.24 2.4675 21.53C2.6175 21.68 2.8075 21.75 2.9975 21.75C3.1875 21.75 3.3775 21.68 3.5275 21.53L9.0775 15.98C10.4175 17.08 12.1275 17.75 13.9975 17.75C18.2675 17.75 21.7475 14.27 21.7475 10C21.7475 5.73 18.2675 2.25 13.9975 2.25ZM13.9975 16.25C10.5475 16.25 7.7475 13.45 7.7475 10C7.7475 6.55 10.5475 3.75 13.9975 3.75C17.4475 3.75 20.2475 6.55 20.2475 10C20.2475 13.45 17.4475 16.25 13.9975 16.25Z" />
</svg>
