<svg width="24" height="24" viewBox="0 0 24 24" xmlns="http://www.w3.org/2000/svg">
<path d="M12.0022 23.99C11.452 23.99 11.0018 23.5402 11.0018 22.9904C11.0018 22.4407 11.452 21.9909 12.0022 21.9909C16.3137 21.9909 21.0755 19.472 22.0158 13.8344C22.1058 13.2947 22.616 12.9248 23.1662 13.0148C23.7064 13.1047 24.0765 13.6245 23.9865 14.1643C22.8561 20.9513 17.144 24 11.9922 24L12.0022 23.99ZM8.00072 5.99783V1.99957C8.00072 1.4498 7.55056 1 7.00036 1C6.45016 1 6 1.4498 6 1.99957V5.99783C6 6.54759 6.45016 6.99739 7.00036 6.99739C7.55056 6.99739 8.00072 6.54759 8.00072 5.99783ZM18.0043 5.99783V1.99957C18.0043 1.4498 17.5542 1 17.004 1C16.4538 1 16.0036 1.4498 16.0036 1.99957V5.99783C16.0036 6.54759 16.4538 6.99739 17.004 6.99739C17.5542 6.99739 18.0043 6.54759 18.0043 5.99783Z" />
</svg>
