<svg width="24" height="24" viewBox="0 0 24 24" xmlns="http://www.w3.org/2000/svg">
<path d="M7.01915 7C6.46961 7 6.01998 6.55 6.01998 6V2C6.01998 1.45 6.46961 1 7.01915 1C7.56869 1 8.01832 1.45 8.01832 2V6C8.01832 6.55 7.56869 7 7.01915 7ZM18.01 6V2C18.01 1.45 17.5604 1 17.0108 1C16.4613 1 16.0117 1.45 16.0117 2V6C16.0117 6.55 16.4613 7 17.0108 7C17.5604 7 18.01 6.55 18.01 6ZM16.4213 21.58L18.01 19.99L19.2989 21.28C19.6886 21.67 20.3181 21.67 20.7077 21.28C21.0974 20.89 21.0974 20.26 20.7077 19.87L19.4188 18.58C18.6395 17.8 17.3705 17.8 16.5912 18.58L15.0025 20.17L13.4138 18.58C12.6345 17.8 11.3655 17.8 10.5862 18.58L8.9975 20.17L7.40883 18.58C6.62948 17.8 5.36053 17.8 4.58118 18.58L3.29226 19.87C2.90258 20.26 2.90258 20.89 3.29226 21.28C3.68193 21.67 4.31141 21.67 4.70108 21.28L5.99001 19.99L7.57868 21.58C8.35803 22.36 9.62698 22.36 10.4063 21.58L11.995 19.99L13.5837 21.58C13.9734 21.97 14.4829 22.16 14.9925 22.16C15.5021 22.16 16.0117 21.97 16.4013 21.58H16.4213Z" />
</svg>
