<svg width="24" height="24" viewBox="0 0 24 24" xmlns="http://www.w3.org/2000/svg">
<path d="M12.01 24C6.85721 24 1.15412 20.96 0.0134987 14.16C-0.0765501 13.62 0.293651 13.1 0.833944 13.01C1.38424 12.92 1.89452 13.29 1.98457 13.83C2.92508 19.47 7.69767 21.99 12 21.99C16.3023 21.99 21.0749 19.47 22.0154 13.83C22.1055 13.29 22.6158 12.92 23.1661 13.01C23.7063 13.1 24.0765 13.62 23.9865 14.16C22.8559 20.95 17.1428 24 11.99 24H12.01ZM8.00783 6V2C8.00783 1.45 7.55759 1 7.00729 1C6.45699 1 6.00675 1.45 6.00675 2V6C6.00675 6.55 6.45699 7 7.00729 7C7.55759 7 8.00783 6.55 8.00783 6ZM18.0133 6V2C18.0133 1.45 17.563 1 17.0127 1C16.4624 1 16.0122 1.45 16.0122 2V6C16.0122 6.55 16.4624 7 17.0127 7C17.563 7 18.0133 6.55 18.0133 6Z" />
</svg>
