<svg width="24" height="24" viewBox="0 0 24 24" xmlns="http://www.w3.org/2000/svg">
<path d="M7.06927 7C6.51927 7 6.06927 6.55 6.06927 6V2C6.06927 1.45 6.51927 1 7.06927 1C7.61927 1 8.06927 1.45 8.06927 2V6C8.06927 6.55 7.61927 7 7.06927 7ZM18.0693 6V2C18.0693 1.45 17.6193 1 17.0693 1C16.5193 1 16.0693 1.45 16.0693 2V6C16.0693 6.55 16.5193 7 17.0693 7C17.6193 7 18.0693 6.55 18.0693 6ZM22.5693 21.9C23.0693 21.66 23.2793 21.07 23.0393 20.57C21.1093 16.52 16.9093 14 12.0693 14C7.22927 14 3.02927 16.52 1.09927 20.57C0.859273 21.07 1.06927 21.67 1.56927 21.9C2.06927 22.14 2.65927 21.93 2.89927 21.43C4.49927 18.08 8.00927 16 12.0593 16C16.1093 16 19.6293 18.08 21.2193 21.43C21.3893 21.79 21.7493 22 22.1193 22C22.2593 22 22.4093 21.97 22.5493 21.9H22.5693Z" />
</svg>
