<svg width="24" height="24" viewBox="0 0 24 24" xmlns="http://www.w3.org/2000/svg">
<path d="M18.69 7.38L19.53 6.54C19.82 6.25 19.82 5.77 19.53 5.48C19.24 5.19 18.76 5.19 18.47 5.48L17.63 6.32C16.11 5.04 14.14 4.26 12 4.26C9.86 4.26 7.89 5.04 6.37 6.32L5.53 5.48C5.24 5.19 4.76 5.19 4.47 5.48C4.18 5.77 4.18 6.25 4.47 6.54L5.31 7.38C4.03 8.9 3.25 10.87 3.25 13.01C3.25 17.84 7.17 21.76 12 21.76C16.83 21.76 20.75 17.84 20.75 13.01C20.75 10.87 19.97 8.9 18.69 7.38ZM12 20.26C8 20.26 4.75 17.01 4.75 13.01C4.75 9.01 8 5.76 12 5.76C16 5.76 19.25 9.01 19.25 13.01C19.25 17.01 16 20.26 12 20.26ZM15.53 9.48C15.82 9.77 15.82 10.25 15.53 10.54L12.53 13.54C12.38 13.69 12.19 13.76 12 13.76C11.81 13.76 11.62 13.69 11.47 13.54C11.18 13.25 11.18 12.77 11.47 12.48L14.47 9.48C14.76 9.19 15.24 9.19 15.53 9.48ZM9.26 2.34C9.18 1.93 9.45 1.54 9.86 1.46C11.31 1.18 12.69 1.18 14.14 1.46C14.55 1.54 14.81 1.93 14.74 2.34C14.67 2.7 14.36 2.95 14 2.95C13.95 2.95 13.91 2.95 13.86 2.94C12.59 2.7 11.41 2.7 10.14 2.94C9.74 3.02 9.34 2.75 9.26 2.34Z" />
</svg>
