<svg width="16" height="16" viewBox="0 0 16 16" xmlns="http://www.w3.org/2000/svg">
<path d="M15.0001 6C15.0001 6.55 14.5501 7 14.0001 7H10.0001C9.45006 7 9.00006 6.55 9.00006 6V2C9.00006 1.45 9.45006 1 10.0001 1C10.5501 1 11.0001 1.45 11.0001 2V3.59L13.2901 1.29C13.4901 1.09 13.7401 1 14.0001 1C14.2601 1 14.5101 1.1 14.7101 1.29C15.1001 1.68 15.1001 2.31 14.7101 2.7L12.4201 4.99H14.0101C14.5601 4.99 15.0101 5.44 15.0101 5.99L15.0001 6ZM6.00006 9H2.00006C1.45006 9 1.00006 9.45 1.00006 10C1.00006 10.55 1.45006 11 2.00006 11H3.59006L1.29006 13.29C0.900059 13.68 0.900059 14.31 1.29006 14.7C1.68006 15.09 2.31006 15.09 2.70006 14.7L4.99006 12.41V14C4.99006 14.55 5.44006 15 5.99006 15C6.54006 15 6.99006 14.55 6.99006 14V10C6.99006 9.45 6.54006 9 5.99006 9H6.00006Z"/>
</svg>
