<svg width="24" height="24" viewBox="0 0 24 24" xmlns="http://www.w3.org/2000/svg">
<path d="M13.41 12L20.7 4.71C21.09 4.32 21.09 3.69 20.7 3.3C20.31 2.91 19.68 2.91 19.29 3.3L12 10.59L4.71 3.29C4.32 2.9 3.68 2.9 3.29 3.29C2.9 3.68 2.9 4.32 3.29 4.71L10.58 12L3.29 19.29C2.9 19.68 2.9 20.31 3.29 20.7C3.49 20.9 3.74 20.99 4 20.99C4.26 20.99 4.51 20.89 4.71 20.7L12 13.41L19.29 20.7C19.49 20.9 19.74 20.99 20 20.99C20.26 20.99 20.51 20.89 20.71 20.7C21.1 20.31 21.1 19.68 20.71 19.29L13.42 12H13.41Z"/>
</svg>