<svg width="56" height="68" viewBox="0 0 56 68" fill="none" xmlns="http://www.w3.org/2000/svg">
  <g clip-path="url(#clip0_9011_41219)">
    <path
      d="M54.83 10.83L45.17 1.17C44.7982 0.798664 44.357 0.504208 43.8714 0.303455C43.3858 0.102703 42.8654 -0.000411943 42.34 1.2368e-06H6C4.4087 1.2368e-06 2.88257 0.632142 1.75735 1.75736C0.632136 2.88258 0 4.4087 0 6V62C0 63.5913 0.632136 65.1174 1.75735 66.2426C2.88257 67.3679 4.4087 68 6 68H50C51.5913 68 53.1174 67.3679 54.2426 66.2426C55.3679 65.1174 56 63.5913 56 62V13.66C56.0004 13.1346 55.8973 12.6142 55.6965 12.1286C55.4958 11.643 55.2013 11.2018 54.83 10.83ZM44 2.83L53.17 12H48C46.9391 12 45.9217 11.5786 45.1716 10.8284C44.4214 10.0783 44 9.06087 44 8V2.83ZM54 62C54 63.0609 53.5786 64.0783 52.8284 64.8284C52.0783 65.5786 51.0609 66 50 66H6C4.93913 66 3.92172 65.5786 3.17157 64.8284C2.42142 64.0783 2 63.0609 2 62V6C2 4.93914 2.42142 3.92172 3.17157 3.17157C3.92172 2.42143 4.93913 2 6 2H42V8C42 9.5913 42.6321 11.1174 43.7574 12.2426C44.8826 13.3679 46.4087 14 48 14H54V62ZM14 24H42V26H14V24ZM14 30H42V32H14V30ZM14 36H42V38H14V36ZM14 42H42V44H14V42Z"
      fill="#909090" />
  </g>
  <defs>
    <clipPath id="clip0_9011_41219">
      <rect width="56" height="68" fill="white" />
    </clipPath>
  </defs>
</svg>