<svg width="48" height="48" viewBox="0 0 48 48" xmlns="http://www.w3.org/2000/svg">
<g>
<path d="M24 39.5057L11.7226 45.9839C10.4095 46.6739 8.87606 45.5622 9.12525 44.096L11.4734 30.373L1.54411 20.6556C0.480254 19.6207 1.06489 17.8095 2.53128 17.5986L16.2559 15.5957L22.3994 3.10891C23.0512 1.77685 24.9488 1.77685 25.6102 3.10891L31.7441 15.5957L45.4687 17.5986C46.9351 17.8095 47.5197 19.6207 46.4559 20.6556L36.5266 30.373L38.8748 44.096C39.1239 45.5622 37.5905 46.6835 36.2774 45.9839L24 39.5057Z" fill="none"/>
<path d="M24.4663 34.6154L24 34.3695L23.5336 34.6154L14.4788 39.389L16.2156 29.2691L16.3044 28.7517L15.9289 28.3848L8.57358 21.1966L18.7249 19.7094L19.245 19.6332L19.4772 19.1616L24 9.97413L28.5228 19.1616L28.755 19.6332L29.275 19.7094L39.4264 21.1966L32.0711 28.3848L31.6956 28.7517L31.7844 29.2691L33.5211 39.389L24.4663 34.6154Z"/>
</g>
</svg>
