<svg width="24" height="24" viewBox="0 0 24 24" xmlns="http://www.w3.org/2000/svg">
<g clip-path="url(#clip0_15894_140103)">
<path d="M4.88291 4.50999C4.47291 4.50999 4.08291 4.24999 3.94291 3.83999C3.76291 3.31999 4.03291 2.74999 4.55291 2.56999L8.32291 1.24999C8.84291 1.05999 9.41291 1.33999 9.59291 1.85999C9.77291 2.37999 9.50291 2.94999 8.98291 3.12999L5.20291 4.44999C5.09291 4.48999 4.98291 4.50999 4.87291 4.50999H4.88291ZM19.8129 3.88999C20.0229 3.37999 19.7729 2.78999 19.2629 2.58999L15.5529 1.06999C15.0429 0.859992 14.4529 1.10999 14.2529 1.61999C14.0429 2.12999 14.2929 2.71999 14.8029 2.91999L18.5029 4.42999C18.6229 4.47999 18.7529 4.49999 18.8829 4.49999C19.2729 4.49999 19.6529 4.26999 19.8129 3.87999V3.88999ZM3.50291 5.99999C2.64291 6.36999 1.79291 6.87999 1.00291 7.47999C0.79291 7.63999 0.64291 7.86999 0.59291 8.13999C0.48291 8.72999 0.87291 9.28999 1.45291 9.39999C2.04291 9.50999 2.60291 9.11999 2.71291 8.53999C2.87291 7.68999 3.12291 6.82999 3.50291 5.98999V5.99999ZM21.0429 8.54999C21.6029 10.48 24.2429 8.83999 22.7529 7.47999C21.9629 6.87999 21.1129 6.36999 20.2529 5.99999C20.6329 6.83999 20.8829 7.69999 21.0429 8.54999ZM21.5729 13.2C21.2529 14.2 22.5429 15.09 23.3629 14.39C23.8529 14 23.9229 13.29 23.5429 12.81C21.7429 10.67 22.1329 10.55 21.5829 13.2H21.5729ZM1.75291 11C1.22291 11.79 -0.14709 12.64 0.0129102 13.75C0.15291 14.36 0.75291 14.74 1.35291 14.6C2.98291 14.1 1.80291 12.22 1.75291 11ZM19.8829 17C19.8829 13.14 16.2929 9.99999 11.8829 9.99999C7.47291 9.99999 3.88291 13.14 3.88291 17C3.88291 20.86 7.47291 24 11.8829 24C16.2929 24 19.8829 20.86 19.8829 17ZM17.8829 17C17.8829 19.76 15.1929 22 11.8829 22C8.57291 22 5.88291 19.76 5.88291 17C5.88291 14.24 8.57291 12 11.8829 12C15.1929 12 17.8829 14.24 17.8829 17Z"/>
</g>
<defs>
<clipPath id="clip0_15894_140103">
<rect width="24" height="24" fill="white"/>
</clipPath>
</defs>
</svg>
