<?xml version="1.0" encoding="utf-8"?>
<!-- Generator: Adobe Illustrator 21.0.0, SVG Export Plug-In . SVG Version: 6.00 Build 0)  -->
<svg version="1.1" id="Layer_1" xmlns="http://www.w3.org/2000/svg" xmlns:xlink="http://www.w3.org/1999/xlink" x="0px" y="0px"
	 viewBox="0 0 12 12" style="enable-background:new 0 0 12 12;" xml:space="preserve">
<style type="text/css">
	.st0{fill:#A5A5A5;}
</style>
<g>
	<g>
		<path class="st0" d="M6,2C2.7,2,0,6,0,6s2.7,4,6,4c3.3,0,6-4,6-4S9.3,2,6,2z M6,9C4.3,9,3,7.7,3,6c0-1.7,1.3-3,3-3
			c1.7,0,3,1.3,3,3C9,7.7,7.7,9,6,9z M6,4C5.4,4,4.9,4.2,4.6,4.6C4.7,4.5,4.8,4.5,5,4.5c0.6,0,1,0.4,1,1c0,0.6-0.4,1-1,1
			c-0.5,0-0.9-0.4-1-0.8C4,5.8,4,5.9,4,6c0,1.1,0.9,2,2,2c1.1,0,2-0.9,2-2C8,4.9,7.1,4,6,4z"/>
	</g>
</g>
</svg>
