<svg width="32" height="32" viewBox="0 0 32 32" xmlns="http://www.w3.org/2000/svg">
<path d="M27 6H23.8C23.34 6 22.92 5.77 22.66 5.39L22.25 4.78C21.51 3.66 20.26 3 18.92 3H13.06C11.72 3 10.48 3.67 9.73 4.78L9.32 5.39C9.07 5.77 8.64 6 8.18 6H4.98C2.79 6 1 7.79 1 10V24C1 26.21 2.79 28 5 28H27C29.21 28 31 26.21 31 24V10C31 7.79 29.21 6 27 6ZM29 24C29 25.1 28.1 26 27 26H5C3.9 26 3 25.1 3 24V10C3 8.9 3.9 8 5 8H8.2C9.33 8 10.38 7.44 11 6.5L11.41 5.89C11.78 5.33 12.41 5 13.07 5H18.93C19.6 5 20.22 5.33 20.59 5.89L21 6.5C21.62 7.44 22.68 8 23.8 8H27C28.1 8 29 8.9 29 10V24ZM16 9C12.13 9 9 12.13 9 16C9 19.87 12.13 23 16 23C19.87 23 23 19.87 23 16C23 12.13 19.87 9 16 9ZM16 21C13.24 21 11 18.76 11 16C11 13.24 13.24 11 16 11C18.76 11 21 13.24 21 16C21 18.76 18.76 21 16 21ZM17 13C17 13.55 16.55 14 16 14C14.9 14 14 14.9 14 16C14 16.55 13.55 17 13 17C12.45 17 12 16.55 12 16C12 13.79 13.79 12 16 12C16.55 12 17 12.45 17 13Z" />
</svg>
