<svg width="24" height="24" viewBox="0 0 24 24" xmlns="http://www.w3.org/2000/svg">
<path d="M20.01 4H18.4C18.2 4 18.01 3.9 17.9 3.73L16.97 2.34C16.41 1.5 15.48 1 14.47 1H9.54C8.53 1 7.6 1.5 7.04 2.34L6.11 3.73C6 3.9 5.81 4 5.61 4H4C2.35 4 1 5.35 1 7V19C1 20.65 2.35 22 4 22H20C21.65 22 23 20.65 23 19V7C23 5.35 21.65 4 20 4H20.01ZM21.01 19C21.01 19.55 20.56 20 20.01 20H4.01C3.46 20 3.01 19.55 3.01 19V7C3.01 6.45 3.46 6 4.01 6H5.62C6.49 6 7.3 5.56 7.79 4.84L8.72 3.45C8.91 3.17 9.22 3 9.55 3H14.48C14.81 3 15.13 3.17 15.31 3.45L16.24 4.84C16.72 5.56 17.54 6 18.41 6H20.02C20.57 6 21.02 6.45 21.02 7V19H21.01ZM12.01 6C8.7 6 6.01 8.69 6.01 12C6.01 15.31 8.7 18 12.01 18C15.32 18 18.01 15.31 18.01 12C18.01 8.69 15.32 6 12.01 6ZM12.01 16C9.8 16 8.01 14.21 8.01 12C8.01 9.79 9.8 8 12.01 8C14.22 8 16.01 9.79 16.01 12C16.01 14.21 14.22 16 12.01 16ZM13.01 10C13.01 10.55 12.56 11 12.01 11C11.46 11 11.01 11.45 11.01 12C11.01 12.55 10.56 13 10.01 13C9.46 13 9.01 12.55 9.01 12C9.01 10.35 10.36 9 12.01 9C12.56 9 13.01 9.45 13.01 10Z" />
</svg>
