<svg width="24" height="24" viewBox="0 0 24 24" xmlns="http://www.w3.org/2000/svg">
<path d="M13.4101 12L20.7001 4.71C21.0901 4.32 21.0901 3.69 20.7001 3.3C20.3101 2.91 19.6801 2.91 19.2901 3.3L12.0001 10.59L4.71006 3.29C4.32006 2.9 3.68006 2.9 3.29006 3.29C2.90006 3.68 2.90006 4.32 3.29006 4.71L10.5801 12L3.29006 19.29C2.90006 19.68 2.90006 20.31 3.29006 20.7C3.49006 20.9 3.74006 20.99 4.00006 20.99C4.26006 20.99 4.51006 20.89 4.71006 20.7L12.0001 13.41L19.2901 20.7C19.4901 20.9 19.7401 20.99 20.0001 20.99C20.2601 20.99 20.5101 20.89 20.7101 20.7C21.1001 20.31 21.1001 19.68 20.7101 19.29L13.4201 12H13.4101Z" />
</svg>
