<svg width="16" height="16" viewBox="0 0 16 16" xmlns="http://www.w3.org/2000/svg">
<path d="M9.43 8.0025L13.7 3.7225C14.09 3.3325 14.09 2.6925 13.7 2.2925C13.31 1.9025 12.67 1.9025 12.27 2.2925L7.99 6.5725L3.72 2.3025C3.33 1.9025 2.69 1.9025 2.3 2.3025C1.9 2.6925 1.9 3.3325 2.3 3.7225L6.58 8.0025L2.3 12.2825C1.91 12.6725 1.91 13.3125 2.3 13.7125C2.69 14.1025 3.33 14.1025 3.73 13.7125L8.01 9.4325L12.29 13.7125C12.68 14.1025 13.32 14.1025 13.72 13.7125C14.11 13.3225 14.11 12.6825 13.72 12.2825L9.44 8.0025H9.43Z" />
</svg>
