<svg width="24" height="16" viewBox="0 0 24 16" xmlns="http://www.w3.org/2000/svg">
<path d="M18 9C19.1 9 20 9.9 20 11C20 12.1 19.1 13 18 13C16.9 13 16 12.1 16 11C16 9.9 16.9 9 18 9ZM20 5C20 3.9 19.1 3 18 3C16.9 3 16 3.9 16 5C16 6.1 16.9 7 18 7C19.1 7 20 6.1 20 5ZM14 11C14 9.9 13.1 9 12 9C10.9 9 10 9.9 10 11C10 12.1 10.9 13 12 13C13.1 13 14 12.1 14 11ZM14 5C14 3.9 13.1 3 12 3C10.9 3 10 3.9 10 5C10 6.1 10.9 7 12 7C13.1 7 14 6.1 14 5ZM8 11C8 9.9 7.1 9 6 9C4.9 9 4 9.9 4 11C4 12.1 4.9 13 6 13C7.1 13 8 12.1 8 11ZM8 5C8 3.9 7.1 3 6 3C4.9 3 4 3.9 4 5C4 6.1 4.9 7 6 7C7.1 7 8 6.1 8 5Z" />
</svg>
