<svg width="16" height="16" viewBox="0 0 16 16" xmlns="http://www.w3.org/2000/svg">
<path d="M13.59 4.5884L11.42 2.4184C11.03 2.0284 10.52 1.8284 10.01 1.8284C9.5 1.8284 8.99 2.0284 8.6 2.4184L3.76 7.2384C2.63 8.3684 2 9.8884 2 11.4784V12.9884C2 13.5384 2.45 13.9884 3 13.9884H4.51C6.1 13.9884 7.63 13.3584 8.75 12.2284L13.58 7.3984C14.36 6.6184 14.36 5.3484 13.58 4.5684L13.59 4.5884ZM7.35 10.8284C6.59 11.5884 5.59 11.9984 4.52 11.9984H4.01V11.4884C4.01 10.4184 4.43 9.4184 5.18 8.6584L7.72 6.1184L9.89 8.2884L7.35 10.8284ZM11.3 6.8784L9.13 4.7084L10.01 3.8284L12.18 5.9984L11.3 6.8784Z" />
</svg>
