<svg width="72" height="72" viewBox="0 0 72 72" xmlns="http://www.w3.org/2000/svg">
<path d="M62.83 12.83L53.17 3.17C52.7982 2.79866 52.357 2.50421 51.8714 2.30346C51.3858 2.1027 50.8654 1.99959 50.34 2H14C12.4087 2 10.8826 2.63214 9.75735 3.75736C8.63214 4.88258 8 6.4087 8 8V64C8 65.5913 8.63214 67.1174 9.75735 68.2426C10.8826 69.3679 12.4087 70 14 70H58C59.5913 70 61.1174 69.3679 62.2426 68.2426C63.3679 67.1174 64 65.5913 64 64V15.66C64.0004 15.1346 63.8973 14.6142 63.6965 14.1286C63.4958 13.643 63.2013 13.2018 62.83 12.83ZM52 4.83L61.17 14H56C54.9391 14 53.9217 13.5786 53.1716 12.8284C52.4214 12.0783 52 11.0609 52 10V4.83ZM62 64C62 65.0609 61.5786 66.0783 60.8284 66.8284C60.0783 67.5786 59.0609 68 58 68H14C12.9391 68 11.9217 67.5786 11.1716 66.8284C10.4214 66.0783 10 65.0609 10 64V8C10 6.93914 10.4214 5.92172 11.1716 5.17157C11.9217 4.42143 12.9391 4 14 4H50V10C50 11.5913 50.6321 13.1174 51.7574 14.2426C52.8826 15.3679 54.4087 16 56 16H62V64ZM22 26H50V28H22V26ZM22 32H50V34H22V32ZM22 38H50V40H22V38ZM22 44H50V46H22V44Z" />
</svg>
