<svg width="24" height="24" viewBox="0 0 24 24" xmlns="http://www.w3.org/2000/svg">
<path d="M23 12.0037C23 14.2445 21.7794 16.3052 19.5684 17.8257C19.3984 17.9458 19.1983 18.0058 19.0082 18.0058C18.688 18.0058 18.3779 17.8557 18.1778 17.5756C17.8677 17.1155 17.9777 16.4953 18.4379 16.1852C20.0887 15.0448 21.0091 13.5643 21.0091 12.0138C21.0091 8.70262 16.9673 6.01171 12.005 6.01171C11.4948 6.01171 10.9945 6.04172 10.5043 6.09173L11.7149 7.30215C12.105 7.69228 12.105 8.32249 11.7149 8.71263C11.5148 8.9127 11.2647 9.00273 11.0045 9.00273C10.7444 9.00273 10.4943 8.90269 10.2942 8.71263L6.58254 5.00136L10.2842 1.2901C10.6744 0.899964 11.3047 0.899964 11.6949 1.2901C12.085 1.68023 12.085 2.31045 11.6949 2.70058L10.3042 4.09105C10.8545 4.03103 11.4147 4.00102 11.985 4.00102C18.0578 4.00102 22.99 7.59225 22.99 12.0037H23ZM12.2851 15.2949C11.895 15.685 11.895 16.3152 12.2851 16.7054L13.4957 17.9158C13.0055 17.9758 12.4952 17.9958 11.995 17.9958C7.03274 17.9958 2.99091 15.3049 2.99091 11.9937C2.99091 10.4332 3.90132 8.95271 5.56207 7.82232C6.02228 7.51222 6.13233 6.89201 5.82219 6.43185C5.51205 5.97169 4.89177 5.86166 4.43156 6.17176C2.22055 7.69228 1 9.76299 1 11.9937C1 16.4052 5.93224 19.9965 12.005 19.9965C12.5753 19.9965 13.1355 19.9665 13.6858 19.9064L12.2951 21.2969C11.905 21.6871 11.905 22.3173 12.2951 22.7074C12.4952 22.9075 12.7453 22.9975 13.0055 22.9975C13.2656 22.9975 13.5157 22.8975 13.7158 22.7074L17.4275 18.9961L13.7158 15.2849C13.3256 14.8947 12.6953 14.8947 12.3051 15.2849L12.2851 15.2949Z" />
</svg>
