<svg width="24" height="24" viewBox="0 0 24 24" xmlns="http://www.w3.org/2000/svg">
<path d="M21.93 9H21V7C21 6.46957 20.7893 5.96086 20.4142 5.58579C20.0391 5.21071 19.5304 5 19 5H10L8 3H4C3.46957 3 2.96086 3.21071 2.58579 3.58579C2.21071 3.96086 2 4.46957 2 5L2 21H21L23.89 11.63C23.9916 11.3244 24.0179 10.9988 23.9667 10.6809C23.9155 10.363 23.7882 10.0621 23.5958 9.80392C23.4034 9.54571 23.1514 9.33779 22.8614 9.19782C22.5714 9.05786 22.2519 8.99 21.93 9ZM4 5H7.17L8.59 6.41L9.17 7H19V9H6L4 15V5ZM22 11L19.54 19H4.77L7.44 11H22Z" />
</svg>
