<svg width="16" height="16" viewBox="0 0 16 16" xmlns="http://www.w3.org/2000/svg">
    <g clip-path="url(#clip0_247_12)">
        <path
            d="M13.8666 9.86954C14.1595 9.57665 14.6342 9.57665 14.9271 9.86954C15.22 10.1624 15.22 10.6372 14.9271 10.9301L10.9271 14.9301C10.6342 15.223 10.1595 15.223 9.86659 14.9301C9.5737 14.6372 9.5737 14.1624 9.86659 13.8695L13.8666 9.86954Z" />
        <path
            d="M13.4657 5.46961C13.7586 5.17672 14.2334 5.17672 14.5263 5.46961C14.8191 5.7625 14.8192 6.23726 14.5263 6.53015L6.52626 14.5302C6.23339 14.8229 5.75858 14.8229 5.46571 14.5302C5.17286 14.2373 5.17292 13.7625 5.46571 13.4696L13.4657 5.46961Z" />
    </g>
    <defs>
        <clipPath id="clip0_247_12">
            <rect width="16" height="16" fill="white" />
        </clipPath>
    </defs>
</svg>