<svg width="16" height="16" viewBox="0 0 16 16" xmlns="http://www.w3.org/2000/svg">
<path d="M6.71 10.71L4.42 13H6.01C6.56 13 7.01 13.45 7.01 14C7.01 14.55 6.56 15 6.01 15H2C1.45 15 1 14.55 1 14V10C1 9.45 1.45 9 2 9C2.55 9 3 9.45 3 10V11.59L5.29 9.3C5.68 8.91 6.31 8.91 6.7 9.3C7.09 9.69 7.09 10.32 6.7 10.71H6.71ZM14 1H10C9.45 1 9 1.45 9 2C9 2.55 9.45 3 10 3H11.59L9.3 5.29C8.91 5.68 8.91 6.31 9.3 6.7C9.5 6.9 9.75 6.99 10.01 6.99C10.27 6.99 10.52 6.89 10.72 6.7L13.01 4.41V6C13.01 6.55 13.46 7 14.01 7C14.56 7 15.01 6.55 15.01 6V2C15.01 1.45 14.56 1 14.01 1H14Z" />
</svg>
