<svg width="48" height="48" viewBox="0 0 48 48" xmlns="http://www.w3.org/2000/svg">
<path d="M14 17.01C14 16.4167 14.1759 15.8366 14.5056 15.3433C14.8352 14.8499 15.3038 14.4654 15.8519 14.2384C16.4001 14.0113 17.0033 13.9519 17.5853 14.0676C18.1672 14.1834 18.7018 14.4691 19.1213 14.8887C19.5409 15.3082 19.8266 15.8428 19.9424 16.4247C20.0581 17.0067 19.9987 17.6099 19.7716 18.1581C19.5446 18.7062 19.1601 19.1748 18.6667 19.5044C18.1734 19.8341 17.5933 20.01 17 20.01C16.2044 20.01 15.4413 19.6939 14.8787 19.1313C14.3161 18.5687 14 17.8056 14 17.01ZM27.09 24.14L20 36.01H36L27.09 24.14ZM36.72 8.14L35.57 10.01H36C36.5304 10.01 37.0391 10.2207 37.4142 10.5958C37.7893 10.9709 38 11.4796 38 12.01V36.01C38 36.5404 37.7893 37.0491 37.4142 37.4242C37.0391 37.7993 36.5304 38.01 36 38.01H18.77L17.57 40.01H36C37.0609 40.01 38.0783 39.5886 38.8284 38.8384C39.5786 38.0883 40 37.0709 40 36.01V12.01C39.9966 11.0765 39.6668 10.1737 39.0678 9.45778C38.4688 8.74188 37.6382 8.25802 36.72 8.09V8.14ZM36.86 4.5L12.86 44.5L11.14 43.5L13.23 40.01H12C10.9391 40.01 9.92172 39.5886 9.17157 38.8384C8.42143 38.0883 8 37.0709 8 36.01V12.01C8 10.9491 8.42143 9.93172 9.17157 9.18157C9.92172 8.43143 10.9391 8.01 12 8.01H32.43L35.14 3.5L36.86 4.5ZM14.43 38.01L15.63 36.01H12L19 27.01L20.56 27.8L31.23 10.01H12C11.4696 10.01 10.9609 10.2207 10.5858 10.5958C10.2107 10.9709 10 11.4796 10 12.01V36.01C10 36.5404 10.2107 37.0491 10.5858 37.4242C10.9609 37.7993 11.4696 38.01 12 38.01H14.43Z" />
</svg>
