<svg width="16" height="16" viewBox="0 0 16 16" xmlns="http://www.w3.org/2000/svg">
<path d="M15 6C15 6.55 14.55 7 14 7H10C9.45 7 9 6.55 9 6V2C9 1.45 9.45 1 10 1C10.55 1 11 1.45 11 2V3.59L13.29 1.29C13.49 1.09 13.74 1 14 1C14.26 1 14.51 1.1 14.71 1.29C15.1 1.68 15.1 2.31 14.71 2.7L12.42 4.99H14.01C14.56 4.99 15.01 5.44 15.01 5.99L15 6ZM6 9H2C1.45 9 0.999998 9.45 0.999998 10C0.999998 10.55 1.45 11 2 11H3.59L1.29 13.29C0.899998 13.68 0.899998 14.31 1.29 14.7C1.68 15.09 2.31 15.09 2.7 14.7L4.99 12.41V14C4.99 14.55 5.44 15 5.99 15C6.54 15 6.99 14.55 6.99 14V10C6.99 9.45 6.54 9 5.99 9H6Z" />
</svg>
