<svg width="24" height="24" viewBox="0 0 24 24" xmlns="http://www.w3.org/2000/svg">
<path d="M12.01 23C6.85721 23 1.15412 19.9621 0.0134987 13.1669C-0.0765501 12.6272 0.293651 12.1076 0.833944 12.0177C1.38424 11.9277 1.89452 12.2975 1.98457 12.8371C2.92508 18.4732 7.69767 20.9914 12 20.9914C16.3023 20.9914 21.0749 18.4732 22.0154 12.8371C22.1055 12.2975 22.6158 11.9277 23.1661 12.0177C23.7063 12.1076 24.0765 12.6272 23.9865 13.1669C22.8559 19.9521 17.1428 23 11.99 23H12.01ZM21.165 6.15177C22.3056 5.01257 22.3056 3.16386 21.165 2.02465L21.0049 1.85477C19.9143 0.765533 18.1633 0.725561 17.0227 1.71487C15.8821 0.715568 14.1312 0.765533 13.0406 1.85477L12.8705 2.01466C11.7299 3.15386 11.7299 5.00257 12.8705 6.14178L17.0227 10.2889L21.175 6.14178L21.165 6.15177ZM15.742 3.27378L17.0127 4.54289L18.2834 3.27378C18.6436 2.91403 19.2239 2.91403 19.5841 3.27378L19.7442 3.43367C20.1044 3.79342 20.1044 4.37301 19.7442 4.73276L17.0127 7.46086L14.2812 4.73276C13.921 4.37301 13.921 3.79342 14.2812 3.43367L14.4413 3.27378C14.6214 3.09391 14.8515 3.00397 15.0917 3.00397C15.3318 3.00397 15.5619 3.09391 15.742 3.27378ZM11.1595 6.15177C12.3002 5.01257 12.3002 3.16386 11.1595 2.02465L10.9995 1.85477C9.90886 0.765533 8.15792 0.725561 7.0173 1.71487C5.87668 0.715568 4.12573 0.765533 3.03514 1.85477L2.86505 2.01466C1.72443 3.15386 1.72443 5.00257 2.86505 6.14178L7.0173 10.2889L11.1695 6.14178L11.1595 6.15177ZM5.7366 3.27378L7.00729 4.54289L8.27798 3.27378C8.63818 2.91403 9.21849 2.91403 9.57869 3.27378L9.73877 3.43367C10.099 3.79342 10.099 4.37301 9.73877 4.73276L7.00729 7.46086L4.27581 4.73276C3.91562 4.37301 3.91562 3.79342 4.27581 3.43367L4.4359 3.27378C4.61599 3.09391 4.84612 3.00397 5.08625 3.00397C5.32638 3.00397 5.5565 3.09391 5.7366 3.27378Z" />
</svg>
