<svg width="24" height="24" viewBox="0 0 24 24" xmlns="http://www.w3.org/2000/svg">
<g clip-path="url(#clip0_15894_140103)">
<path d="M4.88291 4.51001C4.47291 4.51001 4.08291 4.25001 3.94291 3.84001C3.76291 3.32001 4.03291 2.75001 4.55291 2.57001L8.32291 1.25001C8.84291 1.06001 9.41291 1.34001 9.59291 1.86001C9.77291 2.38001 9.50291 2.95001 8.98291 3.13001L5.20291 4.45001C5.09291 4.49001 4.98291 4.51001 4.87291 4.51001H4.88291ZM19.8129 3.89001C20.0229 3.38001 19.7729 2.79001 19.2629 2.59001L15.5529 1.07001C15.0429 0.860007 14.4529 1.11001 14.2529 1.62001C14.0429 2.13001 14.2929 2.72001 14.8029 2.92001L18.5029 4.43001C18.6229 4.48001 18.7529 4.50001 18.8829 4.50001C19.2729 4.50001 19.6529 4.27001 19.8129 3.88001V3.89001ZM3.50291 6.00001C2.64291 6.37001 1.79291 6.88001 1.00291 7.48001C0.79291 7.64001 0.64291 7.87001 0.59291 8.14001C0.48291 8.73001 0.87291 9.29001 1.45291 9.40001C2.04291 9.51001 2.60291 9.12001 2.71291 8.54001C2.87291 7.69001 3.12291 6.83001 3.50291 5.99001V6.00001ZM21.0429 8.55001C21.6029 10.48 24.2429 8.84001 22.7529 7.48001C21.9629 6.88001 21.1129 6.37001 20.2529 6.00001C20.6329 6.84001 20.8829 7.70001 21.0429 8.55001ZM21.5729 13.2C21.2529 14.2 22.5429 15.09 23.3629 14.39C23.8529 14 23.9229 13.29 23.5429 12.81C21.7429 10.67 22.1329 10.55 21.5829 13.2H21.5729ZM1.75291 11C1.22291 11.79 -0.14709 12.64 0.0129102 13.75C0.15291 14.36 0.75291 14.74 1.35291 14.6C2.98291 14.1 1.80291 12.22 1.75291 11ZM19.8829 17C19.8829 13.14 16.2929 10 11.8829 10C7.47291 10 3.88291 13.14 3.88291 17C3.88291 20.86 7.47291 24 11.8829 24C16.2929 24 19.8829 20.86 19.8829 17ZM17.8829 17C17.8829 19.76 15.1929 22 11.8829 22C8.57291 22 5.88291 19.76 5.88291 17C5.88291 14.24 8.57291 12 11.8829 12C15.1929 12 17.8829 14.24 17.8829 17Z" />
</g>
<defs>
<clipPath id="clip0_15894_140103">
<rect width="24" height="24" fill="white"/>
</clipPath>
</defs>
</svg>
