<svg width="24" height="24" viewBox="0 0 24 24" xmlns="http://www.w3.org/2000/svg">
<path d="M12.01 24C6.85767 24 1.15509 20.96 0.0145752 14.16C-0.0354475 13.87 0.0445888 13.57 0.234675 13.35C0.424761 13.13 0.704888 13 0.995019 13H23.005C23.2951 13 23.5752 13.13 23.7653 13.35C23.9554 13.57 24.0354 13.87 23.9854 14.16C22.8549 20.95 17.1423 24 11.99 24H12.01ZM2.25559 15C3.61621 19.82 8.0182 22 12.01 22C16.0018 22 20.4038 19.82 21.7644 15H2.25559ZM8.00819 6V2C8.00819 1.45 7.55799 1 7.00774 1C6.45749 1 6.00729 1.45 6.00729 2V6C6.00729 6.55 6.45749 7 7.00774 7C7.55799 7 8.00819 6.55 8.00819 6ZM18.0127 6V2C18.0127 1.45 17.5625 1 17.0123 1C16.462 1 16.0118 1.45 16.0118 2V6C16.0118 6.55 16.462 7 17.0123 7C17.5625 7 18.0127 6.55 18.0127 6Z" />
</svg>
