<svg width="24" height="24" viewBox="0 0 24 24" xmlns="http://www.w3.org/2000/svg">
<path d="M7.00572 7C6.45572 7 6.00572 6.55 6.00572 6V2C6.00572 1.45 6.45572 1 7.00572 1C7.55572 1 8.00572 1.45 8.00572 2V6C8.00572 6.55 7.55572 7 7.00572 7ZM18.0057 6V2C18.0057 1.45 17.5557 1 17.0057 1C16.4557 1 16.0057 1.45 16.0057 2V6C16.0057 6.55 16.4557 7 17.0057 7C17.5557 7 18.0057 6.55 18.0057 6ZM19.9457 21.33C20.1257 20.81 19.8557 20.24 19.3357 20.05C14.5457 18.35 9.45572 18.35 4.66572 20.05C4.14572 20.23 3.87572 20.81 4.05572 21.33C4.23572 21.85 4.80572 22.12 5.33572 21.94C9.69572 20.4 14.3057 20.4 18.6657 21.94C18.7757 21.98 18.8857 22 18.9957 22C19.4057 22 19.7957 21.74 19.9357 21.33H19.9457Z" />
</svg>
