<svg width="24" height="24" viewBox="0 0 24 24" xmlns="http://www.w3.org/2000/svg">
<path d="M4 4.9938C4 4.44362 4.45 3.99348 5 3.99348H6.59L5.3 2.70306C4.91 2.31293 4.91 1.68272 5.3 1.2926C5.69 0.902468 6.32 0.902468 6.71 1.2926L9.71 4.29357C9.8 4.3836 9.88 4.49364 9.93 4.62368C10.03 4.86376 10.03 5.14385 9.93 5.38393C9.88 5.50397 9.81 5.614 9.71 5.71404L6.71 8.71501C6.51 8.91508 6.26 9.00511 6 9.00511C5.74 9.00511 5.49 8.90508 5.29 8.71501C4.9 8.32489 4.9 7.69468 5.29 7.30456L6.58 6.01413H4.99C4.44 6.01413 3.99 5.56399 3.99 5.01381L4 4.9938ZM14.08 5.37393C14.13 5.49397 14.2 5.604 14.3 5.70403L17.3 8.70501C17.5 8.90508 17.75 8.99511 18.01 8.99511C18.27 8.99511 18.52 8.89507 18.72 8.70501C19.11 8.31488 19.11 7.68468 18.72 7.29455L17.43 6.00413H19.02C19.57 6.00413 20.02 5.55399 20.02 5.00381C20.02 4.45363 19.57 4.00348 19.02 4.00348H17.43L18.72 2.71306C19.11 2.32293 19.11 1.69273 18.72 1.3026C18.33 0.912471 17.7 0.912471 17.31 1.3026L14.31 4.30358C14.22 4.39361 14.14 4.50364 14.09 4.63368C13.99 4.87376 13.99 5.15385 14.09 5.39393L14.08 5.37393ZM22 14.9971V20.999C22 22.6496 20.65 24 19 24H5C3.35 24 2 22.6496 2 20.999V14.9971C2 13.3465 3.35 11.9961 5 11.9961H19C20.65 11.9961 22 13.3465 22 14.9971ZM19 13.9967H16V16.9977H20V14.9971C20 14.4469 19.55 13.9967 19 13.9967ZM14 16.9977V13.9967H10V16.9977H14ZM10 18.9984V21.9993H14V18.9984H10ZM4 14.9971V16.9977H8V13.9967H5C4.45 13.9967 4 14.4469 4 14.9971ZM5 21.9993H8V18.9984H4V20.999C4 21.5492 4.45 21.9993 5 21.9993ZM20 20.999V18.9984H16V21.9993H19C19.55 21.9993 20 21.5492 20 20.999Z" />
</svg>
