<svg width="24" height="24" viewBox="0 0 24 24" xmlns="http://www.w3.org/2000/svg">
<path d="M19.26 7.15L20.41 6L19 4.59L17.75 5.84C16.12 4.69 14.14 4.01 12 4.01C9.86 4.01 7.88 4.69 6.25 5.84L5 4.59L3.59 6L4.74 7.15C3.05 8.94 2 11.35 2 14C2 19.51 6.49 24 12 24C17.51 24 22 19.51 22 14C22 11.35 20.96 8.94 19.26 7.15ZM12 22C7.59 22 4 18.41 4 14C4 9.59 7.59 6 12 6C16.41 6 20 9.59 20 14C20 18.41 16.41 22 12 22ZM15 8.58L16.41 9.99L12 14.4L10.59 12.99L15 8.58ZM9.2 3.36L8.83 1.4L9.81 1.21C11.29 0.93 12.7 0.93 14.18 1.21L15.16 1.4L14.79 3.36L13.81 3.17C12.57 2.94 11.42 2.94 10.18 3.17L9.2 3.36Z" />
</svg>
