<?xml version="1.0" encoding="utf-8"?>
<!-- Generator: Adobe Illustrator 21.0.0, SVG Export Plug-In . SVG Version: 6.00 Build 0)  -->
<svg version="1.1" id="Layer_1" xmlns="http://www.w3.org/2000/svg" xmlns:xlink="http://www.w3.org/1999/xlink" x="0px" y="0px"
	 viewBox="0 0 14 14" enable-background="new 0 0 14 14" xml:space="preserve">
<g>
	<path fill="#6F6F6F" d="M7.5,13c-1.3,0-2.6-0.3-3.7-1.1C2.7,11.1,2.1,10,2,8.7C1.9,7.8,2.1,7,2.5,6.2c0,0,0-0.1,0-0.1
		c0-0.5,0-0.9,0-1.4c0.1-1,0.3-2,0.5-3c0.1-0.2,0.1-0.4,0.2-0.6C3.4,1,3.4,1,3.6,1C3.8,1.1,4,1.2,4.2,1.4c0.9,0.6,1.7,1.2,2.4,2
		c0.1,0.1,0.1,0.1,0.2,0.1c0.4,0,0.9,0,1.3,0c0.1,0,0.2,0,0.3-0.1c0.7-0.7,1.4-1.4,2.3-2c0.2-0.1,0.4-0.3,0.7-0.4
		c0.2-0.1,0.3,0,0.3,0.1C11.8,1.5,12,1.9,12,2.2c0.3,1.1,0.4,2.2,0.5,3.3c0,0.1,0,0.2,0,0.2c-0.1,0.3,0,0.5,0.1,0.7
		c0.9,1.9,0.3,4.6-2.2,5.8C9.6,12.8,8.5,13,7.5,13z M6.2,6.9c0-0.3-0.1-0.7-0.3-1C5.5,5.6,5,5.6,4.7,6c-0.4,0.5-0.4,1.5,0,2
		c0.3,0.4,0.8,0.4,1.2,0C6.1,7.7,6.2,7.3,6.2,6.9z M8.8,7c0,0.4,0.1,0.7,0.3,1c0.3,0.4,0.8,0.4,1.2,0c0.5-0.5,0.5-1.5,0-2
		C9.9,5.6,9.4,5.6,9.1,6C8.9,6.3,8.8,6.6,8.8,7z M7.5,9.2C7.2,9.2,7,9.2,6.7,9.3c-0.2,0-0.3,0.1-0.2,0.3c0.1,0.4,0.4,0.7,0.8,0.9
		c0.1,0,0.2,0,0.3,0C8,10.3,8.3,10,8.5,9.6c0.1-0.2,0-0.3-0.2-0.4C8,9.2,7.8,9.2,7.5,9.2z"/>
</g>
</svg>
