<?xml version="1.0" encoding="utf-8"?>
<!-- Generator: Adobe Illustrator 21.0.0, SVG Export Plug-In . SVG Version: 6.00 Build 0)  -->
<svg version="1.1" id="Layer_1" xmlns="http://www.w3.org/2000/svg" xmlns:xlink="http://www.w3.org/1999/xlink" x="0px" y="0px"
	 viewBox="0 0 14 14" enable-background="new 0 0 14 14" xml:space="preserve">
<g>
	<path fill="#6F6F6F" d="M2,6.6C1.8,6.7,1.7,6.8,1.6,6.9C1.3,7.1,1.1,7.3,0.8,7.4C0.4,7.6,0.2,7.5,0.1,7.1C0,6.7,0,6.4,0,6
		c0.1-1,0.3-1.9,0.6-2.8c0.3-1.1,1.3-1.4,2.3-1.1c0.5,0.2,1,0.5,1.3,1c0,0,0,0.1,0.1,0.1C6.1,2,8,2,9.9,3.2c0.2-0.3,0.4-0.6,0.7-0.8
		c0.5-0.3,1.1-0.5,1.7-0.4c0.5,0.1,0.8,0.4,1,0.9c0.3,0.8,0.5,1.6,0.6,2.5c0.1,0.5,0,0.9,0,1.4c0,0.2-0.1,0.3-0.1,0.5
		c-0.1,0.2-0.2,0.3-0.5,0.2c-0.3-0.1-0.6-0.3-0.8-0.4c-0.2-0.1-0.3-0.3-0.5-0.4c0,0.1,0,0.1,0,0.1c0.1,0.8-0.1,1.5-0.5,2.2
		c-0.8,1.4-2,2.5-3.5,3.2c-0.7,0.3-1.4,0.3-2.1,0c-1.6-0.8-2.8-1.9-3.6-3.5C2.1,8,1.9,7.5,2,6.8C2,6.8,2,6.7,2,6.6
		C2,6.7,2,6.7,2,6.6z M10,6.1c0-0.4-0.1-0.8-0.3-1C9.4,4.7,9,4.7,8.7,5.1C8.2,5.6,8.2,6.5,8.7,7c0.3,0.3,0.7,0.3,1,0
		C9.9,6.7,10,6.4,10,6.1z M4,6c0,0.4,0.1,0.7,0.3,1c0.3,0.3,0.7,0.3,1,0c0.4-0.5,0.4-1.4,0-1.9c-0.3-0.4-0.8-0.4-1.1,0
		C4.1,5.4,4,5.7,4,6z M7,9C6.7,9.1,6.4,9.1,6.2,9.2C5.9,9.3,5.8,9.5,5.8,9.8c0,0.3,0.2,0.5,0.4,0.6c0.6,0.3,1.1,0.3,1.7,0
		c0.2-0.1,0.4-0.3,0.4-0.6c0-0.3-0.2-0.5-0.4-0.6C7.6,9.1,7.3,9.1,7,9z"/>
</g>
</svg>
