<?xml version="1.0" encoding="utf-8"?>
<!-- Generator: Adobe Illustrator 21.0.0, SVG Export Plug-In . SVG Version: 6.00 Build 0)  -->
<svg version="1.1" id="Layer_1" xmlns="http://www.w3.org/2000/svg" xmlns:xlink="http://www.w3.org/1999/xlink" x="0px" y="0px"
	 viewBox="0 0 14 14" enable-background="new 0 0 14 14" xml:space="preserve">
<g>
	<path fill="#6F6F6F" d="M5,1C3.2,1.4,1.8,2.2,1.3,4C1.2,4.3,1.1,4.7,1,5c0,0.1,0,0.8,0,1c1.3,0,2.7,0,4,0C5,4.5,5,2.5,5,1z"/>
	<path fill="#6F6F6F" d="M3,7C2.9,7.9,4.1,8.8,5,9c0-0.7,0-1.3,0-2C4.5,7,3.5,7,3,7z"/>
	<circle fill="#6F6F6F" cx="9.5" cy="4.5" r="1.5"/>
	<path fill="#6F6F6F" d="M6,1c0,0.1,0,0.2,0,0.3C6,3.7,6,6.5,6,9c0,1.9,1.2,3.4,2.9,3.8C9.3,12.9,9.7,13,10,13c1,0,1.9,0,3,0
		c0-3.9,0-8.1,0-12C10.6,1,8.4,1,6,1z M9.5,7C8.1,7,7,5.9,7,4.5C7,3.1,8.1,2,9.5,2S12,3.1,12,4.5C12,5.9,10.9,7,9.5,7z"/>
</g>
</svg>
