<svg width="24" height="24" viewBox="0 0 24 24" fill="none" xmlns="http://www.w3.org/2000/svg">
<g clip-path="url(#clip0_6012_744)">
<path d="M12.015 23.955C18.6341 23.955 24 18.5925 24 11.9775C24 5.36252 18.6341 0 12.015 0C5.39587 0 0.0299988 5.36252 0.0299988 11.9775C0.0299988 18.5925 5.39587 23.955 12.015 23.955Z" fill="#2E92E5"/>
<path opacity="0.2" d="M11.985 23.9851C18.6041 23.9851 23.97 18.6225 23.97 12.0075C23.97 5.39255 18.6041 0.0300293 11.985 0.0300293C5.36587 0.0300293 0 5.39255 0 12.0075C0 18.6225 5.36587 23.9851 11.985 23.9851Z" fill="#2E92E5"/>
<path d="M12.03 2.90817C11.955 2.90817 11.88 2.84821 11.88 2.77325V0.659574C11.88 0.584621 11.955 0.524658 12.03 0.524658C12.105 0.524658 12.18 0.584621 12.18 0.659574V2.77325C12.18 2.84821 12.105 2.90817 12.03 2.90817Z" fill="#F3F3F3"/>
<path d="M13.05 1.78392C12.975 1.78392 12.915 1.70897 12.915 1.63401L12.99 0.689603C12.99 0.61465 13.065 0.554688 13.155 0.554688C13.23 0.554688 13.29 0.629641 13.29 0.704594L13.215 1.649C13.215 1.72396 13.14 1.78392 13.05 1.78392Z" fill="#F3F3F3"/>
<path d="M13.8 3.10301C13.725 3.08802 13.665 3.01307 13.68 2.93812L14.1 0.869411C14.115 0.794458 14.19 0.734495 14.265 0.764476C14.34 0.779467 14.4 0.85442 14.385 0.929373L13.965 2.99808C13.965 2.99808 13.875 3.11801 13.8 3.10301Z" fill="#F3F3F3"/>
<path d="M15.015 2.18857C14.94 2.17358 14.88 2.08364 14.91 2.00869L15.165 1.09426C15.18 1.0193 15.27 0.974332 15.345 0.989322C15.42 1.00431 15.48 1.09426 15.45 1.16921L15.195 2.08364C15.18 2.15859 15.09 2.20356 15.015 2.18857Z" fill="#F3F3F3"/>
<path d="M15.51 3.61267C15.435 3.58269 15.405 3.49275 15.435 3.41779L16.245 1.46901C16.245 1.46901 16.365 1.36408 16.44 1.39406C16.515 1.42404 16.545 1.51398 16.515 1.58894L15.705 3.53772C15.705 3.53772 15.585 3.64265 15.51 3.61267Z" fill="#F3F3F3"/>
<path d="M16.875 2.96819C16.875 2.96819 16.77 2.84827 16.8 2.77331L17.22 1.93384C17.22 1.93384 17.34 1.8289 17.43 1.87387C17.505 1.91885 17.535 1.9938 17.505 2.06875L17.085 2.90823C17.085 2.90823 16.965 3.01316 16.875 2.96819Z" fill="#F3F3F3"/>
<path d="M17.085 4.46724C17.085 4.46724 16.995 4.33232 17.04 4.25737L18.21 2.50347C18.21 2.50347 18.345 2.42851 18.42 2.45849C18.495 2.50347 18.51 2.59341 18.465 2.66836L17.295 4.42227C17.295 4.42227 17.16 4.51221 17.085 4.46724Z" fill="#F3F3F3"/>
<path d="M18.555 4.09239C18.555 4.09239 18.48 3.95748 18.525 3.88252L19.11 3.14798C19.11 3.14798 19.245 3.07303 19.32 3.13299C19.38 3.17796 19.395 3.26791 19.35 3.34286L18.765 4.0774C18.765 4.0774 18.63 4.15235 18.555 4.09239Z" fill="#F3F3F3"/>
<path d="M18.465 5.60651C18.465 5.60651 18.405 5.4566 18.465 5.39664L19.965 3.91257C19.965 3.91257 20.115 3.86759 20.175 3.91257C20.235 3.95754 20.235 4.06247 20.175 4.12243L18.69 5.60651C18.69 5.60651 18.54 5.66647 18.48 5.60651H18.465Z" fill="#F3F3F3"/>
<path d="M19.98 5.53147C19.98 5.53147 19.935 5.38156 19.98 5.3216L20.7 4.70699C20.7 4.70699 20.85 4.66201 20.91 4.72198C20.97 4.78194 20.955 4.87188 20.91 4.93184L20.19 5.54646C20.19 5.54646 20.04 5.59143 19.98 5.53147Z" fill="#F3F3F3"/>
<path d="M19.575 6.98566C19.575 6.98566 19.545 6.82077 19.62 6.77579L21.375 5.60652C21.375 5.60652 21.54 5.59153 21.585 5.6515C21.63 5.72645 21.615 5.81639 21.54 5.86136L19.785 7.03063C19.785 7.03063 19.635 7.04562 19.575 6.98566Z" fill="#F3F3F3"/>
<path d="M21.09 7.19545C21.09 7.19545 21.075 7.03056 21.135 6.98558L21.96 6.52087C21.96 6.52087 22.125 6.52087 22.17 6.58084C22.215 6.65579 22.185 6.74573 22.125 6.79071L21.3 7.25542C21.3 7.25542 21.135 7.25542 21.09 7.19545Z" fill="#F3F3F3"/>
<path d="M20.4 8.54465C20.37 8.4697 20.4 8.37976 20.475 8.34978L22.425 7.54028C22.425 7.54028 22.59 7.54028 22.62 7.61524C22.65 7.69019 22.62 7.78013 22.545 7.81011L20.595 8.61961C20.595 8.61961 20.43 8.61961 20.4 8.54465Z" fill="#F3F3F3"/>
<path d="M21.84 9.05438C21.81 8.97943 21.84 8.88949 21.93 8.8595L22.815 8.55969C22.815 8.55969 22.98 8.57468 22.995 8.64964C23.025 8.72459 22.995 8.81453 22.905 8.84451L22.02 9.14433C22.02 9.14433 21.87 9.14433 21.84 9.05438Z" fill="#F3F3F3"/>
<path d="M20.925 10.2536C20.91 10.1786 20.955 10.0887 21.03 10.0887L23.1 9.68395C23.175 9.66896 23.25 9.72892 23.265 9.80388C23.28 9.87883 23.235 9.96878 23.16 9.96878L21.09 10.3735C21.015 10.3735 20.925 10.3286 20.925 10.2536Z" fill="#F3F3F3"/>
<path d="M22.215 11.0331C22.215 10.9582 22.26 10.8832 22.335 10.8682L23.265 10.7633C23.34 10.7633 23.415 10.8083 23.43 10.8982C23.43 10.9732 23.385 11.0481 23.31 11.0631L22.38 11.1681C22.38 11.1681 22.23 11.1231 22.215 11.0331Z" fill="#F3F3F3"/>
<path d="M21.09 12.0075C21.09 11.9325 21.15 11.8575 21.225 11.8575H23.34C23.415 11.8575 23.475 11.9325 23.475 12.0075C23.475 12.0824 23.415 12.1574 23.34 12.1574H21.225C21.15 12.1574 21.09 12.0824 21.09 12.0075Z" fill="#F3F3F3"/>
<path d="M22.215 13.0418C22.215 12.9668 22.29 12.9069 22.365 12.9069L23.31 12.9818C23.385 12.9818 23.445 13.0568 23.445 13.1467C23.445 13.2217 23.37 13.2816 23.295 13.2816L22.35 13.2067C22.35 13.2067 22.215 13.1317 22.215 13.0418Z" fill="#F3F3F3"/>
<path d="M20.895 13.7764C20.91 13.7015 20.985 13.6415 21.06 13.6565L23.13 14.0762C23.205 14.0912 23.265 14.1662 23.235 14.2411C23.22 14.3161 23.145 14.376 23.07 14.361L21 13.9413C21 13.9413 20.88 13.8514 20.895 13.7764Z" fill="#F3F3F3"/>
<path d="M21.81 14.9906C21.825 14.9157 21.915 14.8557 21.99 14.8857L22.905 15.1405C22.98 15.1555 23.025 15.2455 23.01 15.3204C22.995 15.3954 22.905 15.4553 22.83 15.4254L21.915 15.1705C21.84 15.1555 21.795 15.0656 21.81 14.9906Z" fill="#F3F3F3"/>
<path d="M20.385 15.4704C20.415 15.3954 20.505 15.3654 20.58 15.3954L22.53 16.2049C22.53 16.2049 22.635 16.3248 22.605 16.3998C22.575 16.4747 22.485 16.5047 22.41 16.4747L20.46 15.6652C20.385 15.6352 20.355 15.5453 20.385 15.4704Z" fill="#F3F3F3"/>
<path d="M21.045 16.8345C21.045 16.8345 21.165 16.7296 21.24 16.7595L22.08 17.1793C22.08 17.1793 22.185 17.2992 22.14 17.3891C22.095 17.4641 22.02 17.4941 21.945 17.4641L21.105 17.0444C21.105 17.0444 21 16.9094 21.045 16.8345Z" fill="#F3F3F3"/>
<path d="M19.56 17.0294C19.56 17.0294 19.695 16.9394 19.77 16.9844L21.525 18.1537C21.525 18.1537 21.6 18.2886 21.57 18.3635C21.525 18.4385 21.435 18.4535 21.36 18.4085L19.605 17.2392C19.605 17.2392 19.515 17.1043 19.56 17.0294Z" fill="#F3F3F3"/>
<path d="M19.935 18.4985C19.935 18.4985 20.07 18.4235 20.145 18.4685L20.88 19.0381C20.88 19.0381 20.955 19.173 20.895 19.248C20.85 19.3079 20.76 19.3229 20.685 19.278L19.95 18.7083C19.95 18.7083 19.875 18.5734 19.935 18.4985Z" fill="#F3F3F3"/>
<path d="M18.42 18.3935C18.42 18.3935 18.57 18.3335 18.63 18.3935L20.13 19.8775C20.13 19.8775 20.175 20.0274 20.13 20.0874C20.07 20.1474 19.98 20.1474 19.92 20.0874L18.42 18.6033C18.42 18.6033 18.375 18.4534 18.42 18.3935Z" fill="#F3F3F3"/>
<path d="M18.51 19.9076C18.51 19.9076 18.66 19.8626 18.72 19.9076L19.335 20.6121C19.335 20.6121 19.38 20.762 19.32 20.822C19.26 20.882 19.17 20.867 19.11 20.822L18.495 20.1174C18.495 20.1174 18.45 19.9825 18.51 19.9076Z" fill="#F3F3F3"/>
<path d="M17.055 19.5178C17.055 19.5178 17.22 19.4878 17.265 19.5627L18.435 21.3166C18.435 21.3166 18.45 21.4815 18.39 21.5265C18.315 21.5715 18.225 21.5565 18.18 21.4815L17.01 19.7276C17.01 19.7276 16.995 19.5627 17.055 19.5178Z" fill="#F3F3F3"/>
<path d="M16.845 21.0168C16.845 21.0168 17.01 21.0018 17.055 21.0618L17.52 21.8863C17.52 21.8863 17.52 22.0512 17.46 22.0961C17.385 22.1411 17.295 22.1111 17.25 22.0512L16.785 21.2267C16.785 21.2267 16.785 21.0618 16.845 21.0168Z" fill="#F3F3F3"/>
<path d="M15.495 20.3573C15.57 20.3273 15.66 20.3573 15.69 20.4323L16.515 22.3811C16.515 22.3811 16.515 22.5459 16.44 22.5759C16.365 22.6059 16.275 22.5759 16.245 22.501L15.42 20.5522C15.42 20.5522 15.42 20.3873 15.495 20.3573Z" fill="#F3F3F3"/>
<path d="M15 21.7964C15.075 21.7664 15.165 21.7964 15.195 21.8863L15.495 22.7708C15.495 22.7708 15.48 22.9357 15.405 22.9507C15.33 22.9807 15.24 22.9507 15.21 22.8607L14.91 21.9763C14.91 21.9763 14.91 21.8264 15 21.7964Z" fill="#F3F3F3"/>
<path d="M13.8 20.8669C13.875 20.8519 13.965 20.8969 13.965 20.9718L14.385 23.0405C14.4 23.1155 14.34 23.1904 14.265 23.2054C14.19 23.2204 14.1 23.1754 14.1 23.1005L13.68 21.0318C13.68 21.0318 13.725 20.8819 13.8 20.8669Z" fill="#F3F3F3"/>
<path d="M13.035 22.1862C13.11 22.1862 13.185 22.2311 13.2 22.3061L13.32 23.2355C13.32 23.3105 13.275 23.3854 13.185 23.4004C13.11 23.4004 13.035 23.3554 13.02 23.2805L12.9 22.3511C12.9 22.2761 12.945 22.2011 13.035 22.1862Z" fill="#F3F3F3"/>
<path d="M11.985 21.0469C12.06 21.0469 12.135 21.1068 12.135 21.1818V23.2955C12.135 23.3704 12.06 23.4304 11.985 23.4304C11.91 23.4304 11.835 23.3704 11.835 23.2955V21.1818C11.835 21.1068 11.91 21.0469 11.985 21.0469Z" fill="#F3F3F3"/>
<path d="M10.98 22.1862C11.055 22.1862 11.115 22.2611 11.115 22.3361L11.04 23.2805C11.04 23.3554 10.965 23.4154 10.875 23.4154C10.8 23.4154 10.74 23.3404 10.74 23.2655L10.815 22.3211C10.815 22.2461 10.89 22.1862 10.98 22.1862Z" fill="#F3F3F3"/>
<path d="M10.215 20.8669C10.29 20.8819 10.35 20.9568 10.335 21.0318L9.915 23.1005C9.9 23.1755 9.825 23.2354 9.75 23.2054C9.675 23.1904 9.615 23.1155 9.63 23.0405L10.05 20.9718C10.05 20.9718 10.14 20.8519 10.215 20.8669Z" fill="#F3F3F3"/>
<path d="M8.99999 21.7813C9.07499 21.7963 9.13499 21.8862 9.10499 21.9612L8.84999 22.8756C8.83499 22.9506 8.74499 22.9956 8.66999 22.9806C8.59499 22.9656 8.53499 22.8756 8.56499 22.8007L8.81999 21.8863C8.83499 21.8113 8.92499 21.7663 8.99999 21.7813Z" fill="#F3F3F3"/>
<path d="M8.50499 20.3573C8.57999 20.3873 8.60999 20.4772 8.57999 20.5522L7.76999 22.501C7.76999 22.501 7.64999 22.6059 7.57499 22.5759C7.49999 22.5459 7.46999 22.456 7.49999 22.3811L8.30999 20.4323C8.30999 20.4323 8.42999 20.3273 8.50499 20.3573Z" fill="#F3F3F3"/>
<path d="M7.14 21.0018C7.14 21.0018 7.245 21.1217 7.215 21.1967L6.795 22.0362C6.795 22.0362 6.675 22.1411 6.585 22.0961C6.51 22.0511 6.48 21.9762 6.51 21.9012L6.93 21.0618C6.93 21.0618 7.05 20.9568 7.14 21.0018Z" fill="#F3F3F3"/>
<path d="M6.92999 19.5028C6.92999 19.5028 7.01999 19.6377 6.97499 19.7127L5.80499 21.4666C5.80499 21.4666 5.66999 21.5416 5.59499 21.5116C5.51999 21.4666 5.50499 21.3767 5.54999 21.3017L6.71999 19.5478C6.71999 19.5478 6.85499 19.4579 6.92999 19.5028Z" fill="#F3F3F3"/>
<path d="M5.45999 19.8776C5.45999 19.8776 5.53499 20.0125 5.48999 20.0875L4.90499 20.822C4.90499 20.822 4.76999 20.897 4.69499 20.837C4.63499 20.792 4.61999 20.7021 4.66499 20.6272L5.24999 19.8926C5.24999 19.8926 5.38499 19.8177 5.45999 19.8776Z" fill="#F3F3F3"/>
<path d="M5.565 18.3636C5.565 18.3636 5.625 18.5135 5.565 18.5734L4.065 20.0575C4.065 20.0575 3.915 20.1025 3.855 20.0575C3.795 20.0125 3.795 19.9076 3.855 19.8476L5.34 18.3636C5.34 18.3636 5.49 18.3036 5.55 18.3636H5.565Z" fill="#F3F3F3"/>
<path d="M4.03499 18.4384C4.03499 18.4384 4.07999 18.5883 4.03499 18.6483L3.31499 19.2629C3.31499 19.2629 3.16499 19.3079 3.10499 19.2479C3.04499 19.1879 3.05999 19.098 3.10499 19.038L3.82499 18.4234C3.82499 18.4234 3.97499 18.3784 4.03499 18.4384Z" fill="#F3F3F3"/>
<path d="M4.43999 16.9844C4.43999 16.9844 4.46999 17.1493 4.39499 17.1943L2.63999 18.3635C2.63999 18.3635 2.47499 18.3785 2.42999 18.3185C2.38499 18.2436 2.39999 18.1537 2.47499 18.1087L4.22999 16.9394C4.22999 16.9394 4.37999 16.9244 4.43999 16.9844Z" fill="#F3F3F3"/>
<path d="M2.94 16.7746C2.94 16.7746 2.955 16.9395 2.895 16.9844L2.07 17.4491C2.07 17.4491 1.905 17.4491 1.86 17.3892C1.815 17.3142 1.845 17.2243 1.905 17.1793L2.73 16.7146C2.73 16.7146 2.895 16.7146 2.94 16.7746Z" fill="#F3F3F3"/>
<path d="M3.615 15.4253C3.645 15.5002 3.61499 15.5902 3.53999 15.6202L1.59 16.4297C1.59 16.4297 1.425 16.4297 1.395 16.3547C1.365 16.2798 1.395 16.1898 1.47 16.1598L3.42 15.3503C3.42 15.3503 3.585 15.3503 3.615 15.4253Z" fill="#F3F3F3"/>
<path d="M2.18999 14.9156C2.21999 14.9906 2.18999 15.0805 2.09999 15.1105L1.21499 15.4103C1.21499 15.4103 1.04999 15.3953 1.03499 15.3204C1.00499 15.2454 1.03499 15.1555 1.12499 15.1255L2.00999 14.8257C2.00999 14.8257 2.15999 14.8257 2.18999 14.9156Z" fill="#F3F3F3"/>
<path d="M3.10499 13.7164C3.11999 13.7913 3.07499 13.8813 2.99999 13.8813L0.92999 14.286C0.85499 14.301 0.77999 14.241 0.76499 14.1661C0.74999 14.0911 0.794989 14.0012 0.869989 14.0012L2.93999 13.5964C3.01499 13.5964 3.10499 13.6414 3.10499 13.7164Z" fill="#F3F3F3"/>
<path d="M1.79999 12.9369C1.79999 13.0119 1.75499 13.0868 1.67999 13.1018L0.749991 13.2067C0.674991 13.2067 0.599991 13.1618 0.584991 13.0718C0.584991 12.9969 0.629991 12.9219 0.704991 12.9069L1.63499 12.802C1.63499 12.802 1.78499 12.847 1.79999 12.9369Z" fill="#F3F3F3"/>
<path d="M2.93999 11.9475C2.93999 12.0225 2.87999 12.0974 2.80499 12.0974H0.674993C0.599993 12.0974 0.539993 12.0225 0.539993 11.9475C0.539993 11.8726 0.599993 11.7976 0.674993 11.7976H2.78999C2.86499 11.7976 2.92499 11.8726 2.92499 11.9475H2.93999Z" fill="#F3F3F3"/>
<path d="M1.81499 10.9282C1.81499 11.0032 1.73999 11.0631 1.66499 11.0631L0.719991 10.9882C0.644991 10.9882 0.584991 10.9132 0.584991 10.8233C0.584991 10.7483 0.659991 10.6884 0.734991 10.6884L1.67999 10.7633C1.67999 10.7633 1.81499 10.8383 1.81499 10.9282Z" fill="#E2E2E2"/>
<path d="M3.12 10.1936C3.105 10.2686 3.03 10.3286 2.955 10.3136L0.884999 9.89382C0.809999 9.87883 0.749999 9.80388 0.779999 9.72893C0.794999 9.65397 0.869999 9.59401 0.944999 9.609L3.015 10.0287C3.015 10.0287 3.135 10.1337 3.12 10.2086V10.1936Z" fill="#F3F3F3"/>
<path d="M2.20499 8.97936C2.18999 9.05431 2.1 9.11427 2.02499 9.08429L1.10999 8.82945C1.03499 8.81446 0.989995 8.72452 1.00499 8.64956C1.01999 8.57461 1.11 8.51465 1.18499 8.54463L2.09999 8.79947C2.17499 8.81446 2.22 8.9044 2.20499 8.97936Z" fill="#F3F3F3"/>
<path d="M3.62999 8.48473C3.59999 8.55969 3.50999 8.58967 3.43499 8.55969L1.48499 7.75019C1.48499 7.75019 1.37999 7.63027 1.40999 7.55531C1.43999 7.48036 1.52999 7.45038 1.60499 7.48036L3.55499 8.28986C3.62999 8.31984 3.65999 8.40978 3.62999 8.48473Z" fill="#F3F3F3"/>
<path d="M2.97 7.12059C2.97 7.12059 2.85 7.22552 2.775 7.19554L1.935 6.7758C1.935 6.7758 1.83 6.65588 1.875 6.56593C1.92 6.49098 1.995 6.461 2.07 6.49098L2.91 6.91072C2.91 6.91072 3.015 7.04563 2.97 7.12059Z" fill="#F3F3F3"/>
<path d="M4.47 6.92567C4.47 6.92567 4.33499 7.01562 4.25999 6.97065L2.50499 5.80138C2.50499 5.80138 2.42999 5.66646 2.45999 5.59151C2.50499 5.51656 2.59499 5.50157 2.66999 5.54654L4.42499 6.71581C4.42499 6.71581 4.49999 6.85072 4.45499 6.91068L4.47 6.92567Z" fill="#F3F3F3"/>
<path d="M4.09499 5.47155C4.09499 5.47155 3.95999 5.54651 3.88499 5.50154L3.14999 4.93189C3.14999 4.93189 3.07499 4.79698 3.13499 4.72202C3.17999 4.66206 3.26999 4.64707 3.34499 4.69204L4.07999 5.26169C4.07999 5.26169 4.15499 5.3966 4.09499 5.47155Z" fill="#F3F3F3"/>
<path d="M5.59499 5.56155C5.59499 5.56155 5.44499 5.62151 5.38499 5.56155L3.86999 4.07747C3.86999 4.07747 3.82499 3.92757 3.86999 3.8676C3.92999 3.80764 4.01999 3.80764 4.07999 3.8676L5.57999 5.35168C5.57999 5.35168 5.63999 5.50158 5.57999 5.56155H5.59499Z" fill="#F3F3F3"/>
<path d="M5.50499 4.0625C5.50499 4.0625 5.35499 4.10747 5.29499 4.0625L4.67999 3.35794C4.67999 3.35794 4.63499 3.20803 4.69499 3.14807C4.75499 3.08811 4.84499 3.1031 4.90499 3.14807L5.51999 3.85263C5.51999 3.85263 5.56499 3.98755 5.50499 4.0625Z" fill="#F3F3F3"/>
<path d="M6.95999 4.43724C6.95999 4.43724 6.79499 4.46722 6.74999 4.39227L5.56499 2.63836C5.56499 2.63836 5.54999 2.47347 5.60999 2.42849C5.68499 2.38352 5.77499 2.39851 5.81999 2.47347L6.98999 4.22737C6.98999 4.22737 7.01999 4.39227 6.95999 4.43724Z" fill="#F3F3F3"/>
<path d="M7.18499 2.93814C7.18499 2.93814 7.01999 2.95313 6.97499 2.89316L6.50999 2.06868C6.50999 2.06868 6.50999 1.90378 6.56999 1.85881C6.64499 1.81384 6.73499 1.84382 6.77999 1.90378L7.24499 2.72827C7.24499 2.72827 7.24499 2.89316 7.18499 2.93814Z" fill="#F3F3F3"/>
<path d="M8.52 3.61267C8.445 3.64265 8.355 3.61267 8.325 3.53772L7.5 1.58894C7.5 1.58894 7.5 1.42404 7.575 1.39406C7.65 1.36408 7.74 1.39406 7.77 1.46901L8.595 3.41779C8.595 3.41779 8.595 3.58269 8.52 3.61267Z" fill="#F3F3F3"/>
<path d="M9.02999 2.17363C8.95499 2.20361 8.86499 2.17363 8.83499 2.08368L8.53499 1.19923C8.53499 1.19923 8.54999 1.03434 8.62499 1.01935C8.69999 1.00436 8.78999 1.01935 8.81999 1.10929L9.11999 1.99374C9.11999 1.99374 9.11999 2.14364 9.02999 2.17363Z" fill="#F3F3F3"/>
<path d="M10.215 3.10301C10.14 3.118 10.05 3.07303 10.05 2.99807L9.63 0.929366C9.615 0.854413 9.675 0.77946 9.75 0.764469C9.825 0.749478 9.915 0.79445 9.915 0.869403L10.335 2.93811C10.335 2.93811 10.29 3.08802 10.215 3.10301Z" fill="#F3F3F3"/>
<path d="M10.98 1.78382C10.905 1.78382 10.83 1.73885 10.815 1.6639L10.695 0.734477C10.695 0.659524 10.74 0.584571 10.83 0.56958C10.905 0.56958 10.98 0.614552 10.995 0.689505L11.115 1.61892C11.115 1.69388 11.07 1.76883 10.98 1.78382Z" fill="#F3F3F3"/>
<path d="M20.205 3.7926L10.65 10.5684L13.5 13.3866L20.205 3.7926Z" fill="#CD151E"/>
<path d="M10.65 10.5684L12.075 11.9775L20.205 3.7926L10.65 10.5684Z" fill="#FA5153"/>
<path d="M10.65 10.5684L13.5 13.3866L3.92999 20.1774L10.65 10.5684Z" fill="#ACACAC"/>
<path d="M3.92999 20.1623L12.075 11.9625L10.65 10.5533L3.92999 20.1623Z" fill="#EEEEEE"/>
</g>
<defs>
<clipPath id="clip0_6012_744">
<rect width="24" height="24" fill="white"/>
</clipPath>
</defs>
</svg>
