<svg width="24" height="24" viewBox="0 0 24 24" fill="none" xmlns="http://www.w3.org/2000/svg">
<g clip-path="url(#clip0_6012_718)">
<path d="M11.97 1.98572e-05C11.97 1.98572e-05 19.05 -0.31498 22.8 6.78002H11.37C11.37 6.78002 9.20999 6.70502 7.36499 9.33002C6.83999 10.425 6.26999 11.55 6.89999 13.785C5.98499 12.225 2.02499 5.34002 2.02499 5.34002C2.02499 5.34002 4.82999 0.28502 11.97 1.98572e-05Z" fill="#E6322A"/>
<path d="M22.425 18.03C22.425 18.03 19.155 24.3 11.13 24C12.12 22.29 16.845 14.13 16.845 14.13C16.845 14.13 17.985 12.3 16.635 9.40498C15.945 8.39998 15.255 7.34998 13.005 6.77998C14.82 6.76498 22.77 6.77998 22.77 6.77998C22.77 6.77998 25.755 11.715 22.425 18.045V18.03Z" fill="#FEDA00"/>
<path d="M1.56 18.075C1.56 18.075 -2.25 12.12 2.025 5.32495C3.015 7.03495 7.74 15.21 7.74 15.21C7.74 15.21 8.76 17.115 11.94 17.4C13.155 17.31 14.415 17.235 16.035 15.57C15.15 17.145 11.145 24.015 11.145 24.015C11.145 24.015 5.37 24.12 1.545 18.09L1.56 18.075Z" fill="#65B54C"/>
<path d="M6.58501 12.105C6.58501 9.15001 8.98501 6.76501 11.94 6.76501C14.895 6.76501 17.295 9.16501 17.295 12.105C17.295 15.045 14.895 17.445 11.94 17.445C8.98501 17.445 6.58501 15.045 6.58501 12.105Z" fill="white"/>
<path d="M7.485 12.105C7.485 9.64502 9.48 7.65002 11.94 7.65002C14.4 7.65002 16.395 9.64502 16.395 12.105C16.395 14.565 14.4 16.56 11.94 16.56C9.48 16.56 7.485 14.565 7.485 12.105Z" fill="#4288C8"/>
</g>
<defs>
<clipPath id="clip0_6012_718">
<rect width="24" height="24" fill="white"/>
</clipPath>
</defs>
</svg>
