<svg width="24" height="24" viewBox="0 0 24 24" fill="none" xmlns="http://www.w3.org/2000/svg">
<g clip-path="url(#clip0_6012_823)">
<path d="M8.055 18.765C6.72 17.205 5.865 14.88 5.82 12.285V11.715C5.88 9.12 6.735 6.795 8.055 5.235C9.78 3 12.315 1.995 15.165 1.995C16.935 1.995 18.585 2.115 19.995 3.06C17.895 1.155 15.105 0 12.045 0H12C5.37 0 0 5.37 0 12C0 18.63 5.07 23.685 11.43 23.985C11.61 23.985 11.82 23.985 12 23.985C15.075 23.985 17.88 22.83 19.995 20.925C18.585 21.855 17.025 21.9 15.255 21.9C12.405 21.9 9.765 20.985 8.04 18.735L8.055 18.765Z" fill="#FF1B2E"/>
<path d="M8.05499 5.23495C9.14999 3.92995 10.575 3.14995 12.135 3.14995C15.63 3.14995 18.465 7.10995 18.465 12C18.465 16.8899 15.63 20.8499 12.135 20.8499C10.575 20.8499 9.16499 20.07 8.05499 18.7649C9.77999 21 12.345 22.4249 15.195 22.4249C16.95 22.4249 18.6 21.8849 20.01 20.955C22.47 18.7349 24.015 15.5399 24.015 11.985C24.015 8.42995 22.47 5.23495 20.01 3.04495C18.6 2.11495 16.965 1.57495 15.195 1.57495C12.33 1.57495 9.77999 2.98495 8.05499 5.23495Z" fill="#AE0C0F"/>
</g>
<defs>
<clipPath id="clip0_6012_823">
<rect width="24" height="24" fill="white"/>
</clipPath>
</defs>
</svg>
