<svg width="24" height="24" viewBox="0 0 24 24" fill="none" xmlns="http://www.w3.org/2000/svg">
<g clip-path="url(#clip0_6012_840)">
<path fill-rule="evenodd" clip-rule="evenodd" d="M22.0861 0.635339C20.2111 -1.05966 15.9511 0.980339 13.5961 2.34534C12.9211 2.24034 12.2161 2.18034 11.4811 2.18034C8.51112 2.18034 6.12612 3.05034 4.29612 4.70034C2.24112 6.59034 1.10112 9.08034 1.10112 11.9453C1.10112 11.9753 1.10112 11.9903 1.10112 12.0203C4.01112 7.46034 8.49612 5.12034 9.68112 4.50534C9.86112 4.41534 9.98112 4.64034 9.80112 4.73034C7.80612 5.93034 4.10112 9.39534 1.70112 14.3753C0.18612 17.5103 -1.10388 21.9203 1.46112 23.5403C3.41112 24.7703 6.89112 23.3153 9.69612 21.4853C10.3711 21.5753 11.0911 21.6353 11.8411 21.6353C17.0161 21.6353 20.6461 18.7853 21.9361 14.6153H14.8261C14.5261 16.0703 13.5361 16.8653 11.9761 16.8653C10.0261 16.8653 8.67612 15.8003 8.58612 13.3103H22.0711C22.1011 12.7853 22.0411 12.4253 22.0411 12.0203C22.0411 7.37034 19.2511 3.74034 14.7211 2.57034C16.5661 1.43034 20.0161 -0.264661 21.6661 1.08534C22.9111 2.09034 22.2211 4.22034 21.9211 5.09034C21.8761 5.31534 22.1311 5.34534 22.1761 5.13534C22.8061 3.56034 22.9861 1.46034 22.0711 0.635339H22.0861ZM9.05112 21.3653C6.86112 22.6703 3.84612 23.6153 2.37612 22.5053C1.28112 21.6803 1.76112 19.4303 2.72112 17.2403C3.30612 18.1253 4.04112 18.9053 4.91112 19.5653C6.08112 20.4503 7.46112 21.0353 9.05112 21.3503V21.3653ZM8.55612 10.1903C8.58612 8.03034 10.1461 7.10034 11.7661 7.10034C13.4761 7.10034 14.8561 8.09034 14.8561 10.1903H8.55612Z" fill="#10A6F9"/>
</g>
<defs>
<clipPath id="clip0_6012_840">
<rect width="24" height="24" fill="white"/>
</clipPath>
</defs>
</svg>
