<svg width="24" height="24" viewBox="0 0 24 24" fill="none" xmlns="http://www.w3.org/2000/svg">
<g clip-path="url(#clip0_6012_729)">
<path d="M22.395 8.04742C21.885 6.83242 20.865 5.51242 20.055 5.10742C20.625 6.21742 21.03 7.40242 21.24 8.63242V8.66242C22.14 11.2274 22.005 14.0474 20.88 16.5224C19.545 19.3874 16.32 22.3124 11.265 22.1774C5.805 22.0274 1.005 17.9774 0.105 12.6674C-0.06 11.8274 0.105 11.4074 0.18 10.7324C0.075 11.2574 0 11.7974 0 12.3374V12.3974C0 18.8174 5.235 24.0224 11.655 24.0074C17.31 24.0074 22.14 19.9274 23.1 14.3624C23.115 14.2124 23.13 14.0624 23.16 13.9124C23.4 11.9324 23.145 9.92242 22.41 8.06242L22.395 8.04742Z" fill="#DF1064"/>
<path d="M16.74 9.41243C16.74 9.41243 16.785 9.44243 16.815 9.47243C16.53 8.94743 16.155 8.48243 15.735 8.06243C12.12 4.44743 14.79 0.217432 15.24 -0.00756836C12.315 1.70243 11.325 4.86743 11.235 6.44243C11.37 6.44243 11.505 6.42743 11.64 6.42743C13.755 6.42743 15.69 7.56743 16.74 9.39743V9.41243Z" fill="#FFAC4A"/>
<path d="M11.655 10.1475C11.64 10.4325 10.62 11.4375 10.26 11.4375C6.94504 11.4375 6.42004 13.4325 6.42004 13.4325C6.57004 15.1125 7.74004 16.5075 9.16504 17.2425C9.22504 17.2725 9.30004 17.3025 9.36004 17.3325C9.48004 17.3775 9.58504 17.4225 9.70504 17.4675C10.185 17.6325 10.695 17.7375 11.22 17.7525C17.025 18.0225 18.135 10.8225 13.95 8.72249C14.94 8.58749 15.93 8.84249 16.755 9.39749C15.72 7.56749 13.77 6.42749 11.655 6.42749C11.52 6.42749 11.385 6.42749 11.25 6.44249C10.08 6.51749 8.97004 6.95249 8.04004 7.67249C8.22004 7.82249 8.41504 8.01749 8.83504 8.43749C9.63004 9.21749 11.655 10.0275 11.655 10.1175V10.1475Z" fill="#7763F2"/>
<path d="M7.48501 7.31244C7.57501 7.37244 7.65001 7.41744 7.72501 7.47744C7.45501 6.54744 7.45501 5.57244 7.69501 4.62744C6.61501 5.15244 5.67001 5.88744 4.89001 6.78744C4.95001 6.78744 6.63001 6.75744 7.48501 7.31244Z" fill="#FFAC4A"/>
<path d="M0.104928 12.6524C1.00493 17.9624 5.80493 22.0124 11.2649 22.1624C16.3199 22.3124 19.5449 19.3724 20.8799 16.5074C22.0049 14.0324 22.1399 11.2274 21.2399 8.64743C21.2399 8.64743 21.2399 8.61743 21.2399 8.63243C21.6599 11.3474 20.2799 13.9574 18.1349 15.7274C13.9649 19.1474 9.95993 17.7974 9.14993 17.2424C9.08993 17.2124 9.02993 17.1824 8.98493 17.1524C6.55493 15.9824 5.54993 13.7774 5.75993 11.8724C4.57493 11.8874 3.49493 11.2124 2.99993 10.1324C4.30493 9.33743 5.92493 9.27743 7.27493 9.96743C8.65493 10.5974 10.2149 10.6574 11.6399 10.1324C11.6399 10.0424 9.61493 9.23243 8.81993 8.45243C8.39993 8.03243 8.20493 7.83743 8.02493 7.68743C7.93493 7.61243 7.82993 7.53743 7.72493 7.46243C7.64993 7.41743 7.57493 7.35743 7.48493 7.29743C6.62993 6.74243 4.94993 6.77243 4.88993 6.77243C4.42493 6.18743 4.45493 4.26743 4.48493 3.86243C4.34993 3.92243 4.21493 3.98243 4.09493 4.07243C3.68993 4.35743 3.29993 4.68743 2.95493 5.04743C2.54993 5.45243 2.18993 5.88743 1.85993 6.35243C1.10993 7.41743 0.584928 8.61743 0.299928 9.87743C0.299928 9.90743 -0.120072 11.7074 0.0899279 12.6524H0.104928Z" fill="#FF4F37"/>
<path d="M15.735 8.06243C16.155 8.48243 16.53 8.94743 16.815 9.47243C16.875 9.51743 16.935 9.56243 16.995 9.62243C19.635 12.0524 18.255 15.4874 18.15 15.7274C20.295 13.9574 21.66 11.3474 21.255 8.66243C19.935 5.37743 17.7 4.05743 15.885 1.17743C15.795 1.02743 15.705 0.892432 15.615 0.727432C15.57 0.637432 15.525 0.562432 15.48 0.487432C15.405 0.337432 15.345 0.187432 15.3 0.0224316C15.3 0.00743164 15.3 -0.00756836 15.27 -0.00756836C15.27 -0.00756836 15.27 -0.00756836 15.255 -0.00756836C14.805 0.202432 12.135 4.43243 15.75 8.04743L15.735 8.06243Z" fill="#FFCA32"/>
<path d="M16.9801 9.6224C16.9801 9.6224 16.8751 9.5324 16.8001 9.4724C16.7701 9.4574 16.7551 9.4424 16.7251 9.4124C15.9001 8.8424 14.9101 8.6024 13.9201 8.7374C18.1051 10.8224 16.9801 18.0374 11.1901 17.7674C10.6801 17.7524 10.1701 17.6474 9.67513 17.4824C9.55513 17.4374 9.45013 17.3924 9.33013 17.3474C9.27013 17.3174 9.19513 17.2874 9.13513 17.2574C9.94513 17.8124 13.9351 19.1624 18.1201 15.7574C18.2251 15.5024 19.6051 12.0674 16.9651 9.6374L16.9801 9.6224Z" fill="#FFBF28"/>
<path d="M6.405 13.4325C6.405 13.4325 6.945 11.4375 10.245 11.4375C10.605 11.4375 11.625 10.4325 11.64 10.1475C10.215 10.6575 8.655 10.5975 7.275 9.98245C5.91 9.29245 4.29 9.35245 3 10.1475C3.495 11.2125 4.575 11.9025 5.76 11.8875C5.55 13.7925 6.555 16.0125 8.985 17.1675C9.045 17.1975 9.09 17.2275 9.15 17.2425C7.725 16.5075 6.555 15.1275 6.405 13.4325Z" fill="#FFCA32"/>
</g>
<defs>
<clipPath id="clip0_6012_729">
<rect width="24" height="24" fill="white"/>
</clipPath>
</defs>
</svg>
