<svg width="24" height="24" viewBox="0 0 24 24" fill="none" xmlns="http://www.w3.org/2000/svg">
<g clip-path="url(#clip0_6012_831)">
<path d="M21.66 17.865C21.345 18.03 21 18.18 20.67 18.3C19.59 18.705 18.45 18.9 17.31 18.9C12.87 18.9 9.015 15.855 9.015 11.925C9.015 10.86 9.615 9.86999 10.545 9.35999C6.54 9.52499 5.505 13.71 5.505 16.155C5.505 23.1 11.895 23.79 13.26 23.79C13.995 23.79 15.12 23.58 15.795 23.355L15.915 23.31C18.495 22.41 20.7 20.67 22.155 18.36C22.26 18.18 22.2 17.955 22.035 17.85C21.915 17.775 21.78 17.775 21.66 17.85V17.865Z" fill="url(#paint0_linear_6012_831)"/>
<path d="M9.915 22.635C9.07501 22.11 8.35501 21.435 7.78501 20.64C5.32501 17.265 6.06001 12.525 9.43501 10.065C9.795 9.81002 10.17 9.58502 10.56 9.39002C10.86 9.25502 11.355 9.00002 12.015 9.01502C12.96 9.01502 13.86 9.48002 14.43 10.23C14.805 10.74 15.015 11.355 15.015 11.985C15.015 11.97 17.31 4.51501 7.51501 4.51501C3.39001 4.51501 4.87006e-06 8.41502 4.87006e-06 11.85C-0.0149951 13.665 0.375005 15.45 1.14 17.1C3.72 22.605 10.035 25.305 15.795 23.385C13.815 24.015 11.67 23.73 9.915 22.635Z" fill="url(#paint1_linear_6012_831)"/>
<path d="M14.28 13.95C14.19 14.04 13.965 14.19 13.965 14.475C13.965 14.715 14.13 14.97 14.415 15.165C15.75 16.11 18.3 15.975 18.3 15.975C19.305 15.975 20.28 15.705 21.135 15.195C22.89 14.16 23.985 12.27 23.985 10.23C24.015 8.13 23.235 6.735 22.92 6.12C20.94 2.235 16.665 0 12 0C5.445 0 0.09 5.265 0 11.835C0.045 8.415 3.45 5.64 7.5 5.64C7.83 5.64 9.705 5.67 11.43 6.585C12.645 7.185 13.65 8.145 14.325 9.33C14.895 10.32 15 11.595 15 12.09C15 12.585 14.745 13.335 14.265 13.95H14.28Z" fill="#50DD80"/>
</g>
<defs>
<linearGradient id="paint0_linear_6012_831" x1="5.505" y1="16.59" x2="22.215" y2="16.59" gradientUnits="userSpaceOnUse">
<stop stop-color="#0C59A4"/>
<stop offset="1" stop-color="#114A8B"/>
</linearGradient>
<linearGradient id="paint1_linear_6012_831" x1="14.325" y1="9.34501" x2="3.885" y2="20.715" gradientUnits="userSpaceOnUse">
<stop stop-color="#1B9DE2"/>
<stop offset="0.2" stop-color="#1595DF"/>
<stop offset="0.7" stop-color="#0680D7"/>
<stop offset="1" stop-color="#0078D4"/>
</linearGradient>
<clipPath id="clip0_6012_831">
<rect width="24" height="24" fill="white"/>
</clipPath>
</defs>
</svg>
