<?xml version="1.0" encoding="utf-8"?>
<!-- Generator: Adobe Illustrator 26.0.1, SVG Export Plug-In . SVG Version: 6.00 Build 0)  -->
<svg version="1.1" id="Layer_1" xmlns="http://www.w3.org/2000/svg" xmlns:xlink="http://www.w3.org/1999/xlink" x="0px" y="0px"
	 viewBox="0 0 860 337" style="enable-background:new 0 0 860 337;" xml:space="preserve">
<style type="text/css">
	.st0{fill:#19B394;}
	.st1{fill:#E8F7F4;}
	.st2{fill:#FFFFFF;}
	.st3{fill:#437FD9;}
	.st4{fill:#AAAAAA;}
	.st5{fill:#FFF4E7;}
	.st6{fill:#FF9814;}
</style>
<g>
	<path class="st0" d="M10.2,13.2c0,1.3-0.5,2.3-1.4,3S6.6,17.3,5,17.3c-1.5,0-2.9-0.3-4-0.9v-2.8c1,0.4,1.8,0.7,2.4,0.9
		s1.3,0.3,1.8,0.3c0.7,0,1.2-0.1,1.5-0.4s0.5-0.6,0.5-1.1c0-0.3-0.1-0.5-0.2-0.7s-0.4-0.4-0.7-0.6s-0.9-0.5-1.9-1
		c-0.9-0.4-1.5-0.8-2-1.2S1.7,9,1.5,8.5S1.1,7.4,1.1,6.7c0-1.3,0.4-2.3,1.3-3s2-1.1,3.5-1.1c0.7,0,1.5,0.1,2.1,0.3s1.4,0.4,2.1,0.7
		L9.2,6C8.4,5.7,7.8,5.5,7.3,5.4s-1-0.2-1.5-0.2c-0.6,0-1,0.1-1.3,0.4S4,6.2,4,6.6c0,0.3,0.1,0.5,0.2,0.7s0.3,0.4,0.6,0.6
		s0.9,0.5,1.9,1c1.3,0.6,2.2,1.3,2.7,1.9C10,11.5,10.2,12.2,10.2,13.2z"/>
	<path class="st0" d="M20.3,17.1l-0.4-1.4h-0.2c-0.3,0.5-0.8,0.9-1.4,1.2s-1.3,0.4-2,0.4c-1.3,0-2.2-0.3-2.9-1s-1-1.7-1-3V6.2h3v6.4
		c0,0.8,0.1,1.4,0.4,1.8s0.7,0.6,1.3,0.6c0.8,0,1.4-0.3,1.8-0.8s0.6-1.5,0.6-2.8V6.2h3v10.9H20.3z"/>
	<path class="st0" d="M31.8,6c0.4,0,0.7,0,1,0.1l-0.2,2.8c-0.2-0.1-0.5-0.1-0.9-0.1c-1,0-1.7,0.2-2.2,0.7s-0.8,1.2-0.8,2.1v5.6h-3
		V6.2H28l0.4,1.8h0.1c0.3-0.6,0.8-1.1,1.4-1.5S31.1,6,31.8,6z"/>
	<path class="st0" d="M37.4,17.1L33.2,6.2h3.1l2.1,6.2c0.2,0.8,0.4,1.5,0.4,2.2H39c0-0.6,0.2-1.4,0.4-2.2l2.1-6.2h3.1l-4.2,10.9
		H37.4z"/>
	<path class="st0" d="M51.1,17.3c-1.8,0-3.1-0.5-4.1-1.5s-1.5-2.3-1.5-4.1c0-1.8,0.5-3.2,1.4-4.2S49.1,6,50.7,6
		c1.5,0,2.7,0.4,3.6,1.3s1.3,2.1,1.3,3.6v1.4h-7c0,0.8,0.3,1.5,0.8,2s1.1,0.7,2,0.7c0.7,0,1.3-0.1,1.9-0.2s1.2-0.4,1.8-0.7v2.3
		c-0.5,0.3-1.1,0.5-1.7,0.6S52,17.3,51.1,17.3z M50.7,8.1c-0.6,0-1.1,0.2-1.5,0.6s-0.6,1-0.6,1.7h4.2c0-0.7-0.2-1.3-0.6-1.7
		S51.3,8.1,50.7,8.1z"/>
	<path class="st0" d="M56.4,6.2h3.3l2.1,6.1c0.2,0.5,0.3,1.2,0.4,1.9h0.1c0.1-0.7,0.2-1.3,0.4-1.9l2-6.1h3.2l-4.6,12.3
		c-0.4,1.1-1,2-1.8,2.6s-1.7,0.8-2.7,0.8c-0.5,0-1-0.1-1.5-0.2v-2.4c0.4,0.1,0.7,0.1,1.2,0.1c0.5,0,1-0.2,1.4-0.5s0.7-0.8,0.9-1.5
		l0.2-0.5L56.4,6.2z"/>
</g>
<g>
	<g>
		<path class="st1" d="M8,336.5c-4.1,0-7.5-3.4-7.5-7.5V35c0-4.1,3.4-7.5,7.5-7.5h844c4.1,0,7.5,3.4,7.5,7.5v294
			c0,4.1-3.4,7.5-7.5,7.5H8z"/>
		<path class="st0" d="M852,28c3.9,0,7,3.1,7,7v294c0,3.9-3.1,7-7,7H8c-3.9,0-7-3.1-7-7V35c0-3.9,3.1-7,7-7H852 M852,27H8
			c-4.4,0-8,3.6-8,8v294c0,4.4,3.6,8,8,8h844c4.4,0,8-3.6,8-8V35C860,30.6,856.4,27,852,27L852,27z"/>
	</g>
	<g>
		<path class="st2" d="M548,296.5c-4.1,0-7.5-3.4-7.5-7.5V85c0-4.1,3.4-7.5,7.5-7.5h264c4.1,0,7.5,3.4,7.5,7.5v204
			c0,4.1-3.4,7.5-7.5,7.5H548z"/>
		<path class="st3" d="M812,78c3.9,0,7,3.1,7,7v204c0,3.9-3.1,7-7,7H548c-3.9,0-7-3.1-7-7V85c0-3.9,3.1-7,7-7H812 M812,77H548
			c-4.4,0-8,3.6-8,8v204c0,4.4,3.6,8,8,8h264c4.4,0,8-3.6,8-8V85C820,80.6,816.4,77,812,77L812,77z"/>
	</g>
	<g>
		<path class="st4" d="M569.6,102.1c0,1.3-0.3,2.3-0.8,3.2c-0.5,0.8-1.2,1.4-2.2,1.7l2.4,2.5h-1.7l-1.9-2.3l-0.4,0
			c-1.5,0-2.6-0.5-3.4-1.3c-0.8-0.9-1.2-2.2-1.2-3.8c0-1.6,0.4-2.9,1.2-3.8c0.8-0.9,1.9-1.3,3.4-1.3c1.4,0,2.6,0.5,3.4,1.4
			S569.6,100.5,569.6,102.1z M561.7,102.1c0,1.4,0.3,2.4,0.9,3.1c0.6,0.7,1.4,1,2.5,1c1.1,0,1.9-0.3,2.5-1c0.6-0.7,0.8-1.7,0.8-3.1
			c0-1.3-0.3-2.4-0.8-3.1c-0.6-0.7-1.4-1-2.5-1c-1.1,0-1.9,0.3-2.5,1C561.9,99.8,561.7,100.8,561.7,102.1z"/>
		<path class="st4" d="M572.7,99.6v4.9c0,0.6,0.1,1.1,0.4,1.4c0.3,0.3,0.7,0.5,1.3,0.5c0.8,0,1.4-0.2,1.7-0.6s0.5-1.1,0.5-2.1v-3.9
			h1.1v7.5h-0.9l-0.2-1h-0.1c-0.2,0.4-0.6,0.7-1,0.8c-0.4,0.2-0.9,0.3-1.4,0.3c-0.9,0-1.6-0.2-2-0.6c-0.5-0.4-0.7-1.1-0.7-2.1v-4.9
			H572.7z"/>
		<path class="st4" d="M583.4,107.3c-1.1,0-2-0.3-2.6-1c-0.6-0.7-1-1.6-1-2.8c0-1.2,0.3-2.2,0.9-2.9s1.4-1.1,2.4-1.1
			c0.9,0,1.7,0.3,2.2,0.9s0.8,1.4,0.8,2.4v0.7H581c0,0.9,0.2,1.5,0.7,2c0.4,0.5,1,0.7,1.8,0.7c0.8,0,1.6-0.2,2.4-0.5v1
			c-0.4,0.2-0.8,0.3-1.1,0.4C584.4,107.2,583.9,107.3,583.4,107.3z M583.1,100.4c-0.6,0-1.1,0.2-1.4,0.6c-0.4,0.4-0.6,0.9-0.6,1.6
			h3.9c0-0.7-0.2-1.3-0.5-1.6C584.2,100.6,583.7,100.4,583.1,100.4z"/>
		<path class="st4" d="M593,105.1c0,0.7-0.3,1.2-0.8,1.6s-1.2,0.6-2.2,0.6c-1,0-1.8-0.2-2.3-0.5v-1.1c0.4,0.2,0.7,0.3,1.2,0.4
			c0.4,0.1,0.8,0.2,1.2,0.2c0.6,0,1-0.1,1.4-0.3c0.3-0.2,0.5-0.5,0.5-0.9c0-0.3-0.1-0.5-0.4-0.7c-0.3-0.2-0.7-0.5-1.5-0.7
			c-0.7-0.3-1.2-0.5-1.5-0.7c-0.3-0.2-0.5-0.4-0.7-0.7s-0.2-0.5-0.2-0.9c0-0.6,0.2-1.1,0.7-1.4c0.5-0.4,1.2-0.5,2-0.5
			c0.8,0,1.6,0.2,2.4,0.5l-0.4,0.9c-0.8-0.3-1.4-0.5-2-0.5c-0.5,0-0.9,0.1-1.2,0.3s-0.4,0.4-0.4,0.7c0,0.2,0.1,0.4,0.2,0.5
			s0.3,0.3,0.5,0.4c0.2,0.1,0.7,0.3,1.3,0.6c0.9,0.3,1.5,0.6,1.8,1C592.8,104.2,593,104.6,593,105.1z"/>
		<path class="st4" d="M597.2,106.3c0.2,0,0.4,0,0.6,0c0.2,0,0.3-0.1,0.4-0.1v0.9c-0.1,0.1-0.3,0.1-0.5,0.1c-0.2,0-0.5,0.1-0.6,0.1
			c-1.4,0-2.2-0.8-2.2-2.3v-4.5h-1.1V100l1.1-0.5l0.5-1.6h0.7v1.7h2.2v0.9H596v4.4c0,0.5,0.1,0.8,0.3,1
			C596.6,106.2,596.9,106.3,597.2,106.3z"/>
		<path class="st4" d="M599.7,97.6c0-0.3,0.1-0.5,0.2-0.6c0.1-0.1,0.3-0.2,0.5-0.2c0.2,0,0.3,0.1,0.5,0.2c0.1,0.1,0.2,0.3,0.2,0.6
			s-0.1,0.4-0.2,0.6c-0.1,0.1-0.3,0.2-0.5,0.2c-0.2,0-0.4-0.1-0.5-0.2C599.7,98,599.7,97.9,599.7,97.6z M600.9,107.1h-1.1v-7.5h1.1
			V107.1z"/>
		<path class="st4" d="M609.8,103.4c0,1.2-0.3,2.2-0.9,2.9c-0.6,0.7-1.5,1-2.5,1c-0.7,0-1.3-0.2-1.8-0.5s-0.9-0.8-1.2-1.4
			c-0.3-0.6-0.4-1.3-0.4-2.1c0-1.2,0.3-2.2,0.9-2.9c0.6-0.7,1.5-1,2.5-1c1,0,1.9,0.3,2.5,1C609.5,101.2,609.8,102.2,609.8,103.4z
			 M604.1,103.4c0,1,0.2,1.7,0.6,2.2s0.9,0.8,1.7,0.8c0.7,0,1.3-0.2,1.7-0.7c0.4-0.5,0.6-1.2,0.6-2.2c0-1-0.2-1.7-0.6-2.2
			c-0.4-0.5-1-0.7-1.7-0.7c-0.7,0-1.3,0.2-1.7,0.7C604.2,101.7,604.1,102.4,604.1,103.4z"/>
		<path class="st4" d="M616.9,107.1v-4.8c0-0.6-0.1-1.1-0.4-1.4c-0.3-0.3-0.7-0.5-1.3-0.5c-0.8,0-1.4,0.2-1.7,0.6
			c-0.4,0.4-0.5,1.1-0.5,2.1v3.9h-1.1v-7.5h0.9l0.2,1h0.1c0.2-0.4,0.6-0.7,1-0.9c0.4-0.2,0.9-0.3,1.4-0.3c0.9,0,1.6,0.2,2,0.7
			c0.5,0.4,0.7,1.1,0.7,2.1v4.9H616.9z"/>
	</g>
	<g>
		<path class="st5" d="M564,276.5c-1.9,0-3.5-1.6-3.5-3.5V131c0-1.9,1.6-3.5,3.5-3.5h232c1.9,0,3.5,1.6,3.5,3.5v142
			c0,1.9-1.6,3.5-3.5,3.5H564z"/>
		<path class="st6" d="M796,128c1.7,0,3,1.3,3,3v142c0,1.7-1.3,3-3,3H564c-1.7,0-3-1.3-3-3V131c0-1.7,1.3-3,3-3H796 M796,127H564
			c-2.2,0-4,1.8-4,4v142c0,2.2,1.8,4,4,4h232c2.2,0,4-1.8,4-4V131C800,128.8,798.2,127,796,127L796,127z"/>
	</g>
	<g>
		<path class="st4" d="M589.6,152.1c0,1.3-0.3,2.3-0.8,3.2c-0.5,0.8-1.2,1.4-2.2,1.7l2.4,2.5h-1.7l-1.9-2.3l-0.4,0
			c-1.5,0-2.6-0.5-3.4-1.3c-0.8-0.9-1.2-2.2-1.2-3.8c0-1.6,0.4-2.9,1.2-3.8c0.8-0.9,1.9-1.3,3.4-1.3c1.4,0,2.6,0.5,3.4,1.4
			S589.6,150.5,589.6,152.1z M581.7,152.1c0,1.4,0.3,2.4,0.9,3.1c0.6,0.7,1.4,1,2.5,1c1.1,0,1.9-0.3,2.5-1c0.6-0.7,0.8-1.7,0.8-3.1
			c0-1.3-0.3-2.4-0.8-3.1c-0.6-0.7-1.4-1-2.5-1c-1.1,0-1.9,0.3-2.5,1C581.9,149.8,581.7,150.8,581.7,152.1z"/>
		<path class="st4" d="M592.7,149.6v4.9c0,0.6,0.1,1.1,0.4,1.4c0.3,0.3,0.7,0.5,1.3,0.5c0.8,0,1.4-0.2,1.7-0.6s0.5-1.1,0.5-2.1v-3.9
			h1.1v7.5h-0.9l-0.2-1h-0.1c-0.2,0.4-0.6,0.7-1,0.8c-0.4,0.2-0.9,0.3-1.4,0.3c-0.9,0-1.6-0.2-2-0.6c-0.5-0.4-0.7-1.1-0.7-2.1v-4.9
			H592.7z"/>
		<path class="st4" d="M603.4,157.3c-1.1,0-2-0.3-2.6-1c-0.6-0.7-1-1.6-1-2.8c0-1.2,0.3-2.2,0.9-2.9s1.4-1.1,2.4-1.1
			c0.9,0,1.7,0.3,2.2,0.9s0.8,1.4,0.8,2.4v0.7H601c0,0.9,0.2,1.5,0.7,2c0.4,0.5,1,0.7,1.8,0.7c0.8,0,1.6-0.2,2.4-0.5v1
			c-0.4,0.2-0.8,0.3-1.1,0.4C604.4,157.2,603.9,157.3,603.4,157.3z M603.1,150.4c-0.6,0-1.1,0.2-1.4,0.6c-0.4,0.4-0.6,0.9-0.6,1.6
			h3.9c0-0.7-0.2-1.3-0.5-1.6C604.2,150.6,603.7,150.4,603.1,150.4z"/>
		<path class="st4" d="M613,155.1c0,0.7-0.3,1.2-0.8,1.6s-1.2,0.6-2.2,0.6c-1,0-1.8-0.2-2.3-0.5v-1.1c0.4,0.2,0.7,0.3,1.2,0.4
			c0.4,0.1,0.8,0.2,1.2,0.2c0.6,0,1-0.1,1.4-0.3c0.3-0.2,0.5-0.5,0.5-0.9c0-0.3-0.1-0.5-0.4-0.7c-0.3-0.2-0.7-0.5-1.5-0.7
			c-0.7-0.3-1.2-0.5-1.5-0.7c-0.3-0.2-0.5-0.4-0.7-0.7s-0.2-0.5-0.2-0.9c0-0.6,0.2-1.1,0.7-1.4c0.5-0.4,1.2-0.5,2-0.5
			c0.8,0,1.6,0.2,2.4,0.5l-0.4,0.9c-0.8-0.3-1.4-0.5-2-0.5c-0.5,0-0.9,0.1-1.2,0.3s-0.4,0.4-0.4,0.7c0,0.2,0.1,0.4,0.2,0.5
			s0.3,0.3,0.5,0.4c0.2,0.1,0.7,0.3,1.3,0.6c0.9,0.3,1.5,0.6,1.8,1C612.8,154.2,613,154.6,613,155.1z"/>
		<path class="st4" d="M617.2,156.3c0.2,0,0.4,0,0.6,0c0.2,0,0.3-0.1,0.4-0.1v0.9c-0.1,0.1-0.3,0.1-0.5,0.1c-0.2,0-0.5,0.1-0.6,0.1
			c-1.4,0-2.2-0.8-2.2-2.3v-4.5h-1.1V150l1.1-0.5l0.5-1.6h0.7v1.7h2.2v0.9H616v4.4c0,0.5,0.1,0.8,0.3,1
			C616.6,156.2,616.9,156.3,617.2,156.3z"/>
		<path class="st4" d="M619.7,147.6c0-0.3,0.1-0.5,0.2-0.6c0.1-0.1,0.3-0.2,0.5-0.2c0.2,0,0.3,0.1,0.5,0.2c0.1,0.1,0.2,0.3,0.2,0.6
			s-0.1,0.4-0.2,0.6c-0.1,0.1-0.3,0.2-0.5,0.2c-0.2,0-0.4-0.1-0.5-0.2C619.7,148,619.7,147.9,619.7,147.6z M620.9,157.1h-1.1v-7.5
			h1.1V157.1z"/>
		<path class="st4" d="M629.8,153.4c0,1.2-0.3,2.2-0.9,2.9c-0.6,0.7-1.5,1-2.5,1c-0.7,0-1.3-0.2-1.8-0.5s-0.9-0.8-1.2-1.4
			c-0.3-0.6-0.4-1.3-0.4-2.1c0-1.2,0.3-2.2,0.9-2.9c0.6-0.7,1.5-1,2.5-1c1,0,1.9,0.3,2.5,1C629.5,151.2,629.8,152.2,629.8,153.4z
			 M624.1,153.4c0,1,0.2,1.7,0.6,2.2s0.9,0.8,1.7,0.8c0.7,0,1.3-0.2,1.7-0.7c0.4-0.5,0.6-1.2,0.6-2.2c0-1-0.2-1.7-0.6-2.2
			c-0.4-0.5-1-0.7-1.7-0.7c-0.7,0-1.3,0.2-1.7,0.7C624.2,151.7,624.1,152.4,624.1,153.4z"/>
		<path class="st4" d="M636.9,157.1v-4.8c0-0.6-0.1-1.1-0.4-1.4c-0.3-0.3-0.7-0.5-1.3-0.5c-0.8,0-1.4,0.2-1.7,0.6
			c-0.4,0.4-0.5,1.1-0.5,2.1v3.9h-1.1v-7.5h0.9l0.2,1h0.1c0.2-0.4,0.6-0.7,1-0.9c0.4-0.2,0.9-0.3,1.4-0.3c0.9,0,1.6,0.2,2,0.7
			c0.5,0.4,0.7,1.1,0.7,2.1v4.9H636.9z"/>
	</g>
	<g>
		<path class="st5" d="M584,256.5c-1.9,0-3.5-1.6-3.5-3.5v-72c0-1.9,1.6-3.5,3.5-3.5h192c1.9,0,3.5,1.6,3.5,3.5v72
			c0,1.9-1.6,3.5-3.5,3.5H584z"/>
		<path class="st6" d="M776,178c1.7,0,3,1.3,3,3v72c0,1.7-1.3,3-3,3H584c-1.7,0-3-1.3-3-3v-72c0-1.7,1.3-3,3-3H776 M776,177H584
			c-2.2,0-4,1.8-4,4v72c0,2.2,1.8,4,4,4h192c2.2,0,4-1.8,4-4v-72C780,178.8,778.2,177,776,177L776,177z"/>
	</g>
	<g>
		<path class="st4" d="M609.6,202.1c0,1.3-0.3,2.3-0.8,3.2c-0.5,0.8-1.2,1.4-2.2,1.7l2.4,2.5h-1.7l-1.9-2.3l-0.4,0
			c-1.5,0-2.6-0.5-3.4-1.3c-0.8-0.9-1.2-2.2-1.2-3.8c0-1.6,0.4-2.9,1.2-3.8c0.8-0.9,1.9-1.3,3.4-1.3c1.4,0,2.6,0.5,3.4,1.4
			S609.6,200.5,609.6,202.1z M601.7,202.1c0,1.4,0.3,2.4,0.9,3.1c0.6,0.7,1.4,1,2.5,1c1.1,0,1.9-0.3,2.5-1c0.6-0.7,0.8-1.7,0.8-3.1
			c0-1.3-0.3-2.4-0.8-3.1c-0.6-0.7-1.4-1-2.5-1c-1.1,0-1.9,0.3-2.5,1C601.9,199.8,601.7,200.8,601.7,202.1z"/>
		<path class="st4" d="M612.7,199.6v4.9c0,0.6,0.1,1.1,0.4,1.4c0.3,0.3,0.7,0.5,1.3,0.5c0.8,0,1.4-0.2,1.7-0.6s0.5-1.1,0.5-2.1v-3.9
			h1.1v7.5h-0.9l-0.2-1h-0.1c-0.2,0.4-0.6,0.7-1,0.8c-0.4,0.2-0.9,0.3-1.4,0.3c-0.9,0-1.6-0.2-2-0.6c-0.5-0.4-0.7-1.1-0.7-2.1v-4.9
			H612.7z"/>
		<path class="st4" d="M623.4,207.3c-1.1,0-2-0.3-2.6-1c-0.6-0.7-1-1.6-1-2.8c0-1.2,0.3-2.2,0.9-2.9s1.4-1.1,2.4-1.1
			c0.9,0,1.7,0.3,2.2,0.9s0.8,1.4,0.8,2.4v0.7H621c0,0.9,0.2,1.5,0.7,2c0.4,0.5,1,0.7,1.8,0.7c0.8,0,1.6-0.2,2.4-0.5v1
			c-0.4,0.2-0.8,0.3-1.1,0.4C624.4,207.2,623.9,207.3,623.4,207.3z M623.1,200.4c-0.6,0-1.1,0.2-1.4,0.6c-0.4,0.4-0.6,0.9-0.6,1.6
			h3.9c0-0.7-0.2-1.3-0.5-1.6C624.2,200.6,623.7,200.4,623.1,200.4z"/>
		<path class="st4" d="M633,205.1c0,0.7-0.3,1.2-0.8,1.6s-1.2,0.6-2.2,0.6c-1,0-1.8-0.2-2.3-0.5v-1.1c0.4,0.2,0.7,0.3,1.2,0.4
			c0.4,0.1,0.8,0.2,1.2,0.2c0.6,0,1-0.1,1.4-0.3c0.3-0.2,0.5-0.5,0.5-0.9c0-0.3-0.1-0.5-0.4-0.7c-0.3-0.2-0.7-0.5-1.5-0.7
			c-0.7-0.3-1.2-0.5-1.5-0.7c-0.3-0.2-0.5-0.4-0.7-0.7s-0.2-0.5-0.2-0.9c0-0.6,0.2-1.1,0.7-1.4c0.5-0.4,1.2-0.5,2-0.5
			c0.8,0,1.6,0.2,2.4,0.5l-0.4,0.9c-0.8-0.3-1.4-0.5-2-0.5c-0.5,0-0.9,0.1-1.2,0.3s-0.4,0.4-0.4,0.7c0,0.2,0.1,0.4,0.2,0.5
			s0.3,0.3,0.5,0.4c0.2,0.1,0.7,0.3,1.3,0.6c0.9,0.3,1.5,0.6,1.8,1C632.8,204.2,633,204.6,633,205.1z"/>
		<path class="st4" d="M637.2,206.3c0.2,0,0.4,0,0.6,0c0.2,0,0.3-0.1,0.4-0.1v0.9c-0.1,0.1-0.3,0.1-0.5,0.1c-0.2,0-0.5,0.1-0.6,0.1
			c-1.4,0-2.2-0.8-2.2-2.3v-4.5h-1.1V200l1.1-0.5l0.5-1.6h0.7v1.7h2.2v0.9H636v4.4c0,0.5,0.1,0.8,0.3,1
			C636.6,206.2,636.9,206.3,637.2,206.3z"/>
		<path class="st4" d="M639.7,197.6c0-0.3,0.1-0.5,0.2-0.6c0.1-0.1,0.3-0.2,0.5-0.2c0.2,0,0.3,0.1,0.5,0.2c0.1,0.1,0.2,0.3,0.2,0.6
			s-0.1,0.4-0.2,0.6c-0.1,0.1-0.3,0.2-0.5,0.2c-0.2,0-0.4-0.1-0.5-0.2C639.7,198,639.7,197.9,639.7,197.6z M640.9,207.1h-1.1v-7.5
			h1.1V207.1z"/>
		<path class="st4" d="M649.8,203.4c0,1.2-0.3,2.2-0.9,2.9c-0.6,0.7-1.5,1-2.5,1c-0.7,0-1.3-0.2-1.8-0.5s-0.9-0.8-1.2-1.4
			c-0.3-0.6-0.4-1.3-0.4-2.1c0-1.2,0.3-2.2,0.9-2.9c0.6-0.7,1.5-1,2.5-1c1,0,1.9,0.3,2.5,1C649.5,201.2,649.8,202.2,649.8,203.4z
			 M644.1,203.4c0,1,0.2,1.7,0.6,2.2s0.9,0.8,1.7,0.8c0.7,0,1.3-0.2,1.7-0.7c0.4-0.5,0.6-1.2,0.6-2.2c0-1-0.2-1.7-0.6-2.2
			c-0.4-0.5-1-0.7-1.7-0.7c-0.7,0-1.3,0.2-1.7,0.7C644.2,201.7,644.1,202.4,644.1,203.4z"/>
		<path class="st4" d="M656.9,207.1v-4.8c0-0.6-0.1-1.1-0.4-1.4c-0.3-0.3-0.7-0.5-1.3-0.5c-0.8,0-1.4,0.2-1.7,0.6
			c-0.4,0.4-0.5,1.1-0.5,2.1v3.9h-1.1v-7.5h0.9l0.2,1h0.1c0.2-0.4,0.6-0.7,1-0.9c0.4-0.2,0.9-0.3,1.4-0.3c0.9,0,1.6,0.2,2,0.7
			c0.5,0.4,0.7,1.1,0.7,2.1v4.9H656.9z"/>
	</g>
	<g>
		<path class="st4" d="M609.6,232.1c0,1.3-0.3,2.3-0.8,3.2c-0.5,0.8-1.2,1.4-2.2,1.7l2.4,2.5h-1.7l-1.9-2.3l-0.4,0
			c-1.5,0-2.6-0.5-3.4-1.3c-0.8-0.9-1.2-2.2-1.2-3.8c0-1.6,0.4-2.9,1.2-3.8c0.8-0.9,1.9-1.3,3.4-1.3c1.4,0,2.6,0.5,3.4,1.4
			S609.6,230.5,609.6,232.1z M601.7,232.1c0,1.4,0.3,2.4,0.9,3.1c0.6,0.7,1.4,1,2.5,1c1.1,0,1.9-0.3,2.5-1c0.6-0.7,0.8-1.7,0.8-3.1
			c0-1.3-0.3-2.4-0.8-3.1c-0.6-0.7-1.4-1-2.5-1c-1.1,0-1.9,0.3-2.5,1C601.9,229.8,601.7,230.8,601.7,232.1z"/>
		<path class="st4" d="M612.7,229.6v4.9c0,0.6,0.1,1.1,0.4,1.4c0.3,0.3,0.7,0.5,1.3,0.5c0.8,0,1.4-0.2,1.7-0.6s0.5-1.1,0.5-2.1v-3.9
			h1.1v7.5h-0.9l-0.2-1h-0.1c-0.2,0.4-0.6,0.7-1,0.8c-0.4,0.2-0.9,0.3-1.4,0.3c-0.9,0-1.6-0.2-2-0.6c-0.5-0.4-0.7-1.1-0.7-2.1v-4.9
			H612.7z"/>
		<path class="st4" d="M623.4,237.3c-1.1,0-2-0.3-2.6-1c-0.6-0.7-1-1.6-1-2.8c0-1.2,0.3-2.2,0.9-2.9s1.4-1.1,2.4-1.1
			c0.9,0,1.7,0.3,2.2,0.9s0.8,1.4,0.8,2.4v0.7H621c0,0.9,0.2,1.5,0.7,2c0.4,0.5,1,0.7,1.8,0.7c0.8,0,1.6-0.2,2.4-0.5v1
			c-0.4,0.2-0.8,0.3-1.1,0.4C624.4,237.2,623.9,237.3,623.4,237.3z M623.1,230.4c-0.6,0-1.1,0.2-1.4,0.6c-0.4,0.4-0.6,0.9-0.6,1.6
			h3.9c0-0.7-0.2-1.3-0.5-1.6C624.2,230.6,623.7,230.4,623.1,230.4z"/>
		<path class="st4" d="M633,235.1c0,0.7-0.3,1.2-0.8,1.6s-1.2,0.6-2.2,0.6c-1,0-1.8-0.2-2.3-0.5v-1.1c0.4,0.2,0.7,0.3,1.2,0.4
			c0.4,0.1,0.8,0.2,1.2,0.2c0.6,0,1-0.1,1.4-0.3c0.3-0.2,0.5-0.5,0.5-0.9c0-0.3-0.1-0.5-0.4-0.7c-0.3-0.2-0.7-0.5-1.5-0.7
			c-0.7-0.3-1.2-0.5-1.5-0.7c-0.3-0.2-0.5-0.4-0.7-0.7s-0.2-0.5-0.2-0.9c0-0.6,0.2-1.1,0.7-1.4c0.5-0.4,1.2-0.5,2-0.5
			c0.8,0,1.6,0.2,2.4,0.5l-0.4,0.9c-0.8-0.3-1.4-0.5-2-0.5c-0.5,0-0.9,0.1-1.2,0.3s-0.4,0.4-0.4,0.7c0,0.2,0.1,0.4,0.2,0.5
			s0.3,0.3,0.5,0.4c0.2,0.1,0.7,0.3,1.3,0.6c0.9,0.3,1.5,0.6,1.8,1C632.8,234.2,633,234.6,633,235.1z"/>
		<path class="st4" d="M637.2,236.3c0.2,0,0.4,0,0.6,0c0.2,0,0.3-0.1,0.4-0.1v0.9c-0.1,0.1-0.3,0.1-0.5,0.1c-0.2,0-0.5,0.1-0.6,0.1
			c-1.4,0-2.2-0.8-2.2-2.3v-4.5h-1.1V230l1.1-0.5l0.5-1.6h0.7v1.7h2.2v0.9H636v4.4c0,0.5,0.1,0.8,0.3,1
			C636.6,236.2,636.9,236.3,637.2,236.3z"/>
		<path class="st4" d="M639.7,227.6c0-0.3,0.1-0.5,0.2-0.6c0.1-0.1,0.3-0.2,0.5-0.2c0.2,0,0.3,0.1,0.5,0.2c0.1,0.1,0.2,0.3,0.2,0.6
			s-0.1,0.4-0.2,0.6c-0.1,0.1-0.3,0.2-0.5,0.2c-0.2,0-0.4-0.1-0.5-0.2C639.7,228,639.7,227.9,639.7,227.6z M640.9,237.1h-1.1v-7.5
			h1.1V237.1z"/>
		<path class="st4" d="M649.8,233.4c0,1.2-0.3,2.2-0.9,2.9c-0.6,0.7-1.5,1-2.5,1c-0.7,0-1.3-0.2-1.8-0.5s-0.9-0.8-1.2-1.4
			c-0.3-0.6-0.4-1.3-0.4-2.1c0-1.2,0.3-2.2,0.9-2.9c0.6-0.7,1.5-1,2.5-1c1,0,1.9,0.3,2.5,1C649.5,231.2,649.8,232.2,649.8,233.4z
			 M644.1,233.4c0,1,0.2,1.7,0.6,2.2s0.9,0.8,1.7,0.8c0.7,0,1.3-0.2,1.7-0.7c0.4-0.5,0.6-1.2,0.6-2.2c0-1-0.2-1.7-0.6-2.2
			c-0.4-0.5-1-0.7-1.7-0.7c-0.7,0-1.3,0.2-1.7,0.7C644.2,231.7,644.1,232.4,644.1,233.4z"/>
		<path class="st4" d="M656.9,237.1v-4.8c0-0.6-0.1-1.1-0.4-1.4c-0.3-0.3-0.7-0.5-1.3-0.5c-0.8,0-1.4,0.2-1.7,0.6
			c-0.4,0.4-0.5,1.1-0.5,2.1v3.9h-1.1v-7.5h0.9l0.2,1h0.1c0.2-0.4,0.6-0.7,1-0.9c0.4-0.2,0.9-0.3,1.4-0.3c0.9,0,1.6,0.2,2,0.7
			c0.5,0.4,0.7,1.1,0.7,2.1v4.9H656.9z"/>
	</g>
	<g>
		<path class="st2" d="M278,256.5c-4.1,0-7.5-3.4-7.5-7.5V85c0-4.1,3.4-7.5,7.5-7.5h184c4.1,0,7.5,3.4,7.5,7.5v164
			c0,4.1-3.4,7.5-7.5,7.5H278z"/>
		<path class="st3" d="M462,78c3.9,0,7,3.1,7,7v164c0,3.9-3.1,7-7,7H278c-3.9,0-7-3.1-7-7V85c0-3.9,3.1-7,7-7H462 M462,77H278
			c-4.4,0-8,3.6-8,8v164c0,4.4,3.6,8,8,8h184c4.4,0,8-3.6,8-8V85C470,80.6,466.4,77,462,77L462,77z"/>
	</g>
	<g>
		<path class="st4" d="M299.6,102.1c0,1.3-0.3,2.3-0.8,3.2s-1.2,1.4-2.2,1.7l2.4,2.5h-1.7l-1.9-2.3l-0.4,0c-1.5,0-2.6-0.5-3.4-1.3
			c-0.8-0.9-1.2-2.2-1.2-3.8c0-1.6,0.4-2.9,1.2-3.8s1.9-1.3,3.4-1.3c1.4,0,2.6,0.5,3.4,1.4S299.6,100.5,299.6,102.1z M291.7,102.1
			c0,1.4,0.3,2.4,0.9,3.1c0.6,0.7,1.4,1,2.5,1c1.1,0,1.9-0.3,2.5-1s0.8-1.7,0.8-3.1c0-1.3-0.3-2.4-0.8-3.1s-1.4-1-2.5-1
			c-1.1,0-1.9,0.3-2.5,1S291.7,100.8,291.7,102.1z"/>
		<path class="st4" d="M302.7,99.6v4.9c0,0.6,0.1,1.1,0.4,1.4s0.7,0.5,1.3,0.5c0.8,0,1.4-0.2,1.7-0.6s0.5-1.1,0.5-2.1v-3.9h1.1v7.5
			h-0.9l-0.2-1h-0.1c-0.2,0.4-0.6,0.7-1,0.8s-0.9,0.3-1.4,0.3c-0.9,0-1.6-0.2-2-0.6s-0.7-1.1-0.7-2.1v-4.9H302.7z"/>
		<path class="st4" d="M313.4,107.3c-1.1,0-2-0.3-2.6-1s-1-1.6-1-2.8c0-1.2,0.3-2.2,0.9-2.9s1.4-1.1,2.4-1.1c0.9,0,1.7,0.3,2.2,0.9
			s0.8,1.4,0.8,2.4v0.7H311c0,0.9,0.2,1.5,0.7,2s1,0.7,1.8,0.7c0.8,0,1.6-0.2,2.4-0.5v1c-0.4,0.2-0.8,0.3-1.1,0.4
			C314.4,107.2,313.9,107.3,313.4,107.3z M313.1,100.4c-0.6,0-1.1,0.2-1.4,0.6s-0.6,0.9-0.6,1.6h3.9c0-0.7-0.2-1.3-0.5-1.6
			C314.2,100.6,313.7,100.4,313.1,100.4z"/>
		<path class="st4" d="M323,105.1c0,0.7-0.3,1.2-0.8,1.6s-1.2,0.6-2.2,0.6c-1,0-1.8-0.2-2.3-0.5v-1.1c0.4,0.2,0.7,0.3,1.2,0.4
			s0.8,0.2,1.2,0.2c0.6,0,1-0.1,1.4-0.3c0.3-0.2,0.5-0.5,0.5-0.9c0-0.3-0.1-0.5-0.4-0.7c-0.3-0.2-0.7-0.5-1.5-0.7
			c-0.7-0.3-1.2-0.5-1.5-0.7c-0.3-0.2-0.5-0.4-0.7-0.7s-0.2-0.5-0.2-0.9c0-0.6,0.2-1.1,0.7-1.4s1.2-0.5,2-0.5c0.8,0,1.6,0.2,2.4,0.5
			l-0.4,0.9c-0.8-0.3-1.4-0.5-2-0.5c-0.5,0-0.9,0.1-1.2,0.3s-0.4,0.4-0.4,0.7c0,0.2,0.1,0.4,0.2,0.5s0.3,0.3,0.5,0.4
			s0.7,0.3,1.3,0.6c0.9,0.3,1.5,0.6,1.8,1S323,104.6,323,105.1z"/>
		<path class="st4" d="M327.2,106.3c0.2,0,0.4,0,0.6,0c0.2,0,0.3-0.1,0.4-0.1v0.9c-0.1,0.1-0.3,0.1-0.5,0.1c-0.2,0-0.5,0.1-0.6,0.1
			c-1.4,0-2.2-0.8-2.2-2.3v-4.5h-1.1V100l1.1-0.5l0.5-1.6h0.7v1.7h2.2v0.9H326v4.4c0,0.5,0.1,0.8,0.3,1S326.9,106.3,327.2,106.3z"/>
		<path class="st4" d="M329.7,97.6c0-0.3,0.1-0.5,0.2-0.6s0.3-0.2,0.5-0.2c0.2,0,0.3,0.1,0.5,0.2s0.2,0.3,0.2,0.6s-0.1,0.4-0.2,0.6
			s-0.3,0.2-0.5,0.2c-0.2,0-0.4-0.1-0.5-0.2S329.7,97.9,329.7,97.6z M330.9,107.1h-1.1v-7.5h1.1V107.1z"/>
		<path class="st4" d="M339.8,103.4c0,1.2-0.3,2.2-0.9,2.9c-0.6,0.7-1.5,1-2.5,1c-0.7,0-1.3-0.2-1.8-0.5s-0.9-0.8-1.2-1.4
			s-0.4-1.3-0.4-2.1c0-1.2,0.3-2.2,0.9-2.9c0.6-0.7,1.5-1,2.5-1c1,0,1.9,0.3,2.5,1S339.8,102.2,339.8,103.4z M334.1,103.4
			c0,1,0.2,1.7,0.6,2.2s0.9,0.8,1.7,0.8s1.3-0.2,1.7-0.7c0.4-0.5,0.6-1.2,0.6-2.2c0-1-0.2-1.7-0.6-2.2c-0.4-0.5-1-0.7-1.7-0.7
			c-0.7,0-1.3,0.2-1.7,0.7C334.2,101.7,334.1,102.4,334.1,103.4z"/>
		<path class="st4" d="M346.9,107.1v-4.8c0-0.6-0.1-1.1-0.4-1.4s-0.7-0.5-1.3-0.5c-0.8,0-1.4,0.2-1.7,0.6s-0.5,1.1-0.5,2.1v3.9h-1.1
			v-7.5h0.9l0.2,1h0.1c0.2-0.4,0.6-0.7,1-0.9s0.9-0.3,1.4-0.3c0.9,0,1.6,0.2,2,0.7s0.7,1.1,0.7,2.1v4.9H346.9z"/>
	</g>
	<g>
		<path class="st5" d="M294,236.5c-1.9,0-3.5-1.6-3.5-3.5V131c0-1.9,1.6-3.5,3.5-3.5h152c1.9,0,3.5,1.6,3.5,3.5v102
			c0,1.9-1.6,3.5-3.5,3.5H294z"/>
		<path class="st6" d="M446,128c1.7,0,3,1.3,3,3v102c0,1.7-1.3,3-3,3H294c-1.7,0-3-1.3-3-3V131c0-1.7,1.3-3,3-3H446 M446,127H294
			c-2.2,0-4,1.8-4,4v102c0,2.2,1.8,4,4,4h152c2.2,0,4-1.8,4-4V131C450,128.8,448.2,127,446,127L446,127z"/>
	</g>
	<g>
		<path class="st4" d="M319.6,152.1c0,1.3-0.3,2.3-0.8,3.2s-1.2,1.4-2.2,1.7l2.4,2.5h-1.7l-1.9-2.3l-0.4,0c-1.5,0-2.6-0.5-3.4-1.3
			c-0.8-0.9-1.2-2.2-1.2-3.8c0-1.6,0.4-2.9,1.2-3.8s1.9-1.3,3.4-1.3c1.4,0,2.6,0.5,3.4,1.4S319.6,150.5,319.6,152.1z M311.7,152.1
			c0,1.4,0.3,2.4,0.9,3.1c0.6,0.7,1.4,1,2.5,1c1.1,0,1.9-0.3,2.5-1s0.8-1.7,0.8-3.1c0-1.3-0.3-2.4-0.8-3.1s-1.4-1-2.5-1
			c-1.1,0-1.9,0.3-2.5,1S311.7,150.8,311.7,152.1z"/>
		<path class="st4" d="M322.7,149.6v4.9c0,0.6,0.1,1.1,0.4,1.4s0.7,0.5,1.3,0.5c0.8,0,1.4-0.2,1.7-0.6s0.5-1.1,0.5-2.1v-3.9h1.1v7.5
			h-0.9l-0.2-1h-0.1c-0.2,0.4-0.6,0.7-1,0.8s-0.9,0.3-1.4,0.3c-0.9,0-1.6-0.2-2-0.6s-0.7-1.1-0.7-2.1v-4.9H322.7z"/>
		<path class="st4" d="M333.4,157.3c-1.1,0-2-0.3-2.6-1s-1-1.6-1-2.8c0-1.2,0.3-2.2,0.9-2.9s1.4-1.1,2.4-1.1c0.9,0,1.7,0.3,2.2,0.9
			s0.8,1.4,0.8,2.4v0.7H331c0,0.9,0.2,1.5,0.7,2s1,0.7,1.8,0.7c0.8,0,1.6-0.2,2.4-0.5v1c-0.4,0.2-0.8,0.3-1.1,0.4
			C334.4,157.2,333.9,157.3,333.4,157.3z M333.1,150.4c-0.6,0-1.1,0.2-1.4,0.6s-0.6,0.9-0.6,1.6h3.9c0-0.7-0.2-1.3-0.5-1.6
			C334.2,150.6,333.7,150.4,333.1,150.4z"/>
		<path class="st4" d="M343,155.1c0,0.7-0.3,1.2-0.8,1.6s-1.2,0.6-2.2,0.6c-1,0-1.8-0.2-2.3-0.5v-1.1c0.4,0.2,0.7,0.3,1.2,0.4
			s0.8,0.2,1.2,0.2c0.6,0,1-0.1,1.4-0.3c0.3-0.2,0.5-0.5,0.5-0.9c0-0.3-0.1-0.5-0.4-0.7c-0.3-0.2-0.7-0.5-1.5-0.7
			c-0.7-0.3-1.2-0.5-1.5-0.7c-0.3-0.2-0.5-0.4-0.7-0.7s-0.2-0.5-0.2-0.9c0-0.6,0.2-1.1,0.7-1.4s1.2-0.5,2-0.5c0.8,0,1.6,0.2,2.4,0.5
			l-0.4,0.9c-0.8-0.3-1.4-0.5-2-0.5c-0.5,0-0.9,0.1-1.2,0.3s-0.4,0.4-0.4,0.7c0,0.2,0.1,0.4,0.2,0.5s0.3,0.3,0.5,0.4
			s0.7,0.3,1.3,0.6c0.9,0.3,1.5,0.6,1.8,1S343,154.6,343,155.1z"/>
		<path class="st4" d="M347.2,156.3c0.2,0,0.4,0,0.6,0c0.2,0,0.3-0.1,0.4-0.1v0.9c-0.1,0.1-0.3,0.1-0.5,0.1c-0.2,0-0.5,0.1-0.6,0.1
			c-1.4,0-2.2-0.8-2.2-2.3v-4.5h-1.1V150l1.1-0.5l0.5-1.6h0.7v1.7h2.2v0.9H346v4.4c0,0.5,0.1,0.8,0.3,1S346.9,156.3,347.2,156.3z"/>
		<path class="st4" d="M349.7,147.6c0-0.3,0.1-0.5,0.2-0.6s0.3-0.2,0.5-0.2c0.2,0,0.3,0.1,0.5,0.2s0.2,0.3,0.2,0.6s-0.1,0.4-0.2,0.6
			s-0.3,0.2-0.5,0.2c-0.2,0-0.4-0.1-0.5-0.2S349.7,147.9,349.7,147.6z M350.9,157.1h-1.1v-7.5h1.1V157.1z"/>
		<path class="st4" d="M359.8,153.4c0,1.2-0.3,2.2-0.9,2.9c-0.6,0.7-1.5,1-2.5,1c-0.7,0-1.3-0.2-1.8-0.5s-0.9-0.8-1.2-1.4
			s-0.4-1.3-0.4-2.1c0-1.2,0.3-2.2,0.9-2.9c0.6-0.7,1.5-1,2.5-1c1,0,1.9,0.3,2.5,1S359.8,152.2,359.8,153.4z M354.1,153.4
			c0,1,0.2,1.7,0.6,2.2s0.9,0.8,1.7,0.8s1.3-0.2,1.7-0.7c0.4-0.5,0.6-1.2,0.6-2.2c0-1-0.2-1.7-0.6-2.2c-0.4-0.5-1-0.7-1.7-0.7
			c-0.7,0-1.3,0.2-1.7,0.7C354.2,151.7,354.1,152.4,354.1,153.4z"/>
		<path class="st4" d="M366.9,157.1v-4.8c0-0.6-0.1-1.1-0.4-1.4s-0.7-0.5-1.3-0.5c-0.8,0-1.4,0.2-1.7,0.6s-0.5,1.1-0.5,2.1v3.9h-1.1
			v-7.5h0.9l0.2,1h0.1c0.2-0.4,0.6-0.7,1-0.9s0.9-0.3,1.4-0.3c0.9,0,1.6,0.2,2,0.7s0.7,1.1,0.7,2.1v4.9H366.9z"/>
	</g>
	<g>
		<path class="st4" d="M319.6,182.1c0,1.3-0.3,2.3-0.8,3.2s-1.2,1.4-2.2,1.7l2.4,2.5h-1.7l-1.9-2.3l-0.4,0c-1.5,0-2.6-0.5-3.4-1.3
			c-0.8-0.9-1.2-2.2-1.2-3.8c0-1.6,0.4-2.9,1.2-3.8s1.9-1.3,3.4-1.3c1.4,0,2.6,0.5,3.4,1.4S319.6,180.5,319.6,182.1z M311.7,182.1
			c0,1.4,0.3,2.4,0.9,3.1c0.6,0.7,1.4,1,2.5,1c1.1,0,1.9-0.3,2.5-1s0.8-1.7,0.8-3.1c0-1.3-0.3-2.4-0.8-3.1s-1.4-1-2.5-1
			c-1.1,0-1.9,0.3-2.5,1S311.7,180.8,311.7,182.1z"/>
		<path class="st4" d="M322.7,179.6v4.9c0,0.6,0.1,1.1,0.4,1.4s0.7,0.5,1.3,0.5c0.8,0,1.4-0.2,1.7-0.6s0.5-1.1,0.5-2.1v-3.9h1.1v7.5
			h-0.9l-0.2-1h-0.1c-0.2,0.4-0.6,0.7-1,0.8s-0.9,0.3-1.4,0.3c-0.9,0-1.6-0.2-2-0.6s-0.7-1.1-0.7-2.1v-4.9H322.7z"/>
		<path class="st4" d="M333.4,187.3c-1.1,0-2-0.3-2.6-1s-1-1.6-1-2.8c0-1.2,0.3-2.2,0.9-2.9s1.4-1.1,2.4-1.1c0.9,0,1.7,0.3,2.2,0.9
			s0.8,1.4,0.8,2.4v0.7H331c0,0.9,0.2,1.5,0.7,2s1,0.7,1.8,0.7c0.8,0,1.6-0.2,2.4-0.5v1c-0.4,0.2-0.8,0.3-1.1,0.4
			C334.4,187.2,333.9,187.3,333.4,187.3z M333.1,180.4c-0.6,0-1.1,0.2-1.4,0.6s-0.6,0.9-0.6,1.6h3.9c0-0.7-0.2-1.3-0.5-1.6
			C334.2,180.6,333.7,180.4,333.1,180.4z"/>
		<path class="st4" d="M343,185.1c0,0.7-0.3,1.2-0.8,1.6s-1.2,0.6-2.2,0.6c-1,0-1.8-0.2-2.3-0.5v-1.1c0.4,0.2,0.7,0.3,1.2,0.4
			s0.8,0.2,1.2,0.2c0.6,0,1-0.1,1.4-0.3c0.3-0.2,0.5-0.5,0.5-0.9c0-0.3-0.1-0.5-0.4-0.7c-0.3-0.2-0.7-0.5-1.5-0.7
			c-0.7-0.3-1.2-0.5-1.5-0.7c-0.3-0.2-0.5-0.4-0.7-0.7s-0.2-0.5-0.2-0.9c0-0.6,0.2-1.1,0.7-1.4s1.2-0.5,2-0.5c0.8,0,1.6,0.2,2.4,0.5
			l-0.4,0.9c-0.8-0.3-1.4-0.5-2-0.5c-0.5,0-0.9,0.1-1.2,0.3s-0.4,0.4-0.4,0.7c0,0.2,0.1,0.4,0.2,0.5s0.3,0.3,0.5,0.4
			s0.7,0.3,1.3,0.6c0.9,0.3,1.5,0.6,1.8,1S343,184.6,343,185.1z"/>
		<path class="st4" d="M347.2,186.3c0.2,0,0.4,0,0.6,0c0.2,0,0.3-0.1,0.4-0.1v0.9c-0.1,0.1-0.3,0.1-0.5,0.1c-0.2,0-0.5,0.1-0.6,0.1
			c-1.4,0-2.2-0.8-2.2-2.3v-4.5h-1.1V180l1.1-0.5l0.5-1.6h0.7v1.7h2.2v0.9H346v4.4c0,0.5,0.1,0.8,0.3,1S346.9,186.3,347.2,186.3z"/>
		<path class="st4" d="M349.7,177.6c0-0.3,0.1-0.5,0.2-0.6s0.3-0.2,0.5-0.2c0.2,0,0.3,0.1,0.5,0.2s0.2,0.3,0.2,0.6s-0.1,0.4-0.2,0.6
			s-0.3,0.2-0.5,0.2c-0.2,0-0.4-0.1-0.5-0.2S349.7,177.9,349.7,177.6z M350.9,187.1h-1.1v-7.5h1.1V187.1z"/>
		<path class="st4" d="M359.8,183.4c0,1.2-0.3,2.2-0.9,2.9c-0.6,0.7-1.5,1-2.5,1c-0.7,0-1.3-0.2-1.8-0.5s-0.9-0.8-1.2-1.4
			s-0.4-1.3-0.4-2.1c0-1.2,0.3-2.2,0.9-2.9c0.6-0.7,1.5-1,2.5-1c1,0,1.9,0.3,2.5,1S359.8,182.2,359.8,183.4z M354.1,183.4
			c0,1,0.2,1.7,0.6,2.2s0.9,0.8,1.7,0.8s1.3-0.2,1.7-0.7c0.4-0.5,0.6-1.2,0.6-2.2c0-1-0.2-1.7-0.6-2.2c-0.4-0.5-1-0.7-1.7-0.7
			c-0.7,0-1.3,0.2-1.7,0.7C354.2,181.7,354.1,182.4,354.1,183.4z"/>
		<path class="st4" d="M366.9,187.1v-4.8c0-0.6-0.1-1.1-0.4-1.4s-0.7-0.5-1.3-0.5c-0.8,0-1.4,0.2-1.7,0.6s-0.5,1.1-0.5,2.1v3.9h-1.1
			v-7.5h0.9l0.2,1h0.1c0.2-0.4,0.6-0.7,1-0.9s0.9-0.3,1.4-0.3c0.9,0,1.6,0.2,2,0.7s0.7,1.1,0.7,2.1v4.9H366.9z"/>
	</g>
	<g>
		<path class="st4" d="M319.6,212.1c0,1.3-0.3,2.3-0.8,3.2s-1.2,1.4-2.2,1.7l2.4,2.5h-1.7l-1.9-2.3l-0.4,0c-1.5,0-2.6-0.5-3.4-1.3
			c-0.8-0.9-1.2-2.2-1.2-3.8c0-1.6,0.4-2.9,1.2-3.8s1.9-1.3,3.4-1.3c1.4,0,2.6,0.5,3.4,1.4S319.6,210.5,319.6,212.1z M311.7,212.1
			c0,1.4,0.3,2.4,0.9,3.1c0.6,0.7,1.4,1,2.5,1c1.1,0,1.9-0.3,2.5-1s0.8-1.7,0.8-3.1c0-1.3-0.3-2.4-0.8-3.1s-1.4-1-2.5-1
			c-1.1,0-1.9,0.3-2.5,1S311.7,210.8,311.7,212.1z"/>
		<path class="st4" d="M322.7,209.6v4.9c0,0.6,0.1,1.1,0.4,1.4s0.7,0.5,1.3,0.5c0.8,0,1.4-0.2,1.7-0.6s0.5-1.1,0.5-2.1v-3.9h1.1v7.5
			h-0.9l-0.2-1h-0.1c-0.2,0.4-0.6,0.7-1,0.8s-0.9,0.3-1.4,0.3c-0.9,0-1.6-0.2-2-0.6s-0.7-1.1-0.7-2.1v-4.9H322.7z"/>
		<path class="st4" d="M333.4,217.3c-1.1,0-2-0.3-2.6-1s-1-1.6-1-2.8c0-1.2,0.3-2.2,0.9-2.9s1.4-1.1,2.4-1.1c0.9,0,1.7,0.3,2.2,0.9
			s0.8,1.4,0.8,2.4v0.7H331c0,0.9,0.2,1.5,0.7,2s1,0.7,1.8,0.7c0.8,0,1.6-0.2,2.4-0.5v1c-0.4,0.2-0.8,0.3-1.1,0.4
			C334.4,217.2,333.9,217.3,333.4,217.3z M333.1,210.4c-0.6,0-1.1,0.2-1.4,0.6s-0.6,0.9-0.6,1.6h3.9c0-0.7-0.2-1.3-0.5-1.6
			C334.2,210.6,333.7,210.4,333.1,210.4z"/>
		<path class="st4" d="M343,215.1c0,0.7-0.3,1.2-0.8,1.6s-1.2,0.6-2.2,0.6c-1,0-1.8-0.2-2.3-0.5v-1.1c0.4,0.2,0.7,0.3,1.2,0.4
			s0.8,0.2,1.2,0.2c0.6,0,1-0.1,1.4-0.3c0.3-0.2,0.5-0.5,0.5-0.9c0-0.3-0.1-0.5-0.4-0.7c-0.3-0.2-0.7-0.5-1.5-0.7
			c-0.7-0.3-1.2-0.5-1.5-0.7c-0.3-0.2-0.5-0.4-0.7-0.7s-0.2-0.5-0.2-0.9c0-0.6,0.2-1.1,0.7-1.4s1.2-0.5,2-0.5c0.8,0,1.6,0.2,2.4,0.5
			l-0.4,0.9c-0.8-0.3-1.4-0.5-2-0.5c-0.5,0-0.9,0.1-1.2,0.3s-0.4,0.4-0.4,0.7c0,0.2,0.1,0.4,0.2,0.5s0.3,0.3,0.5,0.4
			s0.7,0.3,1.3,0.6c0.9,0.3,1.5,0.6,1.8,1S343,214.6,343,215.1z"/>
		<path class="st4" d="M347.2,216.3c0.2,0,0.4,0,0.6,0c0.2,0,0.3-0.1,0.4-0.1v0.9c-0.1,0.1-0.3,0.1-0.5,0.1c-0.2,0-0.5,0.1-0.6,0.1
			c-1.4,0-2.2-0.8-2.2-2.3v-4.5h-1.1V210l1.1-0.5l0.5-1.6h0.7v1.7h2.2v0.9H346v4.4c0,0.5,0.1,0.8,0.3,1S346.9,216.3,347.2,216.3z"/>
		<path class="st4" d="M349.7,207.6c0-0.3,0.1-0.5,0.2-0.6s0.3-0.2,0.5-0.2c0.2,0,0.3,0.1,0.5,0.2s0.2,0.3,0.2,0.6s-0.1,0.4-0.2,0.6
			s-0.3,0.2-0.5,0.2c-0.2,0-0.4-0.1-0.5-0.2S349.7,207.9,349.7,207.6z M350.9,217.1h-1.1v-7.5h1.1V217.1z"/>
		<path class="st4" d="M359.8,213.4c0,1.2-0.3,2.2-0.9,2.9c-0.6,0.7-1.5,1-2.5,1c-0.7,0-1.3-0.2-1.8-0.5s-0.9-0.8-1.2-1.4
			s-0.4-1.3-0.4-2.1c0-1.2,0.3-2.2,0.9-2.9c0.6-0.7,1.5-1,2.5-1c1,0,1.9,0.3,2.5,1S359.8,212.2,359.8,213.4z M354.1,213.4
			c0,1,0.2,1.7,0.6,2.2s0.9,0.8,1.7,0.8s1.3-0.2,1.7-0.7c0.4-0.5,0.6-1.2,0.6-2.2c0-1-0.2-1.7-0.6-2.2c-0.4-0.5-1-0.7-1.7-0.7
			c-0.7,0-1.3,0.2-1.7,0.7C354.2,211.7,354.1,212.4,354.1,213.4z"/>
		<path class="st4" d="M366.9,217.1v-4.8c0-0.6-0.1-1.1-0.4-1.4s-0.7-0.5-1.3-0.5c-0.8,0-1.4,0.2-1.7,0.6s-0.5,1.1-0.5,2.1v3.9h-1.1
			v-7.5h0.9l0.2,1h0.1c0.2-0.4,0.6-0.7,1-0.9s0.9-0.3,1.4-0.3c0.9,0,1.6,0.2,2,0.7s0.7,1.1,0.7,2.1v4.9H366.9z"/>
	</g>
	<g>
		<path class="st2" d="M48,216.5c-4.1,0-7.5-3.4-7.5-7.5V85c0-4.1,3.4-7.5,7.5-7.5h184c4.1,0,7.5,3.4,7.5,7.5v124
			c0,4.1-3.4,7.5-7.5,7.5H48z"/>
		<path class="st3" d="M232,78c3.9,0,7,3.1,7,7v124c0,3.9-3.1,7-7,7H48c-3.9,0-7-3.1-7-7V85c0-3.9,3.1-7,7-7H232 M232,77H48
			c-4.4,0-8,3.6-8,8v124c0,4.4,3.6,8,8,8h184c4.4,0,8-3.6,8-8V85C240,80.6,236.4,77,232,77L232,77z"/>
	</g>
	<g>
		<path class="st4" d="M69.6,102.1c0,1.3-0.3,2.3-0.8,3.2s-1.2,1.4-2.2,1.7l2.4,2.5h-1.7l-1.9-2.3l-0.4,0c-1.5,0-2.6-0.5-3.4-1.3
			c-0.8-0.9-1.2-2.2-1.2-3.8c0-1.6,0.4-2.9,1.2-3.8s1.9-1.3,3.4-1.3c1.4,0,2.6,0.5,3.4,1.4S69.6,100.5,69.6,102.1z M61.7,102.1
			c0,1.4,0.3,2.4,0.9,3.1c0.6,0.7,1.4,1,2.5,1c1.1,0,1.9-0.3,2.5-1s0.8-1.7,0.8-3.1c0-1.3-0.3-2.4-0.8-3.1s-1.4-1-2.5-1
			c-1.1,0-1.9,0.3-2.5,1S61.7,100.8,61.7,102.1z"/>
		<path class="st4" d="M72.7,99.6v4.9c0,0.6,0.1,1.1,0.4,1.4s0.7,0.5,1.3,0.5c0.8,0,1.4-0.2,1.7-0.6s0.5-1.1,0.5-2.1v-3.9h1.1v7.5
			h-0.9l-0.2-1h-0.1c-0.2,0.4-0.6,0.7-1,0.8s-0.9,0.3-1.4,0.3c-0.9,0-1.6-0.2-2-0.6s-0.7-1.1-0.7-2.1v-4.9H72.7z"/>
		<path class="st4" d="M83.4,107.3c-1.1,0-2-0.3-2.6-1s-1-1.6-1-2.8c0-1.2,0.3-2.2,0.9-2.9s1.4-1.1,2.4-1.1c0.9,0,1.7,0.3,2.2,0.9
			s0.8,1.4,0.8,2.4v0.7H81c0,0.9,0.2,1.5,0.7,2s1,0.7,1.8,0.7c0.8,0,1.6-0.2,2.4-0.5v1c-0.4,0.2-0.8,0.3-1.1,0.4
			C84.4,107.2,83.9,107.3,83.4,107.3z M83.1,100.4c-0.6,0-1.1,0.2-1.4,0.6s-0.6,0.9-0.6,1.6H85c0-0.7-0.2-1.3-0.5-1.6
			C84.2,100.6,83.7,100.4,83.1,100.4z"/>
		<path class="st4" d="M93,105.1c0,0.7-0.3,1.2-0.8,1.6s-1.2,0.6-2.2,0.6c-1,0-1.8-0.2-2.3-0.5v-1.1c0.4,0.2,0.7,0.3,1.2,0.4
			s0.8,0.2,1.2,0.2c0.6,0,1-0.1,1.4-0.3c0.3-0.2,0.5-0.5,0.5-0.9c0-0.3-0.1-0.5-0.4-0.7c-0.3-0.2-0.7-0.5-1.5-0.7
			c-0.7-0.3-1.2-0.5-1.5-0.7c-0.3-0.2-0.5-0.4-0.7-0.7s-0.2-0.5-0.2-0.9c0-0.6,0.2-1.1,0.7-1.4s1.2-0.5,2-0.5c0.8,0,1.6,0.2,2.4,0.5
			l-0.4,0.9c-0.8-0.3-1.4-0.5-2-0.5c-0.5,0-0.9,0.1-1.2,0.3s-0.4,0.4-0.4,0.7c0,0.2,0.1,0.4,0.2,0.5s0.3,0.3,0.5,0.4
			s0.7,0.3,1.3,0.6c0.9,0.3,1.5,0.6,1.8,1S93,104.6,93,105.1z"/>
		<path class="st4" d="M97.2,106.3c0.2,0,0.4,0,0.6,0c0.2,0,0.3-0.1,0.4-0.1v0.9c-0.1,0.1-0.3,0.1-0.5,0.1c-0.2,0-0.5,0.1-0.6,0.1
			c-1.4,0-2.2-0.8-2.2-2.3v-4.5h-1.1V100l1.1-0.5l0.5-1.6H96v1.7h2.2v0.9H96v4.4c0,0.5,0.1,0.8,0.3,1S96.9,106.3,97.2,106.3z"/>
		<path class="st4" d="M99.7,97.6c0-0.3,0.1-0.5,0.2-0.6s0.3-0.2,0.5-0.2c0.2,0,0.3,0.1,0.5,0.2s0.2,0.3,0.2,0.6s-0.1,0.4-0.2,0.6
			s-0.3,0.2-0.5,0.2c-0.2,0-0.4-0.1-0.5-0.2S99.7,97.9,99.7,97.6z M100.9,107.1h-1.1v-7.5h1.1V107.1z"/>
		<path class="st4" d="M109.8,103.4c0,1.2-0.3,2.2-0.9,2.9c-0.6,0.7-1.5,1-2.5,1c-0.7,0-1.3-0.2-1.8-0.5s-0.9-0.8-1.2-1.4
			s-0.4-1.3-0.4-2.1c0-1.2,0.3-2.2,0.9-2.9c0.6-0.7,1.5-1,2.5-1c1,0,1.9,0.3,2.5,1S109.8,102.2,109.8,103.4z M104.1,103.4
			c0,1,0.2,1.7,0.6,2.2s0.9,0.8,1.7,0.8s1.3-0.2,1.7-0.7c0.4-0.5,0.6-1.2,0.6-2.2c0-1-0.2-1.7-0.6-2.2c-0.4-0.5-1-0.7-1.7-0.7
			c-0.7,0-1.3,0.2-1.7,0.7C104.2,101.7,104.1,102.4,104.1,103.4z"/>
		<path class="st4" d="M116.9,107.1v-4.8c0-0.6-0.1-1.1-0.4-1.4s-0.7-0.5-1.3-0.5c-0.8,0-1.4,0.2-1.7,0.6s-0.5,1.1-0.5,2.1v3.9h-1.1
			v-7.5h0.9l0.2,1h0.1c0.2-0.4,0.6-0.7,1-0.9s0.9-0.3,1.4-0.3c0.9,0,1.6,0.2,2,0.7s0.7,1.1,0.7,2.1v4.9H116.9z"/>
	</g>
	<g>
		<path class="st3" d="M47.7,60.2c0,1.1-0.3,1.9-1,2.5s-1.6,0.9-2.9,0.9H43v3.6h-2.1v-10H44c1.2,0,2.1,0.3,2.8,0.8
			S47.7,59.2,47.7,60.2z M43,61.8h0.7c0.7,0,1.1-0.1,1.5-0.4c0.3-0.3,0.5-0.6,0.5-1.1c0-0.5-0.1-0.9-0.4-1.1s-0.7-0.4-1.3-0.4h-1
			V61.8z"/>
		<path class="st3" d="M54.3,67.1l-0.4-1h-0.1c-0.4,0.4-0.7,0.7-1.1,0.9c-0.4,0.2-0.9,0.3-1.5,0.3c-0.7,0-1.3-0.2-1.7-0.6
			s-0.6-1-0.6-1.8c0-0.8,0.3-1.4,0.9-1.8c0.6-0.4,1.4-0.6,2.6-0.6l1.3,0V62c0-0.8-0.4-1.2-1.2-1.2c-0.6,0-1.3,0.2-2.2,0.6L49.7,60
			c0.9-0.5,1.9-0.7,2.9-0.7c1,0,1.8,0.2,2.4,0.7s0.8,1.1,0.8,2v5.1H54.3z M53.7,63.6l-0.8,0c-0.6,0-1.1,0.1-1.4,0.3
			s-0.4,0.5-0.4,0.9c0,0.6,0.3,0.9,1,0.9c0.5,0,0.9-0.1,1.2-0.4s0.4-0.6,0.4-1.1V63.6z"/>
		<path class="st3" d="M64.6,59.5v1.1l-1.2,0.3c0.2,0.3,0.3,0.7,0.3,1.1c0,0.8-0.3,1.5-0.9,1.9c-0.6,0.5-1.4,0.7-2.4,0.7l-0.4,0
			l-0.3,0c-0.2,0.2-0.3,0.3-0.3,0.5c0,0.3,0.4,0.5,1.1,0.5h1.3c0.8,0,1.5,0.2,1.9,0.5s0.7,0.9,0.7,1.6c0,0.9-0.4,1.6-1.1,2.1
			s-1.8,0.7-3.2,0.7c-1.1,0-1.9-0.2-2.4-0.6c-0.6-0.4-0.8-0.9-0.8-1.6c0-0.5,0.1-0.8,0.4-1.2s0.7-0.5,1.3-0.7
			c-0.2-0.1-0.4-0.2-0.6-0.4c-0.2-0.2-0.2-0.4-0.2-0.7c0-0.3,0.1-0.5,0.3-0.7c0.2-0.2,0.4-0.4,0.7-0.6c-0.4-0.2-0.7-0.5-1-0.8
			s-0.4-0.8-0.4-1.4c0-0.8,0.3-1.5,0.8-1.9s1.3-0.7,2.3-0.7c0.2,0,0.5,0,0.8,0.1s0.5,0.1,0.6,0.1H64.6z M58.7,68.2
			c0,0.3,0.1,0.5,0.4,0.7s0.7,0.2,1.2,0.2c0.7,0,1.3-0.1,1.8-0.3s0.6-0.5,0.6-0.8c0-0.3-0.1-0.5-0.4-0.6s-0.6-0.2-1.2-0.2H60
			c-0.4,0-0.7,0.1-1,0.3C58.8,67.7,58.7,67.9,58.7,68.2z M59.4,62c0,0.4,0.1,0.7,0.3,1s0.5,0.4,0.9,0.4c0.4,0,0.7-0.1,0.9-0.4
			s0.3-0.6,0.3-1c0-0.9-0.4-1.4-1.1-1.4C59.8,60.6,59.4,61.1,59.4,62z"/>
		<path class="st3" d="M69.3,67.3c-1.2,0-2.2-0.3-2.9-1s-1-1.6-1-2.9c0-1.3,0.3-2.3,1-3s1.5-1,2.7-1c1.1,0,1.9,0.3,2.5,0.9
			s0.9,1.5,0.9,2.5v1h-4.9c0,0.6,0.2,1.1,0.5,1.4s0.8,0.5,1.4,0.5c0.5,0,0.9,0,1.3-0.1s0.8-0.2,1.3-0.5v1.6
			c-0.4,0.2-0.8,0.3-1.2,0.4C70.4,67.2,69.9,67.3,69.3,67.3z M69,60.8c-0.4,0-0.8,0.1-1,0.4c-0.3,0.3-0.4,0.7-0.4,1.2h2.9
			c0-0.5-0.1-0.9-0.4-1.2C69.8,61,69.4,60.8,69,60.8z"/>
		<path class="st3" d="M82.4,67.1h-2.1v-5.8l0-1l0-1c-0.4,0.4-0.6,0.6-0.7,0.7L78.5,61l-1-1.3l3.2-2.6h1.7V67.1z"/>
	</g>
	<g>
		<path class="st3" d="M277.7,60.2c0,1.1-0.3,1.9-1,2.5s-1.6,0.9-2.9,0.9H273v3.6h-2.1v-10h3.2c1.2,0,2.1,0.3,2.8,0.8
			S277.7,59.2,277.7,60.2z M273,61.8h0.7c0.7,0,1.1-0.1,1.5-0.4c0.3-0.3,0.5-0.6,0.5-1.1c0-0.5-0.1-0.9-0.4-1.1s-0.7-0.4-1.3-0.4h-1
			V61.8z"/>
		<path class="st3" d="M284.3,67.1l-0.4-1h-0.1c-0.4,0.4-0.7,0.7-1.1,0.9c-0.4,0.2-0.9,0.3-1.5,0.3c-0.7,0-1.3-0.2-1.7-0.6
			s-0.6-1-0.6-1.8c0-0.8,0.3-1.4,0.9-1.8c0.6-0.4,1.4-0.6,2.6-0.6l1.3,0V62c0-0.8-0.4-1.2-1.2-1.2c-0.6,0-1.3,0.2-2.2,0.6l-0.7-1.4
			c0.9-0.5,1.9-0.7,2.9-0.7c1,0,1.8,0.2,2.4,0.7s0.8,1.1,0.8,2v5.1H284.3z M283.7,63.6l-0.8,0c-0.6,0-1.1,0.1-1.4,0.3
			s-0.4,0.5-0.4,0.9c0,0.6,0.3,0.9,1,0.9c0.5,0,0.9-0.1,1.2-0.4s0.4-0.6,0.4-1.1V63.6z"/>
		<path class="st3" d="M294.6,59.5v1.1l-1.2,0.3c0.2,0.3,0.3,0.7,0.3,1.1c0,0.8-0.3,1.5-0.9,1.9c-0.6,0.5-1.4,0.7-2.4,0.7l-0.4,0
			l-0.3,0c-0.2,0.2-0.3,0.3-0.3,0.5c0,0.3,0.4,0.5,1.1,0.5h1.3c0.8,0,1.5,0.2,1.9,0.5s0.7,0.9,0.7,1.6c0,0.9-0.4,1.6-1.1,2.1
			s-1.8,0.7-3.2,0.7c-1.1,0-1.9-0.2-2.4-0.6c-0.6-0.4-0.8-0.9-0.8-1.6c0-0.5,0.1-0.8,0.4-1.2s0.7-0.5,1.3-0.7
			c-0.2-0.1-0.4-0.2-0.6-0.4c-0.2-0.2-0.2-0.4-0.2-0.7c0-0.3,0.1-0.5,0.3-0.7c0.2-0.2,0.4-0.4,0.7-0.6c-0.4-0.2-0.7-0.5-1-0.8
			s-0.4-0.8-0.4-1.4c0-0.8,0.3-1.5,0.8-1.9s1.3-0.7,2.3-0.7c0.2,0,0.5,0,0.8,0.1s0.5,0.1,0.6,0.1H294.6z M288.7,68.2
			c0,0.3,0.1,0.5,0.4,0.7s0.7,0.2,1.2,0.2c0.7,0,1.3-0.1,1.8-0.3s0.6-0.5,0.6-0.8c0-0.3-0.1-0.5-0.4-0.6s-0.6-0.2-1.2-0.2H290
			c-0.4,0-0.7,0.1-1,0.3C288.8,67.7,288.7,67.9,288.7,68.2z M289.4,62c0,0.4,0.1,0.7,0.3,1s0.5,0.4,0.9,0.4c0.4,0,0.7-0.1,0.9-0.4
			s0.3-0.6,0.3-1c0-0.9-0.4-1.4-1.1-1.4C289.8,60.6,289.4,61.1,289.4,62z"/>
		<path class="st3" d="M299.3,67.3c-1.2,0-2.2-0.3-2.9-1s-1-1.6-1-2.9c0-1.3,0.3-2.3,1-3s1.5-1,2.7-1c1.1,0,1.9,0.3,2.5,0.9
			s0.9,1.5,0.9,2.5v1h-4.9c0,0.6,0.2,1.1,0.5,1.4s0.8,0.5,1.4,0.5c0.5,0,0.9,0,1.3-0.1s0.8-0.2,1.3-0.5v1.6
			c-0.4,0.2-0.8,0.3-1.2,0.4C300.4,67.2,299.9,67.3,299.3,67.3z M299,60.8c-0.4,0-0.8,0.1-1,0.4c-0.3,0.3-0.4,0.7-0.4,1.2h2.9
			c0-0.5-0.1-0.9-0.4-1.2C299.8,61,299.4,60.8,299,60.8z"/>
		<path class="st3" d="M314.2,67.1h-7v-1.5l2.5-2.5c0.7-0.8,1.2-1.3,1.5-1.6c0.2-0.3,0.4-0.6,0.5-0.8c0.1-0.3,0.2-0.5,0.2-0.8
			c0-0.4-0.1-0.7-0.3-0.9s-0.5-0.3-0.9-0.3c-0.4,0-0.8,0.1-1.1,0.3s-0.7,0.4-1.1,0.8l-1.1-1.4c0.5-0.4,0.9-0.7,1.2-0.9
			s0.7-0.3,1.1-0.4s0.8-0.1,1.3-0.1c0.6,0,1.2,0.1,1.7,0.3s0.9,0.5,1.1,1s0.4,0.9,0.4,1.4c0,0.5-0.1,0.9-0.2,1.3
			c-0.2,0.4-0.4,0.8-0.8,1.2s-0.9,1-1.8,1.8l-1.3,1.2v0.1h4.4V67.1z"/>
	</g>
	<g>
		<path class="st6" d="M414.1,139.2c0,0.9-0.3,1.6-0.9,2.1s-1.4,0.7-2.5,0.7H410v3h-1.8v-8.6h2.7c1,0,1.8,0.2,2.4,0.7
			S414.1,138.3,414.1,139.2z M410,140.6h0.6c0.6,0,1-0.1,1.3-0.3s0.4-0.5,0.4-1c0-0.4-0.1-0.7-0.3-0.9s-0.6-0.3-1.1-0.3H410V140.6z"
			/>
		<path class="st6" d="M419.8,145.1l-0.3-0.9h0c-0.3,0.4-0.6,0.6-0.9,0.8s-0.7,0.2-1.2,0.2c-0.6,0-1.1-0.2-1.5-0.5s-0.5-0.9-0.5-1.5
			c0-0.7,0.2-1.2,0.7-1.5s1.2-0.5,2.2-0.5l1.1,0v-0.3c0-0.7-0.3-1-1-1c-0.5,0-1.1,0.2-1.8,0.5l-0.6-1.2c0.8-0.4,1.6-0.6,2.5-0.6
			c0.9,0,1.6,0.2,2,0.6s0.7,1,0.7,1.7v4.4H419.8z M419.3,142.1l-0.7,0c-0.5,0-0.9,0.1-1.2,0.3s-0.4,0.4-0.4,0.8
			c0,0.5,0.3,0.8,0.9,0.8c0.4,0,0.7-0.1,1-0.4s0.4-0.6,0.4-0.9V142.1z"/>
		<path class="st6" d="M428.9,145.1h-1.8v-3.8c0-0.5-0.1-0.8-0.3-1.1s-0.4-0.4-0.8-0.4c-0.5,0-0.9,0.2-1.1,0.5s-0.3,0.9-0.3,1.7v3.1
			h-1.8v-6.6h1.4l0.2,0.8h0.1c0.2-0.3,0.5-0.6,0.8-0.7s0.7-0.2,1.2-0.2c0.8,0,1.3,0.2,1.7,0.6s0.6,1,0.6,1.8V145.1z"/>
		<path class="st6" d="M433.7,145.2c-1.1,0-1.9-0.3-2.5-0.9s-0.9-1.4-0.9-2.5c0-1.1,0.3-1.9,0.8-2.5s1.3-0.9,2.3-0.9
			c0.9,0,1.6,0.3,2.2,0.8s0.8,1.3,0.8,2.2v0.9h-4.2c0,0.5,0.2,0.9,0.5,1.2s0.7,0.4,1.2,0.4c0.4,0,0.8,0,1.1-0.1s0.7-0.2,1.1-0.4v1.4
			c-0.3,0.2-0.6,0.3-1,0.3S434.2,145.2,433.7,145.2z M433.5,139.7c-0.4,0-0.7,0.1-0.9,0.4s-0.3,0.6-0.4,1h2.5c0-0.4-0.1-0.8-0.3-1
			S433.9,139.7,433.5,139.7z"/>
		<path class="st6" d="M439.6,145.1h-1.8V136h1.8V145.1z"/>
	</g>
	<g>
		<path class="st6" d="M764.2,139.2c0,0.9-0.3,1.6-0.9,2.1s-1.4,0.7-2.5,0.7H760v3h-1.8v-8.6h2.7c1,0,1.8,0.2,2.4,0.7
			S764.2,138.3,764.2,139.2z M760,140.6h0.6c0.6,0,1-0.1,1.3-0.3s0.4-0.5,0.4-1c0-0.4-0.1-0.7-0.3-0.9s-0.6-0.3-1.1-0.3H760V140.6z"
			/>
		<path class="st6" d="M769.8,145.1l-0.3-0.9h0c-0.3,0.4-0.6,0.6-0.9,0.8s-0.7,0.2-1.2,0.2c-0.6,0-1.1-0.2-1.5-0.5s-0.5-0.9-0.5-1.5
			c0-0.7,0.2-1.2,0.7-1.5s1.2-0.5,2.2-0.5l1.1,0v-0.3c0-0.7-0.3-1-1-1c-0.5,0-1.1,0.2-1.8,0.5l-0.6-1.2c0.8-0.4,1.6-0.6,2.5-0.6
			c0.9,0,1.6,0.2,2,0.6s0.7,1,0.7,1.7v4.4H769.8z M769.3,142.1l-0.7,0c-0.5,0-0.9,0.1-1.2,0.3s-0.4,0.4-0.4,0.8
			c0,0.5,0.3,0.8,0.9,0.8c0.4,0,0.7-0.1,1-0.4s0.4-0.6,0.4-0.9V142.1z"/>
		<path class="st6" d="M778.9,145.1h-1.8v-3.8c0-0.5-0.1-0.8-0.3-1.1s-0.4-0.4-0.8-0.4c-0.5,0-0.9,0.2-1.1,0.5s-0.3,0.9-0.3,1.7v3.1
			h-1.8v-6.6h1.4l0.2,0.8h0.1c0.2-0.3,0.5-0.6,0.8-0.7s0.7-0.2,1.2-0.2c0.8,0,1.3,0.2,1.7,0.6s0.6,1,0.6,1.8V145.1z"/>
		<path class="st6" d="M783.7,145.2c-1.1,0-1.9-0.3-2.5-0.9s-0.9-1.4-0.9-2.5c0-1.1,0.3-1.9,0.8-2.5s1.3-0.9,2.3-0.9
			c0.9,0,1.6,0.3,2.2,0.8s0.8,1.3,0.8,2.2v0.9h-4.2c0,0.5,0.2,0.9,0.5,1.2s0.7,0.4,1.2,0.4c0.4,0,0.8,0,1.1-0.1s0.7-0.2,1.1-0.4v1.4
			c-0.3,0.2-0.6,0.3-1,0.3S784.2,145.2,783.7,145.2z M783.5,139.7c-0.4,0-0.7,0.1-0.9,0.4s-0.3,0.6-0.4,1h2.5c0-0.4-0.1-0.8-0.3-1
			S783.9,139.7,783.5,139.7z"/>
		<path class="st6" d="M789.6,145.1h-1.8V136h1.8V145.1z"/>
	</g>
	<g>
		<path class="st6" d="M700,195.1h-2.3l-3.7-6.5h-0.1c0.1,1.1,0.1,2,0.1,2.4v4h-1.6v-8.6h2.3l3.7,6.4h0c-0.1-1.1-0.1-1.9-0.1-2.4
			v-4.1h1.6V195.1z"/>
		<path class="st6" d="M705,195.2c-1.1,0-1.9-0.3-2.5-0.9s-0.9-1.4-0.9-2.5c0-1.1,0.3-1.9,0.8-2.5s1.3-0.9,2.3-0.9
			c0.9,0,1.6,0.3,2.2,0.8s0.8,1.3,0.8,2.2v0.9h-4.2c0,0.5,0.2,0.9,0.5,1.2s0.7,0.4,1.2,0.4c0.4,0,0.8,0,1.1-0.1s0.7-0.2,1.1-0.4v1.4
			c-0.3,0.2-0.6,0.3-1,0.3S705.5,195.2,705,195.2z M704.7,189.7c-0.4,0-0.7,0.1-0.9,0.4s-0.3,0.6-0.4,1h2.5c0-0.4-0.1-0.8-0.3-1
			S705.1,189.7,704.7,189.7z"/>
		<path class="st6" d="M713.7,193.2c0,0.7-0.2,1.2-0.7,1.5s-1.2,0.5-2.1,0.5c-0.5,0-0.9,0-1.2-0.1s-0.7-0.2-0.9-0.3v-1.5
			c0.3,0.2,0.7,0.3,1.1,0.4s0.8,0.2,1.1,0.2c0.6,0,1-0.2,1-0.6c0-0.1,0-0.3-0.1-0.3s-0.2-0.2-0.4-0.3s-0.5-0.2-0.8-0.4
			c-0.5-0.2-0.9-0.4-1.1-0.6s-0.4-0.4-0.5-0.6s-0.2-0.5-0.2-0.9c0-0.6,0.2-1,0.7-1.4s1.1-0.5,1.9-0.5c0.8,0,1.6,0.2,2.3,0.5
			l-0.5,1.3c-0.3-0.1-0.6-0.3-0.9-0.3s-0.6-0.1-0.9-0.1c-0.5,0-0.8,0.1-0.8,0.4c0,0.2,0.1,0.3,0.3,0.4s0.5,0.3,1.1,0.5
			c0.5,0.2,0.9,0.4,1.1,0.6s0.4,0.4,0.5,0.6S713.7,192.9,713.7,193.2z"/>
		<path class="st6" d="M717.8,193.8c0.3,0,0.7-0.1,1.1-0.2v1.3c-0.4,0.2-1,0.3-1.6,0.3c-0.7,0-1.2-0.2-1.6-0.5s-0.5-0.9-0.5-1.6
			v-3.2h-0.9v-0.8l1-0.6l0.5-1.4h1.1v1.4h1.8v1.3h-1.8v3.2c0,0.3,0.1,0.4,0.2,0.6S717.6,193.8,717.8,193.8z"/>
		<path class="st6" d="M723.3,195.2c-1.1,0-1.9-0.3-2.5-0.9s-0.9-1.4-0.9-2.5c0-1.1,0.3-1.9,0.8-2.5s1.3-0.9,2.3-0.9
			c0.9,0,1.6,0.3,2.2,0.8s0.8,1.3,0.8,2.2v0.9h-4.2c0,0.5,0.2,0.9,0.5,1.2s0.7,0.4,1.2,0.4c0.4,0,0.8,0,1.1-0.1s0.7-0.2,1.1-0.4v1.4
			c-0.3,0.2-0.6,0.3-1,0.3S723.8,195.2,723.3,195.2z M723,189.7c-0.4,0-0.7,0.1-0.9,0.4s-0.3,0.6-0.4,1h2.5c0-0.4-0.1-0.8-0.3-1
			S723.4,189.7,723,189.7z"/>
		<path class="st6" d="M729.5,195.2c-0.8,0-1.4-0.3-1.8-0.9s-0.7-1.4-0.7-2.5c0-1.1,0.2-1.9,0.7-2.5s1.1-0.9,1.8-0.9
			c0.8,0,1.5,0.3,1.9,1h0.1c-0.1-0.5-0.1-0.9-0.1-1.3V186h1.8v9.1h-1.4l-0.3-0.8h-0.1C730.9,194.9,730.3,195.2,729.5,195.2z
			 M730.1,193.8c0.5,0,0.8-0.1,1-0.4s0.3-0.7,0.3-1.4v-0.2c0-0.7-0.1-1.2-0.3-1.5s-0.6-0.5-1.1-0.5c-0.4,0-0.7,0.2-0.9,0.5
			s-0.3,0.8-0.3,1.5s0.1,1.1,0.3,1.5S729.7,193.8,730.1,193.8z"/>
		<path class="st6" d="M744.2,189.2c0,0.9-0.3,1.6-0.9,2.1s-1.4,0.7-2.5,0.7H740v3h-1.8v-8.6h2.7c1,0,1.8,0.2,2.4,0.7
			S744.2,188.3,744.2,189.2z M740,190.6h0.6c0.6,0,1-0.1,1.3-0.3s0.4-0.5,0.4-1c0-0.4-0.1-0.7-0.3-0.9s-0.6-0.3-1.1-0.3H740V190.6z"
			/>
		<path class="st6" d="M749.8,195.1l-0.3-0.9h0c-0.3,0.4-0.6,0.6-0.9,0.8s-0.7,0.2-1.2,0.2c-0.6,0-1.1-0.2-1.5-0.5s-0.5-0.9-0.5-1.5
			c0-0.7,0.2-1.2,0.7-1.5s1.2-0.5,2.2-0.5l1.1,0v-0.3c0-0.7-0.3-1-1-1c-0.5,0-1.1,0.2-1.8,0.5l-0.6-1.2c0.8-0.4,1.6-0.6,2.5-0.6
			c0.9,0,1.6,0.2,2,0.6s0.7,1,0.7,1.7v4.4H749.8z M749.3,192.1l-0.7,0c-0.5,0-0.9,0.1-1.2,0.3s-0.4,0.4-0.4,0.8
			c0,0.5,0.3,0.8,0.9,0.8c0.4,0,0.7-0.1,1-0.4s0.4-0.6,0.4-0.9V192.1z"/>
		<path class="st6" d="M758.9,195.1h-1.8v-3.8c0-0.5-0.1-0.8-0.3-1.1s-0.4-0.4-0.8-0.4c-0.5,0-0.9,0.2-1.1,0.5s-0.3,0.9-0.3,1.7v3.1
			h-1.8v-6.6h1.4l0.2,0.8h0.1c0.2-0.3,0.5-0.6,0.8-0.7s0.7-0.2,1.2-0.2c0.8,0,1.3,0.2,1.7,0.6s0.6,1,0.6,1.8V195.1z"/>
		<path class="st6" d="M763.7,195.2c-1.1,0-1.9-0.3-2.5-0.9s-0.9-1.4-0.9-2.5c0-1.1,0.3-1.9,0.8-2.5s1.3-0.9,2.3-0.9
			c0.9,0,1.6,0.3,2.2,0.8s0.8,1.3,0.8,2.2v0.9h-4.2c0,0.5,0.2,0.9,0.5,1.2s0.7,0.4,1.2,0.4c0.4,0,0.8,0,1.1-0.1s0.7-0.2,1.1-0.4v1.4
			c-0.3,0.2-0.6,0.3-1,0.3S764.2,195.2,763.7,195.2z M763.5,189.7c-0.4,0-0.7,0.1-0.9,0.4s-0.3,0.6-0.4,1h2.5c0-0.4-0.1-0.8-0.3-1
			S763.9,189.7,763.5,189.7z"/>
		<path class="st6" d="M769.6,195.1h-1.8V186h1.8V195.1z"/>
	</g>
	<g>
		<path class="st3" d="M547.7,60.2c0,1.1-0.3,1.9-1,2.5c-0.7,0.6-1.6,0.9-2.9,0.9H543v3.6h-2.1v-10h3.2c1.2,0,2.1,0.3,2.8,0.8
			C547.4,58.4,547.7,59.2,547.7,60.2z M543,61.8h0.7c0.7,0,1.1-0.1,1.5-0.4c0.3-0.3,0.5-0.6,0.5-1.1c0-0.5-0.1-0.9-0.4-1.1
			c-0.3-0.2-0.7-0.4-1.3-0.4h-1V61.8z"/>
		<path class="st3" d="M554.3,67.1l-0.4-1h-0.1c-0.4,0.4-0.7,0.7-1.1,0.9c-0.4,0.2-0.9,0.3-1.5,0.3c-0.7,0-1.3-0.2-1.7-0.6
			c-0.4-0.4-0.6-1-0.6-1.8c0-0.8,0.3-1.4,0.9-1.8c0.6-0.4,1.4-0.6,2.6-0.6l1.3,0V62c0-0.8-0.4-1.2-1.2-1.2c-0.6,0-1.3,0.2-2.2,0.6
			l-0.7-1.4c0.9-0.5,1.9-0.7,2.9-0.7c1,0,1.8,0.2,2.4,0.7s0.8,1.1,0.8,2v5.1H554.3z M553.7,63.6l-0.8,0c-0.6,0-1.1,0.1-1.4,0.3
			c-0.3,0.2-0.4,0.5-0.4,0.9c0,0.6,0.3,0.9,1,0.9c0.5,0,0.9-0.1,1.2-0.4c0.3-0.3,0.4-0.6,0.4-1.1V63.6z"/>
		<path class="st3" d="M564.6,59.5v1.1l-1.2,0.3c0.2,0.3,0.3,0.7,0.3,1.1c0,0.8-0.3,1.5-0.9,1.9c-0.6,0.5-1.4,0.7-2.4,0.7l-0.4,0
			l-0.3,0c-0.2,0.2-0.3,0.3-0.3,0.5c0,0.3,0.4,0.5,1.1,0.5h1.3c0.8,0,1.5,0.2,1.9,0.5c0.4,0.4,0.7,0.9,0.7,1.6
			c0,0.9-0.4,1.6-1.1,2.1s-1.8,0.7-3.2,0.7c-1.1,0-1.9-0.2-2.4-0.6c-0.6-0.4-0.8-0.9-0.8-1.6c0-0.5,0.1-0.8,0.4-1.2s0.7-0.5,1.3-0.7
			c-0.2-0.1-0.4-0.2-0.6-0.4c-0.2-0.2-0.2-0.4-0.2-0.7c0-0.3,0.1-0.5,0.3-0.7c0.2-0.2,0.4-0.4,0.7-0.6c-0.4-0.2-0.7-0.5-1-0.8
			c-0.2-0.4-0.4-0.8-0.4-1.4c0-0.8,0.3-1.5,0.8-1.9c0.5-0.5,1.3-0.7,2.3-0.7c0.2,0,0.5,0,0.8,0.1s0.5,0.1,0.6,0.1H564.6z
			 M558.7,68.2c0,0.3,0.1,0.5,0.4,0.7c0.3,0.2,0.7,0.2,1.2,0.2c0.7,0,1.3-0.1,1.8-0.3s0.6-0.5,0.6-0.8c0-0.3-0.1-0.5-0.4-0.6
			c-0.3-0.1-0.6-0.2-1.2-0.2H560c-0.4,0-0.7,0.1-1,0.3C558.8,67.7,558.7,67.9,558.7,68.2z M559.4,62c0,0.4,0.1,0.7,0.3,1
			c0.2,0.2,0.5,0.4,0.9,0.4c0.4,0,0.7-0.1,0.9-0.4c0.2-0.2,0.3-0.6,0.3-1c0-0.9-0.4-1.4-1.1-1.4C559.8,60.6,559.4,61.1,559.4,62z"/>
		<path class="st3" d="M569.3,67.3c-1.2,0-2.2-0.3-2.9-1c-0.7-0.7-1-1.6-1-2.9c0-1.3,0.3-2.3,1-3c0.6-0.7,1.5-1,2.7-1
			c1.1,0,1.9,0.3,2.5,0.9s0.9,1.5,0.9,2.5v1h-4.9c0,0.6,0.2,1.1,0.5,1.4s0.8,0.5,1.4,0.5c0.5,0,0.9,0,1.3-0.1s0.8-0.2,1.3-0.5v1.6
			c-0.4,0.2-0.8,0.3-1.2,0.4C570.4,67.2,569.9,67.3,569.3,67.3z M569,60.8c-0.4,0-0.8,0.1-1,0.4c-0.3,0.3-0.4,0.7-0.4,1.2h2.9
			c0-0.5-0.1-0.9-0.4-1.2C569.8,61,569.4,60.8,569,60.8z"/>
		<path class="st3" d="M586.8,67.1h-2.7l-4.3-7.6h-0.1c0.1,1.3,0.1,2.3,0.1,2.9v4.7h-1.9v-10h2.7l4.3,7.5h0
			c-0.1-1.3-0.1-2.2-0.1-2.8v-4.7h1.9V67.1z"/>
	</g>
	<g>
		<path class="st4" d="M69.6,132.1c0,1.3-0.3,2.3-0.8,3.2s-1.2,1.4-2.2,1.7l2.4,2.5h-1.7l-1.9-2.3l-0.4,0c-1.5,0-2.6-0.5-3.4-1.3
			c-0.8-0.9-1.2-2.2-1.2-3.8c0-1.6,0.4-2.9,1.2-3.8s1.9-1.3,3.4-1.3c1.4,0,2.6,0.5,3.4,1.4S69.6,130.5,69.6,132.1z M61.7,132.1
			c0,1.4,0.3,2.4,0.9,3.1c0.6,0.7,1.4,1,2.5,1c1.1,0,1.9-0.3,2.5-1s0.8-1.7,0.8-3.1c0-1.3-0.3-2.4-0.8-3.1s-1.4-1-2.5-1
			c-1.1,0-1.9,0.3-2.5,1S61.7,130.8,61.7,132.1z"/>
		<path class="st4" d="M72.7,129.6v4.9c0,0.6,0.1,1.1,0.4,1.4s0.7,0.5,1.3,0.5c0.8,0,1.4-0.2,1.7-0.6s0.5-1.1,0.5-2.1v-3.9h1.1v7.5
			h-0.9l-0.2-1h-0.1c-0.2,0.4-0.6,0.7-1,0.8s-0.9,0.3-1.4,0.3c-0.9,0-1.6-0.2-2-0.6s-0.7-1.1-0.7-2.1v-4.9H72.7z"/>
		<path class="st4" d="M83.4,137.3c-1.1,0-2-0.3-2.6-1s-1-1.6-1-2.8c0-1.2,0.3-2.2,0.9-2.9s1.4-1.1,2.4-1.1c0.9,0,1.7,0.3,2.2,0.9
			s0.8,1.4,0.8,2.4v0.7H81c0,0.9,0.2,1.5,0.7,2s1,0.7,1.8,0.7c0.8,0,1.6-0.2,2.4-0.5v1c-0.4,0.2-0.8,0.3-1.1,0.4
			C84.4,137.2,83.9,137.3,83.4,137.3z M83.1,130.4c-0.6,0-1.1,0.2-1.4,0.6s-0.6,0.9-0.6,1.6H85c0-0.7-0.2-1.3-0.5-1.6
			C84.2,130.6,83.7,130.4,83.1,130.4z"/>
		<path class="st4" d="M93,135.1c0,0.7-0.3,1.2-0.8,1.6s-1.2,0.6-2.2,0.6c-1,0-1.8-0.2-2.3-0.5v-1.1c0.4,0.2,0.7,0.3,1.2,0.4
			s0.8,0.2,1.2,0.2c0.6,0,1-0.1,1.4-0.3c0.3-0.2,0.5-0.5,0.5-0.9c0-0.3-0.1-0.5-0.4-0.7c-0.3-0.2-0.7-0.5-1.5-0.7
			c-0.7-0.3-1.2-0.5-1.5-0.7c-0.3-0.2-0.5-0.4-0.7-0.7s-0.2-0.5-0.2-0.9c0-0.6,0.2-1.1,0.7-1.4s1.2-0.5,2-0.5c0.8,0,1.6,0.2,2.4,0.5
			l-0.4,0.9c-0.8-0.3-1.4-0.5-2-0.5c-0.5,0-0.9,0.1-1.2,0.3s-0.4,0.4-0.4,0.7c0,0.2,0.1,0.4,0.2,0.5s0.3,0.3,0.5,0.4
			s0.7,0.3,1.3,0.6c0.9,0.3,1.5,0.6,1.8,1S93,134.6,93,135.1z"/>
		<path class="st4" d="M97.2,136.3c0.2,0,0.4,0,0.6,0c0.2,0,0.3-0.1,0.4-0.1v0.9c-0.1,0.1-0.3,0.1-0.5,0.1c-0.2,0-0.5,0.1-0.6,0.1
			c-1.4,0-2.2-0.8-2.2-2.3v-4.5h-1.1V130l1.1-0.5l0.5-1.6H96v1.7h2.2v0.9H96v4.4c0,0.5,0.1,0.8,0.3,1S96.9,136.3,97.2,136.3z"/>
		<path class="st4" d="M99.7,127.6c0-0.3,0.1-0.5,0.2-0.6s0.3-0.2,0.5-0.2c0.2,0,0.3,0.1,0.5,0.2s0.2,0.3,0.2,0.6s-0.1,0.4-0.2,0.6
			s-0.3,0.2-0.5,0.2c-0.2,0-0.4-0.1-0.5-0.2S99.7,127.9,99.7,127.6z M100.9,137.1h-1.1v-7.5h1.1V137.1z"/>
		<path class="st4" d="M109.8,133.4c0,1.2-0.3,2.2-0.9,2.9c-0.6,0.7-1.5,1-2.5,1c-0.7,0-1.3-0.2-1.8-0.5s-0.9-0.8-1.2-1.4
			s-0.4-1.3-0.4-2.1c0-1.2,0.3-2.2,0.9-2.9c0.6-0.7,1.5-1,2.5-1c1,0,1.9,0.3,2.5,1S109.8,132.2,109.8,133.4z M104.1,133.4
			c0,1,0.2,1.7,0.6,2.2s0.9,0.8,1.7,0.8s1.3-0.2,1.7-0.7c0.4-0.5,0.6-1.2,0.6-2.2c0-1-0.2-1.7-0.6-2.2c-0.4-0.5-1-0.7-1.7-0.7
			c-0.7,0-1.3,0.2-1.7,0.7C104.2,131.7,104.1,132.4,104.1,133.4z"/>
		<path class="st4" d="M116.9,137.1v-4.8c0-0.6-0.1-1.1-0.4-1.4s-0.7-0.5-1.3-0.5c-0.8,0-1.4,0.2-1.7,0.6s-0.5,1.1-0.5,2.1v3.9h-1.1
			v-7.5h0.9l0.2,1h0.1c0.2-0.4,0.6-0.7,1-0.9s0.9-0.3,1.4-0.3c0.9,0,1.6,0.2,2,0.7s0.7,1.1,0.7,2.1v4.9H116.9z"/>
	</g>
	<g>
		<path class="st4" d="M69.6,162.1c0,1.3-0.3,2.3-0.8,3.2s-1.2,1.4-2.2,1.7l2.4,2.5h-1.7l-1.9-2.3l-0.4,0c-1.5,0-2.6-0.5-3.4-1.3
			c-0.8-0.9-1.2-2.2-1.2-3.8c0-1.6,0.4-2.9,1.2-3.8s1.9-1.3,3.4-1.3c1.4,0,2.6,0.5,3.4,1.4S69.6,160.5,69.6,162.1z M61.7,162.1
			c0,1.4,0.3,2.4,0.9,3.1c0.6,0.7,1.4,1,2.5,1c1.1,0,1.9-0.3,2.5-1s0.8-1.7,0.8-3.1c0-1.3-0.3-2.4-0.8-3.1s-1.4-1-2.5-1
			c-1.1,0-1.9,0.3-2.5,1S61.7,160.8,61.7,162.1z"/>
		<path class="st4" d="M72.7,159.6v4.9c0,0.6,0.1,1.1,0.4,1.4s0.7,0.5,1.3,0.5c0.8,0,1.4-0.2,1.7-0.6s0.5-1.1,0.5-2.1v-3.9h1.1v7.5
			h-0.9l-0.2-1h-0.1c-0.2,0.4-0.6,0.7-1,0.8s-0.9,0.3-1.4,0.3c-0.9,0-1.6-0.2-2-0.6s-0.7-1.1-0.7-2.1v-4.9H72.7z"/>
		<path class="st4" d="M83.4,167.3c-1.1,0-2-0.3-2.6-1s-1-1.6-1-2.8c0-1.2,0.3-2.2,0.9-2.9s1.4-1.1,2.4-1.1c0.9,0,1.7,0.3,2.2,0.9
			s0.8,1.4,0.8,2.4v0.7H81c0,0.9,0.2,1.5,0.7,2s1,0.7,1.8,0.7c0.8,0,1.6-0.2,2.4-0.5v1c-0.4,0.2-0.8,0.3-1.1,0.4
			C84.4,167.2,83.9,167.3,83.4,167.3z M83.1,160.4c-0.6,0-1.1,0.2-1.4,0.6s-0.6,0.9-0.6,1.6H85c0-0.7-0.2-1.3-0.5-1.6
			C84.2,160.6,83.7,160.4,83.1,160.4z"/>
		<path class="st4" d="M93,165.1c0,0.7-0.3,1.2-0.8,1.6s-1.2,0.6-2.2,0.6c-1,0-1.8-0.2-2.3-0.5v-1.1c0.4,0.2,0.7,0.3,1.2,0.4
			s0.8,0.2,1.2,0.2c0.6,0,1-0.1,1.4-0.3c0.3-0.2,0.5-0.5,0.5-0.9c0-0.3-0.1-0.5-0.4-0.7c-0.3-0.2-0.7-0.5-1.5-0.7
			c-0.7-0.3-1.2-0.5-1.5-0.7c-0.3-0.2-0.5-0.4-0.7-0.7s-0.2-0.5-0.2-0.9c0-0.6,0.2-1.1,0.7-1.4s1.2-0.5,2-0.5c0.8,0,1.6,0.2,2.4,0.5
			l-0.4,0.9c-0.8-0.3-1.4-0.5-2-0.5c-0.5,0-0.9,0.1-1.2,0.3s-0.4,0.4-0.4,0.7c0,0.2,0.1,0.4,0.2,0.5s0.3,0.3,0.5,0.4
			s0.7,0.3,1.3,0.6c0.9,0.3,1.5,0.6,1.8,1S93,164.6,93,165.1z"/>
		<path class="st4" d="M97.2,166.3c0.2,0,0.4,0,0.6,0c0.2,0,0.3-0.1,0.4-0.1v0.9c-0.1,0.1-0.3,0.1-0.5,0.1c-0.2,0-0.5,0.1-0.6,0.1
			c-1.4,0-2.2-0.8-2.2-2.3v-4.5h-1.1V160l1.1-0.5l0.5-1.6H96v1.7h2.2v0.9H96v4.4c0,0.5,0.1,0.8,0.3,1S96.9,166.3,97.2,166.3z"/>
		<path class="st4" d="M99.7,157.6c0-0.3,0.1-0.5,0.2-0.6s0.3-0.2,0.5-0.2c0.2,0,0.3,0.1,0.5,0.2s0.2,0.3,0.2,0.6s-0.1,0.4-0.2,0.6
			s-0.3,0.2-0.5,0.2c-0.2,0-0.4-0.1-0.5-0.2S99.7,157.9,99.7,157.6z M100.9,167.1h-1.1v-7.5h1.1V167.1z"/>
		<path class="st4" d="M109.8,163.4c0,1.2-0.3,2.2-0.9,2.9c-0.6,0.7-1.5,1-2.5,1c-0.7,0-1.3-0.2-1.8-0.5s-0.9-0.8-1.2-1.4
			s-0.4-1.3-0.4-2.1c0-1.2,0.3-2.2,0.9-2.9c0.6-0.7,1.5-1,2.5-1c1,0,1.9,0.3,2.5,1S109.8,162.2,109.8,163.4z M104.1,163.4
			c0,1,0.2,1.7,0.6,2.2s0.9,0.8,1.7,0.8s1.3-0.2,1.7-0.7c0.4-0.5,0.6-1.2,0.6-2.2c0-1-0.2-1.7-0.6-2.2c-0.4-0.5-1-0.7-1.7-0.7
			c-0.7,0-1.3,0.2-1.7,0.7C104.2,161.7,104.1,162.4,104.1,163.4z"/>
		<path class="st4" d="M116.9,167.1v-4.8c0-0.6-0.1-1.1-0.4-1.4s-0.7-0.5-1.3-0.5c-0.8,0-1.4,0.2-1.7,0.6s-0.5,1.1-0.5,2.1v3.9h-1.1
			v-7.5h0.9l0.2,1h0.1c0.2-0.4,0.6-0.7,1-0.9s0.9-0.3,1.4-0.3c0.9,0,1.6,0.2,2,0.7s0.7,1.1,0.7,2.1v4.9H116.9z"/>
	</g>
	<g>
		<path class="st4" d="M69.6,192.1c0,1.3-0.3,2.3-0.8,3.2s-1.2,1.4-2.2,1.7l2.4,2.5h-1.7l-1.9-2.3l-0.4,0c-1.5,0-2.6-0.5-3.4-1.3
			c-0.8-0.9-1.2-2.2-1.2-3.8c0-1.6,0.4-2.9,1.2-3.8s1.9-1.3,3.4-1.3c1.4,0,2.6,0.5,3.4,1.4S69.6,190.5,69.6,192.1z M61.7,192.1
			c0,1.4,0.3,2.4,0.9,3.1c0.6,0.7,1.4,1,2.5,1c1.1,0,1.9-0.3,2.5-1s0.8-1.7,0.8-3.1c0-1.3-0.3-2.4-0.8-3.1s-1.4-1-2.5-1
			c-1.1,0-1.9,0.3-2.5,1S61.7,190.8,61.7,192.1z"/>
		<path class="st4" d="M72.7,189.6v4.9c0,0.6,0.1,1.1,0.4,1.4s0.7,0.5,1.3,0.5c0.8,0,1.4-0.2,1.7-0.6s0.5-1.1,0.5-2.1v-3.9h1.1v7.5
			h-0.9l-0.2-1h-0.1c-0.2,0.4-0.6,0.7-1,0.8s-0.9,0.3-1.4,0.3c-0.9,0-1.6-0.2-2-0.6s-0.7-1.1-0.7-2.1v-4.9H72.7z"/>
		<path class="st4" d="M83.4,197.3c-1.1,0-2-0.3-2.6-1s-1-1.6-1-2.8c0-1.2,0.3-2.2,0.9-2.9s1.4-1.1,2.4-1.1c0.9,0,1.7,0.3,2.2,0.9
			s0.8,1.4,0.8,2.4v0.7H81c0,0.9,0.2,1.5,0.7,2s1,0.7,1.8,0.7c0.8,0,1.6-0.2,2.4-0.5v1c-0.4,0.2-0.8,0.3-1.1,0.4
			C84.4,197.2,83.9,197.3,83.4,197.3z M83.1,190.4c-0.6,0-1.1,0.2-1.4,0.6s-0.6,0.9-0.6,1.6H85c0-0.7-0.2-1.3-0.5-1.6
			C84.2,190.6,83.7,190.4,83.1,190.4z"/>
		<path class="st4" d="M93,195.1c0,0.7-0.3,1.2-0.8,1.6s-1.2,0.6-2.2,0.6c-1,0-1.8-0.2-2.3-0.5v-1.1c0.4,0.2,0.7,0.3,1.2,0.4
			s0.8,0.2,1.2,0.2c0.6,0,1-0.1,1.4-0.3c0.3-0.2,0.5-0.5,0.5-0.9c0-0.3-0.1-0.5-0.4-0.7c-0.3-0.2-0.7-0.5-1.5-0.7
			c-0.7-0.3-1.2-0.5-1.5-0.7c-0.3-0.2-0.5-0.4-0.7-0.7s-0.2-0.5-0.2-0.9c0-0.6,0.2-1.1,0.7-1.4s1.2-0.5,2-0.5c0.8,0,1.6,0.2,2.4,0.5
			l-0.4,0.9c-0.8-0.3-1.4-0.5-2-0.5c-0.5,0-0.9,0.1-1.2,0.3s-0.4,0.4-0.4,0.7c0,0.2,0.1,0.4,0.2,0.5s0.3,0.3,0.5,0.4
			s0.7,0.3,1.3,0.6c0.9,0.3,1.5,0.6,1.8,1S93,194.6,93,195.1z"/>
		<path class="st4" d="M97.2,196.3c0.2,0,0.4,0,0.6,0c0.2,0,0.3-0.1,0.4-0.1v0.9c-0.1,0.1-0.3,0.1-0.5,0.1c-0.2,0-0.5,0.1-0.6,0.1
			c-1.4,0-2.2-0.8-2.2-2.3v-4.5h-1.1V190l1.1-0.5l0.5-1.6H96v1.7h2.2v0.9H96v4.4c0,0.5,0.1,0.8,0.3,1S96.9,196.3,97.2,196.3z"/>
		<path class="st4" d="M99.7,187.6c0-0.3,0.1-0.5,0.2-0.6s0.3-0.2,0.5-0.2c0.2,0,0.3,0.1,0.5,0.2s0.2,0.3,0.2,0.6s-0.1,0.4-0.2,0.6
			s-0.3,0.2-0.5,0.2c-0.2,0-0.4-0.1-0.5-0.2S99.7,187.9,99.7,187.6z M100.9,197.1h-1.1v-7.5h1.1V197.1z"/>
		<path class="st4" d="M109.8,193.4c0,1.2-0.3,2.2-0.9,2.9c-0.6,0.7-1.5,1-2.5,1c-0.7,0-1.3-0.2-1.8-0.5s-0.9-0.8-1.2-1.4
			s-0.4-1.3-0.4-2.1c0-1.2,0.3-2.2,0.9-2.9c0.6-0.7,1.5-1,2.5-1c1,0,1.9,0.3,2.5,1S109.8,192.2,109.8,193.4z M104.1,193.4
			c0,1,0.2,1.7,0.6,2.2s0.9,0.8,1.7,0.8s1.3-0.2,1.7-0.7c0.4-0.5,0.6-1.2,0.6-2.2c0-1-0.2-1.7-0.6-2.2c-0.4-0.5-1-0.7-1.7-0.7
			c-0.7,0-1.3,0.2-1.7,0.7C104.2,191.7,104.1,192.4,104.1,193.4z"/>
		<path class="st4" d="M116.9,197.1v-4.8c0-0.6-0.1-1.1-0.4-1.4s-0.7-0.5-1.3-0.5c-0.8,0-1.4,0.2-1.7,0.6s-0.5,1.1-0.5,2.1v3.9h-1.1
			v-7.5h0.9l0.2,1h0.1c0.2-0.4,0.6-0.7,1-0.9s0.9-0.3,1.4-0.3c0.9,0,1.6,0.2,2,0.7s0.7,1.1,0.7,2.1v4.9H116.9z"/>
	</g>
	<g>
		<circle class="st3" cx="499.2" cy="167.5" r="2"/>
		<circle class="st3" cx="505.2" cy="167.5" r="2"/>
		<circle class="st3" cx="511.2" cy="167.5" r="2"/>
	</g>
</g>
</svg>
